<svg xmlns="http://www.w3.org/2000/svg" xmlns:xlink="http://www.w3.org/1999/xlink"><symbol id="agriculture" viewBox="0 0 465 397"><g fill-rule="nonzero"><path d="M277.888 90.306h-21.123a4.97 4.97 0 110-9.94h21.123a4.97 4.97 0 110 9.94zM341.387 162.858c-68.072 0-123.454 49.15-123.454 117.224 0 32.625 12.947 62.438 36.455 83.945 22.833 20.89 53.729 32.395 86.999 32.395 33.271 0 64.169-11.505 87.001-32.395 23.508-21.509 36.454-51.32 36.454-83.945 0-68.073-55.382-117.224-123.455-117.224zm0 169.819c-29 0-52.595-23.594-52.595-52.595 0-29.002 23.595-52.596 52.595-52.596 29.001 0 52.595 23.594 52.595 52.596-.001 29.001-23.594 52.595-52.595 52.595zM87.4 226.648c-48.193 0-87.4 39.209-87.4 87.401 0 23.101 9.167 44.209 25.812 59.438 16.166 14.79 38.038 22.935 61.589 22.935 23.552 0 45.425-8.145 61.59-22.935 16.645-15.229 25.812-36.339 25.812-59.438-.001-48.192-39.209-87.401-87.403-87.401zm0 124.465c-20.435 0-37.06-16.627-37.06-37.063 0-20.436 16.625-37.062 37.06-37.062 20.435 0 37.061 16.626 37.061 37.062 0 20.436-16.626 37.063-37.061 37.063z"/><path d="M245.277 186.425c25.347-23.58 59.479-36.566 96.108-36.566 24.679 0 48.221 5.901 68.708 16.959.103.055.204.088.306.132a9.953 9.953 0 006.717 1.847c5.501-.49 9.562-5.347 9.072-10.848-.093-1.047-9.351-104.934-11.104-125.312C412.313.419 389.037.419 380.275.419H245.281c-12.047-.024-34.378-.013-41.274 34.135-3.881 19.216-12.413 59.658-19 90.541h-92.26V74.513c0-7.375-5.979-13.353-13.353-13.353s-13.353 5.979-13.353 13.353v50.582h-22.52c-38.677 0-50.627 83.074-29.327 120.321 18.33-19.54 44.365-31.77 73.208-31.77 50.5 0 92.405 37.479 99.376 86.083h19.604a133.193 133.193 0 01-1.448-19.647c-.001-36.191 14.327-69.453 40.343-93.657zM395.159 34.352c1.099 12.771 5.136 58.241 8.026 90.744h-83.104V20.419h60.196c9.733 0 13.729.535 14.882 13.933zm-171.548 4.161c3.656-18.1 10.463-18.087 21.663-18.094h58.807v104.676h-98.629c6.945-32.639 15.402-72.932 18.159-86.582z"/></g></symbol><symbol id="building" viewBox="0 0 78 80"><path d="M41.063 0v1.386L2.214 14.121l-2.134.242v11.363h5.465v16.97l-1.849 1.985 1.627 12.186h1.588v3.64s-2.01.169-2.01 4.804c0 3.065 1.839 4.098 5.097 4.098 3.615 0 4.273-1.916 4.273-4.737 0 0-1.127 2.119-4.087 2.119-2.101 0-2.42-1.19-2.42-2.12 0-1.082.171-2.316 3.245-2.316v-5.488h1.635l1.627-12.186-1.896-1.98V25.726h9.563v5.811l4.128 6.375h8.166v27.08h-6.83v14.893h32.786V64.991h-6.83V25.726h8.196v12.186H76.58V25.726h1.366v-11.32l-1.934-.29-28.12-12.4V0h-6.83zm8.196 34.193v6.426H42.86l6.399-6.426zm-4.206 11.842L38.33 52.35v-6.314h6.723zm-6.723-8.317v-6.576h6.82l-6.82 6.576zm0-22.824h7.287l-6.604 6.77h-.683v-6.77zm0 44.681h5.465l-4.099 4.062H38.33v-4.062zM49.26 54.16h-4.676l4.676-4.91v4.91zm0-32.495h-5.977l5.977-6.177v6.177zm0 41.973h-4.553l4.553-4.288v4.288zM41.063 4.238v5.455L15.55 12.6l25.512-8.362zM7.049 45.866c0-1.059.866-1.918 1.935-1.918 1.07 0 1.936.858 1.936 1.918s-.866 1.919-1.936 1.919c-1.07 0-1.935-.86-1.935-1.919zm3.96-4.593l-.626-.654H7.48l-.57.611V25.726h4.099v15.547zm1.366-18.255H2.813v-6.24l31.42-3.654v9.894H12.374zm40.982 0v-9.054l.344-.353 21.513 3.125v6.281H53.357zm12.5-10.415L47.893 9.926V4.681l17.964 7.922z" fill-rule="nonzero"/></symbol><symbol id="culture" viewBox="0 0 92 80"><g fill-rule="nonzero"><path d="M90.186 26.62a2.328 2.328 0 00-3.032-1.63c-5.411 1.907-13.76 3.133-23.15 3.133-2.283 0-4.483-.087-6.617-.225-1.103 4.998-2.865 9.587-5.117 13.629.11-.005.214-.023.325-.023 2.918 0 5.283-.244 5.283 1.728 0 1.97-2.365 5.411-5.283 5.411-1.7 0-3.196-.551-4.162-1.394-2.916 3.631-6.323 6.494-10.075 8.388 4.23 14.28 14.12 24.296 25.646 24.296 15.376 0 27.84-17.826 27.84-39.817 0-4.743-.591-9.282-1.658-13.497zM75.098 68.306a.623.623 0 01-1.004.334c-2.169-1.827-5.858-3.042-10.09-3.042s-7.922 1.215-10.09 3.042a.624.624 0 01-.595.114.625.625 0 01-.41-.448c-.18-.766-.29-1.556-.29-2.378 0-6.305 5.098-11.417 11.385-11.417S75.39 59.624 75.39 65.93c0 .822-.111 1.612-.29 2.378zm.314-19.664c-2.918 0-5.283-3.44-5.283-5.412 0-1.97 2.365-1.727 5.283-1.727s5.283 1.598 5.283 3.57c0 1.97-2.365 3.57-5.283 3.57z"/><path d="M55.68 15.363c0-4.743-.59-9.283-1.658-13.497A2.332 2.332 0 0051.764.105c-.26 0-.522.043-.773.132C45.58 2.143 37.23 3.37 27.84 3.37 18.45 3.37 10.1 2.143 4.688.237a2.34 2.34 0 00-1.873.145c-.575.31-.998.848-1.158 1.484A55.038 55.038 0 000 15.363c0 21.99 12.464 39.816 27.84 39.816s27.84-17.826 27.84-39.816zM11.148 20.31c0-1.971 2.366-3.57 5.284-3.57 2.917 0 5.282 3.441 5.282 5.413 0 1.97-2.365 1.727-5.282 1.727-2.918 0-5.284-1.599-5.284-3.57zM27.84 47.652c-6.287 0-11.384-5.112-11.384-11.417 0-.821.11-1.612.29-2.378a.627.627 0 01.409-.448.624.624 0 01.595.114c2.169 1.827 5.858 3.042 10.09 3.042s7.921-1.215 10.09-3.042a.624.624 0 011.005.334c.179.766.29 1.557.29 2.378 0 6.305-5.097 11.417-11.385 11.417zm6.126-25.498c0-1.972 2.365-5.412 5.283-5.412s5.283 1.598 5.283 3.57c0 1.97-2.365 3.569-5.283 3.569s-5.283.244-5.283-1.727z"/></g></symbol><symbol id="demography" viewBox="0 0 95 80"><path d="M57.328 13.731c4.393 2.756 7.473 7.42 8.034 12.833a13.85 13.85 0 005.887 1.32c7.696 0 13.933-6.242 13.933-13.942S78.945 0 71.25 0c-7.622.002-13.804 6.132-13.92 13.731zm-9.127 28.546c7.695 0 13.933-6.242 13.933-13.942s-6.239-13.94-13.933-13.94c-7.695 0-13.936 6.242-13.936 13.941 0 7.7 6.241 13.941 13.936 13.941zm5.91.95H42.288c-9.836 0-17.84 8.01-17.84 17.853v14.468l.038.226.996.312C34.869 79.021 43.024 80 49.737 80c13.111 0 20.711-3.74 21.18-3.98l.93-.47h.1V61.08c.003-9.843-8-17.853-17.836-17.853zm23.05-14.392h-11.73a17.187 17.187 0 01-5.3 11.968c8.744 2.601 15.141 10.715 15.141 20.298v4.459c11.583-.425 18.258-3.71 18.698-3.93l.93-.473h.1V46.685c0-9.843-8.003-17.85-17.838-17.85zm-53.408-.95c2.726 0 5.262-.796 7.41-2.152a17.257 17.257 0 016.481-11.004c.015-.261.04-.52.04-.783 0-7.701-6.239-13.942-13.931-13.942C16.056.004 9.82 6.245 9.82 13.946c0 7.697 6.236 13.94 13.933 13.94zm12.513 12.918A17.198 17.198 0 0130.97 28.9c-.436-.032-.866-.066-1.31-.066H17.84C8.002 28.835 0 36.842 0 46.685v14.47l.037.223.996.314c7.53 2.353 14.251 3.437 20.09 3.779V61.1c.002-9.583 6.397-17.694 15.143-20.298z" fill-rule="nonzero"/></symbol><symbol id="ecology" viewBox="0 0 80 80"><g fill-rule="nonzero"><path d="M39.412 29.39c.751.296 1.488-.427 1.24-1.196-1.71-5.28-7.9-7.249-13.653-2.565-3.026 2.464-4.164 2.988-4.192 3 1.995 2 4.274 8.709 9.249 9.451 5.48.996 10.33-4.407 6.361-6.88a16.914 16.914 0 00-8.975-2.57c3.453-.78 6.9-.446 9.97.76zM64.225 25.629c-9.932-8.086-16.265 4.665-12.328 3.401a16.895 16.895 0 018.92-.4c-5.196 0-9.985 2.386-13.178 6.27.262-6.104.659-9.925 1.118-12.767 2.654-.091 6.191-2.24 8.134-5.998C60.24 10.13 58.687 3.97 58.187.085 55.57 2.637 44.14-.356 39.609 7.427c-2.002 3.438-1.42 7.62.685 10.682.667.97 2.26.504 2.306-.672.198-5.116 2.738-8.981 7.475-11.122a23.115 23.115 0 00-4.242 9.043c-1.12 4.975-2.29 8.238-2.72 24.094-.044 1.608 1.255 2.94 2.86 2.92 1.162-.015 2.158-.754 2.604-1.83.68-1.634 1.786-3.326 3.586-4.877 1.71 1.895 4.313 2.903 7.006 2.414 4.954-.739 7.265-7.462 9.25-9.45-.03-.014-1.167-.537-4.194-3.001zM78.825 45.385c-3.105-2.11-6.484-.606-8.036.292L51.314 59.962l-11.403.003-2.85-2.857h10.471c3.15 0 6.677-2.056 6.677-5.716 0-3.885-3.527-5.715-6.677-5.715h-3.924c-2.915 0-6.322.26-8.724-1.029-2.282-1.164-4.91-1.826-7.716-1.826-4.71 0-8.927 1.882-11.816 4.85L0 62.82l17.105 17.143 5.701-8.571H49.75c2.873 0 5.647-1.057 7.795-2.969l21.476-19.12c1.194-1.063 1.127-3.018-.195-3.917z"/></g></symbol><symbol id="economy" viewBox="0 0 84 80"><g fill-rule="nonzero"><path d="M80.912.068H3.088C1.385.068 0 1.466 0 3.18v51.443c0 1.716 1.385 3.112 3.088 3.112h77.824c1.703 0 3.088-1.396 3.088-3.112V3.18C84 1.466 82.615.068 80.912.068zm-9.594 14.97l-.262 11.384a2.48 2.48 0 01-2.47 2.431l-.058-.001a2.479 2.479 0 01-2.412-2.546l.124-5.381-10.347 9.942a2.457 2.457 0 01-3.08.265l-10.517-7.104-11.246 11.15a2.453 2.453 0 01-2.747.495l-10.68-4.845V43.01h51.224a2.481 2.481 0 012.47 2.49 2.48 2.48 0 01-2.47 2.49H15.153a2.48 2.48 0 01-2.47-2.49V12.304a2.481 2.481 0 012.47-2.49 2.481 2.481 0 012.47 2.49v13.064l11.168 5.067 11.476-11.38a2.455 2.455 0 013.108-.291l10.543 7.12 8.902-8.554-5.326-.125a2.481 2.481 0 01-2.413-2.546 2.482 2.482 0 012.528-2.431l11.296.263c1.206 0 2.413 1.011 2.413 2.547zM59.974 74.953H51.03l-1.016-12.239h-16.03L32.97 74.953h-8.943a2.48 2.48 0 00-2.47 2.49 2.48 2.48 0 002.47 2.489h35.948a2.48 2.48 0 002.47-2.49 2.48 2.48 0 00-2.47-2.49z"/></g></symbol><symbol id="education" viewBox="0 0 104 80"><g fill-rule="nonzero"><path d="M15.909.017H15.9c-.984 0-1.909.386-2.607 1.087a3.742 3.742 0 00-1.096 2.659v56.164c0 2.06 1.672 3.739 3.727 3.744 8.662.021 23.175 1.838 33.187 12.383V17.277c0-.698-.177-1.354-.511-1.897C40.382 2.061 24.59.038 15.909.017zM91.803 59.927V3.762c0-1.005-.39-1.949-1.096-2.658A3.657 3.657 0 0088.1.017h-.009C79.41.037 63.618 2.06 55.401 15.38a3.606 3.606 0 00-.512 1.897v58.777C64.901 65.509 79.414 63.692 88.077 63.67a3.746 3.746 0 003.726-3.744z"/><path d="M100.279 12.97H97.58v46.957c0 5.258-4.257 9.546-9.49 9.56-7.347.017-19.462 1.463-28.042 9.636 14.839-3.657 30.482-1.28 39.398.765a3.696 3.696 0 003.155-.724A3.733 3.733 0 00104 76.24V16.714c0-2.064-1.67-3.744-3.721-3.744zM6.42 59.927V12.97h-2.7C1.67 12.97 0 14.65 0 16.714v59.524c0 1.145.51 2.211 1.399 2.925.89.715 2.04.98 3.155.724 8.915-2.045 24.559-4.422 39.398-.765-8.58-8.173-20.695-9.619-28.043-9.636-5.232-.013-9.49-4.3-9.49-9.56z"/></g></symbol><symbol id="estate" viewBox="0 0 86 80"><g fill-rule="nonzero"><path d="M84.454 36.106l-13.018-13V8.086a4.92 4.92 0 00-4.926-4.916c-2.717 0-4.92 2.2-4.92 4.916v5.185l-9.694-9.68c-4.792-4.784-13.124-4.776-17.905.008L1.44 36.106a4.915 4.915 0 000 6.954 4.927 4.927 0 006.965 0l32.547-32.507c1.06-1.053 2.929-1.053 3.984-.003l32.552 32.51a4.917 4.917 0 003.482 1.44c1.26 0 2.52-.48 3.483-1.44a4.913 4.913 0 000-6.954z"/><path d="M44.658 19.885a2.419 2.419 0 00-3.42 0L12.608 48.47a2.419 2.419 0 00-.709 1.71V71.03c0 4.892 3.972 8.859 8.87 8.859h14.176V57.964h16.003v21.924h14.175c4.899 0 8.87-3.967 8.87-8.86V50.18a2.41 2.41 0 00-.708-1.71L44.658 19.885z"/></g></symbol><symbol id="finance" viewBox="0 0 81 80"><g fill-rule="nonzero"><path d="M76.61 72.711H3.65A3.642 3.642 0 000 76.35a3.641 3.641 0 003.649 3.634h72.96a3.641 3.641 0 003.648-3.634 3.644 3.644 0 00-3.647-3.638zM8.209 63.26a3.642 3.642 0 00-3.65 3.635 3.643 3.643 0 003.65 3.638h63.84a3.643 3.643 0 003.649-3.638 3.642 3.642 0 00-3.649-3.635h-.91V30.545h.91c1.01 0 1.823-.814 1.823-1.816a1.82 1.82 0 00-1.823-1.817H8.209a1.819 1.819 0 00-1.823 1.817 1.82 1.82 0 001.823 1.816h.912v32.713h-.912v.002zM63.84 30.545v32.713H52.897V30.545H63.84zm-18.241 0v32.713H34.655V30.545H45.6zm-29.184 0H27.36v32.713H16.415V30.545zM3.649 23.644H76.644a3.64 3.64 0 003.65-3.635 3.638 3.638 0 00-2.466-3.44L41.628.339a3.668 3.668 0 00-2.992 0L2.153 16.694a3.63 3.63 0 00-2.071 4.079 3.644 3.644 0 003.567 2.871z"/></g></symbol><symbol id="forestry" viewBox="0 0 108 80"><path d="M108 65.08v-4.233L95.625 43.915h8.156v-4.232L93.15 24.868h6.412v-4.233L84.797.105 73.3 16.09l1.794 2.493v12.634l4.219 6.417v12.63h-1.997l6.215 8.504v14.777H57.164v-8.466h20.04v-4.232L64.827 43.915h8.156v-4.232l-10.63-14.815h6.412v-4.233L54 .105l-14.766 20.53v4.233h6.413L35.016 39.683v4.232h8.156L30.797 60.847v4.232h20.039v8.466H24.469V58.768l6.215-8.503h-1.997v-12.63l4.22-6.418V18.583L34.7 16.09 23.203.106 8.438 20.635v4.233h6.412L4.219 39.683v4.232h8.156L0 60.847v4.232h18.14v8.466H0v6.35h108v-6.35H89.86v-8.466z" fill-rule="nonzero"/></symbol><symbol id="health" viewBox="0 0 92 80"><g fill-rule="nonzero"><path d="M67.563 0C56.663 0 49.666 7.536 46 14.323 42.333 7.536 35.337 0 24.437 0 10.608 0 0 11.201 0 26.057c0 3.876.778 7.455 2.21 10.894H22.77l4.646-9.275c.916-1.824 3.906-1.824 4.822 0l8.37 16.71 2.98-5.948c.916-1.823 3.906-1.823 4.822 0l2.98 5.949 8.37-16.711c.916-1.824 3.906-1.824 4.822 0l4.646 9.275H89.79C91.222 33.51 92 29.933 92 26.057 92 11.201 81.392 0 67.562 0z"/><path d="M67.563 42.332a2.697 2.697 0 01-2.412-1.487l-2.98-5.949-8.37 16.711a2.697 2.697 0 01-4.821 0L46 45.658l-2.98 5.949c-.916 1.823-3.906 1.823-4.822 0l-8.37-16.711-2.98 5.949a2.697 2.697 0 01-2.41 1.487h-19.4c5.547 8.713 15.538 16.989 28.035 27.518 3.509 2.956 7.242 6.101 11.16 9.493A2.695 2.695 0 0046 80c.629 0 1.258-.218 1.766-.657 3.92-3.392 7.652-6.537 11.16-9.493 12.498-10.53 22.488-18.805 28.036-27.518h-19.4z"/></g></symbol><symbol id="industry" viewBox="0 0 68 78"><g fill-rule="nonzero"><path d="M11.604 33.36l9.435-3.367V8.382h-9.435zM37.466 33.36l9.443-3.367V8.382h-9.443zM.076 77.855h67.727V54.582H.076v23.273zm32.436-19.688h7.265V69.91h-7.265V58.167zm-12.84 0h7.268V69.91H19.67V58.167zm-13.317 0h7.261V69.91H6.355V58.167z"/><path d="M51.812 40.804l-1.854-9.506-23.544 9.506-2.819-9.506L.076 40.804v10.134H67.8V40.804zM7.338 6.833c1.184-.226 2.098-.898 2.822-1.633.752-.745 1.328-1.49 2.189-1.938.813-.462 1.85-.593 2.52-.458.64.112 1.051.392 1.526 1.13.447.706.77 1.604 1.167 2.546h.19c.339-1.01.353-2.087.011-3.175-.18-.541-.49-1.098-1.008-1.538a2.531 2.531 0 00-1.883-.592c-1.296.16-2.055.985-2.862 1.552-.795.582-1.62 1.215-2.455 1.593-.86.375-1.717.633-2.466.68-.76.018-1.35-.23-1.94-.684C3.929 3.4 2.953 1.71 1.927 0l-.191.036c-.13 2.051.36 4.24 2.117 5.902.893.807 2.311 1.175 3.485.895zM36.566 7c.893-.185 1.526-.71 2.027-1.287.486-.553.885-1.102 1.476-1.39.569-.308 1.328-.287 1.699-.152.335.124.493.17.853.633.324.432.605 1.029.99 1.672h.195c.349-.712.4-1.487.183-2.301a2.484 2.484 0 00-.745-1.179c-.389-.36-.99-.52-1.469-.454-.99.156-1.487.833-2.041 1.247-.55.436-1.141.826-1.757 1.055-.605.189-1.202.32-1.649.323-.464-.025-.756-.182-1.116-.44-.766-.527-1.519-1.622-2.412-2.76l-.19.04c-.27 1.477 0 3.07 1.3 4.342.676.615 1.778.887 2.656.651z"/></g></symbol><symbol id="it" viewBox="0 0 97 75"><g transform="translate(0 -2)" fill-rule="nonzero"><ellipse cx="48.683" cy="64.805" rx="11.321" ry="11.416"/><path d="M75.74 37.299c-.168-.174-.345-.33-.518-.49l-.509-.484c-.084-.09-.177-.156-.284-.24a36.712 36.712 0 00-51.016 1.21l-1.638 1.656-2.268 2.287c-2.763 2.786-2.749 7.327.018 10.117 2.772 2.8 7.276 2.805 10.034.02l3.91-3.944c8.886-8.956 23.338-8.956 32.219-.005l2.823 2.758c2.735 2.757 7.196 2.752 9.945-.024a7.09 7.09 0 002.067-5.016 7.01 7.01 0 00-2.048-5.003L75.74 37.3z"/><path d="M95.027 23.186l-2.352-2.372c-.009-.01-.014-.023-.032-.028l-1.858-1.882a6.708 6.708 0 00-1.054-.852C65.87-3.073 29.577-2.424 6.477 19.986c-.112.103-.238.174-.35.287L1.881 24.56c-2.52 2.536-2.506 6.664.028 9.219 2.529 2.55 6.622 2.57 9.142.023l4.246-4.277c.028-.038.052-.07.08-.094 18.68-18.198 48.314-18.311 67.144-.372l3.341 3.374c2.515 2.536 6.617 2.527 9.147-.024 2.524-2.555 2.534-6.687.018-9.223z"/></g></symbol><symbol id="jkh" viewBox="0 0 68 80"><g fill-rule="nonzero"><path d="M27.179 6.667h20.384V10h6.795V3.333C54.358 1.493 52.836 0 50.96 0H23.781c-1.876 0-3.397 1.492-3.397 3.333V10h6.795V6.667zM0 46.667h27.179v6.666H0zM45.864 20V10H28.877v10h-8.493c-9.381 0-16.987 7.462-16.987 16.667v6.666h20.384v-6.666h44.166V20H45.864zM15.925 57.58a3.445 3.445 0 00-4.674 0C9.41 59.294 3.397 65.254 3.397 70c0 5.523 4.563 10 10.192 10 5.63 0 10.192-4.477 10.192-10 0-4.746-6.012-10.706-7.856-12.42zM20.385 70c0 1.84-1.522 3.333-3.398 3.333-1.877 0-3.398-1.492-3.398-3.333 0-1.84 1.521-3.333 3.398-3.333 1.876 0 3.397 1.492 3.397 3.333z"/></g></symbol><symbol id="labor" viewBox="0 0 92 80"><g fill-rule="nonzero"><path d="M37.914 42.667h16.172V48H37.914z"/><path d="M74.638 48H59.477v2.667c0 1.473-1.206 2.666-2.696 2.666H35.22c-1.49 0-2.696-1.193-2.696-2.666V48H17.362c-3.485 0-6.567-2.198-7.67-5.469L0 13.761V72c0 4.411 3.627 8 8.086 8h75.828C88.373 80 92 76.411 92 72V13.764L82.308 42.53C81.205 45.802 78.123 48 74.638 48z"/><path d="M56.781 0H35.22c-4.459 0-8.086 3.589-8.086 8v2.667H4.637l10.166 30.177a2.692 2.692 0 002.559 1.823h15.161V40c0-1.474 1.206-2.667 2.696-2.667H56.78c1.49 0 2.696 1.193 2.696 2.667v2.667h15.161c1.161 0 2.19-.732 2.559-1.823l10.166-30.177H64.867V8c0-4.411-3.627-8-8.086-8zM32.523 10.667V8c0-1.472 1.208-2.667 2.696-2.667H56.78c1.488 0 2.696 1.195 2.696 2.667v2.667H32.523z"/></g></symbol><symbol id="legalstatistics" viewBox="0 0 94 80"><g fill-rule="nonzero"><path d="M56.944 73.1h-6.22V16.037H76.94L65.836 33.674a1.915 1.915 0 001.616 2.935c.635 0 1.256-.317 1.62-.893l9.631-15.297 9.632 15.297a1.912 1.912 0 103.236-2.042L80.466 16.037h.14a2.966 2.966 0 002.964-2.968 2.966 2.966 0 00-2.964-2.967H58.797a9.704 9.704 0 00-5.177-3.795A6.752 6.752 0 0046.898.153a6.752 6.752 0 00-6.722 6.154 9.703 9.703 0 00-5.177 3.795H13.19a2.966 2.966 0 00-2.965 2.967 2.966 2.966 0 002.965 2.968h.14L2.225 33.674a1.915 1.915 0 001.616 2.935c.635 0 1.257-.317 1.62-.893l9.632-15.297 9.63 15.297a1.912 1.912 0 002.639.598 1.915 1.915 0 00.598-2.64L16.855 16.037h26.218v57.062h-6.22a6.745 6.745 0 00-6.742 6.748h33.575a6.744 6.744 0 00-6.742-6.747z"/><path d="M29.165 38.645H1.02A1.02 1.02 0 000 39.665c0 8.33 6.77 15.106 15.093 15.106 8.322 0 15.092-6.777 15.092-15.106a1.02 1.02 0 00-1.02-1.02zM92.777 38.645H64.63a1.02 1.02 0 00-1.02 1.02c0 8.33 6.77 15.106 15.093 15.106 8.322 0 15.092-6.777 15.092-15.106a1.02 1.02 0 00-1.02-1.02z"/></g></symbol><symbol id="market" viewBox="0 0 80 80"><path d="M24 64c-4.4 0-8 3.6-8 8s3.6 8 8 8 8-3.6 8-8-3.6-8-8-8zM0 0v8h8l14.4 30.4-5.6 9.6c-.4 1.2-.8 2.8-.8 4 0 4.4 3.6 8 8 8h48v-8H25.6c-.4 0-.8-.4-.8-.8v-.4l3.6-6.8H58c3.2 0 5.6-1.6 6.8-4l14.4-26c.8-.8.8-1.2.8-2 0-2.4-1.6-4-4-4H16.8l-3.6-8H0zm64 64c-4.4 0-8 3.6-8 8s3.6 8 8 8 8-3.6 8-8-3.6-8-8-8z" fill-rule="nonzero"/></symbol><symbol id="safety" viewBox="0 0 68 80"><g fill-rule="nonzero"><path d="M34 24.867c-8.39 0-15.216 6.824-15.216 15.212 0 8.389 6.826 15.213 15.215 15.213 8.39 0 15.215-6.824 15.215-15.213 0-8.388-6.825-15.212-15.215-15.212zm9.032 12.347l-10.9 10.899a2.337 2.337 0 01-1.656.686c-.6 0-1.2-.228-1.657-.686l-4.165-4.165a2.342 2.342 0 113.313-3.313l2.509 2.509 9.243-9.242a2.342 2.342 0 113.313 3.312z"/><path d="M67.92 21.82l-.002-.063a83.215 83.215 0 01-.072-2.48c-.065-4.403-3.565-8.045-7.969-8.29-9.181-.513-16.283-3.506-22.352-9.42l-.052-.05a5.11 5.11 0 00-6.945 0l-.052.05c-6.068 5.914-13.17 8.907-22.352 9.42-4.403.245-7.903 3.887-7.969 8.29a82.28 82.28 0 01-.072 2.48l-.003.145c-.179 9.36-.4 21.011 3.497 31.585 2.144 5.816 5.39 10.87 9.648 15.025 4.85 4.732 11.2 8.49 18.878 11.166a5.839 5.839 0 001.898.322 5.735 5.735 0 001.9-.323c7.668-2.682 14.013-6.44 18.859-11.172 4.256-4.156 7.502-9.212 9.647-15.029 3.912-10.606 3.691-22.278 3.513-31.656zM34 59.977c-10.974 0-19.901-8.926-19.901-19.898s8.927-19.898 19.9-19.898c10.973 0 19.9 8.926 19.9 19.898S44.973 59.977 34 59.977z"/></g></symbol><symbol id="sport" viewBox="0 0 82 80"><g fill-rule="nonzero"><path d="M80.47 16.684l-.2-.202a4.813 4.813 0 00-6.844.005L66.059 24a1.011 1.011 0 01-1.414.033L54.316 14.41a5.372 5.372 0 00-3.675-1.45H35.276c-.363 0-.71.14-.973.39L21.281 25.827c-1.908 1.927-2.039 5.032-.29 6.923a4.792 4.792 0 003.551 1.567h.024a4.82 4.82 0 003.53-1.569l9.198-9.821h3.292L19.122 47.132H5.884c-3.138 0-5.719 2.368-5.876 5.39a5.674 5.674 0 005.636 6H25.4c.389 0 .762-.162 1.03-.451l10.12-10.902 8.512 8.981-2.57 16.57c-.647 2.745.658 5.542 3.104 6.645a5.684 5.684 0 002.35.513c.856 0 1.708-.198 2.492-.59 1.516-.757 2.605-2.143 3.002-3.865l4.39-23.76a1.433 1.433 0 00-.391-1.268L45.722 38.589l9.307-9.377 6.488 6.545c1.812 1.828 4.97 1.828 6.78 0L80.47 23.475a4.796 4.796 0 001.394-3.396 4.795 4.795 0 00-1.394-3.395z"/><path d="M64.907 17.232c4.67 0 8.466-3.832 8.466-8.543 0-4.712-3.797-8.543-8.466-8.543-4.669 0-8.466 3.831-8.466 8.543 0 4.711 3.797 8.543 8.466 8.543z"/></g></symbol><symbol id="tariffs" viewBox="0 0 94 80"><g fill-rule="nonzero"><path d="M6.37 62.915v15.21a1.7 1.7 0 001.698 1.696h11.774a1.7 1.7 0 001.699-1.696V51.368l-8.55 8.54a10.379 10.379 0 01-6.621 3.007zM27.409 51.175v26.95a1.7 1.7 0 001.698 1.696h11.774a1.7 1.7 0 001.699-1.696V62.259a10.27 10.27 0 01-7.084-3.007l-8.087-8.077zM48.448 60.582v17.543a1.7 1.7 0 001.698 1.696H61.92a1.7 1.7 0 001.699-1.696V45.758L50.127 59.233c-.521.52-1.081.964-1.68 1.35zM83.52 25.864L69.486 39.88v38.246a1.7 1.7 0 001.698 1.696H82.96a1.7 1.7 0 001.699-1.696v-51.2c-.386-.328-.676-.617-.888-.81l-.25-.25z"/><path d="M93.15 1.035C92.592.438 91.743.13 90.66.13h-.308C84.87.38 79.408.65 73.926.9c-.733.039-1.737.078-2.528.868-.251.25-.444.54-.599.887-.81 1.754.328 2.891.869 3.431l1.37 1.388c.946.964 1.911 1.928 2.876 2.872L42.792 43.445 27.91 28.582a4.734 4.734 0 00-3.358-1.388 4.689 4.689 0 00-3.34 1.388L1.39 48.361a4.72 4.72 0 000 6.689l.888.887a4.734 4.734 0 003.358 1.388 4.689 4.689 0 003.34-1.388L24.551 40.38l14.882 14.863a4.734 4.734 0 003.358 1.388c1.274 0 2.452-.502 3.359-1.388l37.368-37.32 4.227 4.202c.502.5 1.197 1.195 2.259 1.195.443 0 .887-.116 1.35-.367.31-.173.58-.366.811-.597.83-.83.985-1.89 1.023-2.718.155-3.547.328-7.094.502-10.66l.251-5.34c.058-1.118-.193-1.986-.791-2.603z"/></g></symbol><symbol id="tourism" viewBox="0 0 50 80"><path d="M48.109 25.902h-2.397v-5.15c0-2.905-2.305-5.342-5.201-5.342h-5.256V7.832c0-4.34-3.382-7.832-7.707-7.832h-8.823c-4.325 0-7.98 3.493-7.98 7.832v7.578H5.761c-2.895 0-5.473 2.437-5.473 5.342v48.544c0 2.906 2.578 5.13 5.473 5.13h.064c.49 3.279 3.17 5.495 6.403 5.495 3.234 0 5.914-2.216 6.403-5.495h9.01c.49 3.279 3.17 5.495 6.403 5.495 3.234 0 5.914-2.216 6.402-5.495h.064c2.896 0 5.202-2.224 5.202-5.13v-19.46h2.396c1.084 0 1.852-.88 1.852-1.967v-20c0-1.087-.768-1.967-1.851-1.967zM17.935 7.832c0-.35.441-.619.79-.619h8.823c.348 0 .517.27.517.619v7.578h-10.13V7.832zM32.64 26.885v12.46h-8.824v-12.46h8.824zM7.886 28.96c0-3.139 2.536-5.683 5.664-5.683 3.128 0 5.664 2.544 5.664 5.683 0 3.138-2.536 5.683-5.664 5.683-3.128 0-5.664-2.545-5.664-5.683zm7.57 19.594l-5.314-5.332 5.315-5.332 5.314 5.332-5.314 5.332zm12.8 6.089c-3.129 0-5.664-2.544-5.664-5.683s2.535-5.683 5.664-5.683c3.128 0 5.664 2.544 5.664 5.683s-2.536 5.683-5.664 5.683z" fill-rule="nonzero"/></symbol><symbol id="transport" viewBox="0 0 96 80"><path d="M95.923 44.388c0-1.894-.426-3.703-1.196-5.357-.079-.42-.17-.84-.283-1.267L86.112 17.04l-.057-.186C83.14 8.142 78.992.08 68.473.08H28.258C17.48.08 13.671 8.342 10.692 16.806L1.976 37.58C.716 39.606 0 41.923 0 44.388v6.448c0 .997.117 1.972.34 2.912A5.084 5.084 0 000 55.572v19.18c0 2.812 2.272 5.092 5.074 5.092h10.53c2.801 0 5.073-2.28 5.073-5.093V65.16h55.17v9.591c0 2.813 2.272 5.093 5.075 5.093h9.927c2.803 0 5.075-2.28 5.075-5.093V55.57c0-.642-.125-1.256-.34-1.822.222-.94.34-1.915.34-2.912v-6.447h-.001zM16.876 18.886c3.318-9.394 5.986-12.262 11.381-12.262h40.214c5.356 0 8.339 3.199 11.37 12.222l6.08 12.366a18.55 18.55 0 00-6.466-1.147H16.468c-2.067 0-4.042.333-5.864.937l6.272-12.116zm5.223 34.4H10.99c-2 0-3.623-1.63-3.623-3.638a3.63 3.63 0 013.623-3.636h11.11a3.63 3.63 0 013.624 3.636 3.632 3.632 0 01-3.624 3.637zm39.248-.73H35.504a2.298 2.298 0 01-2.294-2.301 2.298 2.298 0 012.294-2.304h25.843a2.298 2.298 0 012.295 2.304 2.298 2.298 0 01-2.295 2.302zm23.307.73h-11.11a3.63 3.63 0 01-3.624-3.638 3.63 3.63 0 013.624-3.636h11.11a3.63 3.63 0 013.625 3.636 3.632 3.632 0 01-3.625 3.637z" fill-rule="nonzero"/></symbol></svg>