<?xml version="1.0" encoding="UTF-8"?>
<svg width="465px" height="397px" viewBox="0 0 465 397" version="1.1" xmlns="http://www.w3.org/2000/svg" xmlns:xlink="http://www.w3.org/1999/xlink">
    <!-- Generator: Sketch 53.2 (72643) - https://sketchapp.com -->
    <title>agriculture</title>
    <desc>Created with Sketch.</desc>
    <g id="Page-1" stroke="none" stroke-width="1" fill="none" fill-rule="evenodd">
        <g id="agriculture" fill="#000000" fill-rule="nonzero">
            <path d="M277.888,90.306 L256.765,90.306 C254.02,90.306 251.795,88.081 251.795,85.336 C251.795,82.591 254.02,80.366 256.765,80.366 L277.888,80.366 C280.633,80.366 282.858,82.591 282.858,85.336 C282.858,88.081 280.633,90.306 277.888,90.306 Z" id="Path"></path>
            <path d="M341.387,162.858 C273.315,162.858 217.933,212.008 217.933,280.082 C217.933,312.707 230.88,342.52 254.388,364.027 C277.221,384.917 308.117,396.422 341.387,396.422 C374.658,396.422 405.556,384.917 428.388,364.027 C451.896,342.518 464.842,312.707 464.842,280.082 C464.842,212.009 409.46,162.858 341.387,162.858 Z M341.387,332.677 C312.387,332.677 288.792,309.083 288.792,280.082 C288.792,251.08 312.387,227.486 341.387,227.486 C370.388,227.486 393.982,251.08 393.982,280.082 C393.981,309.083 370.388,332.677 341.387,332.677 Z" id="Shape"></path>
            <path d="M87.4,226.648 C39.207,226.648 0,265.857 0,314.049 C0,337.15 9.167,358.258 25.812,373.487 C41.978,388.277 63.85,396.422 87.401,396.422 C110.953,396.422 132.826,388.277 148.991,373.487 C165.636,358.258 174.803,337.148 174.803,314.049 C174.802,265.857 135.594,226.648 87.4,226.648 Z M87.4,351.113 C66.965,351.113 50.34,334.486 50.34,314.05 C50.34,293.614 66.965,276.988 87.4,276.988 C107.835,276.988 124.461,293.614 124.461,314.05 C124.461,334.486 107.835,351.113 87.4,351.113 Z" id="Shape"></path>
            <path d="M245.277,186.425 C270.624,162.845 304.756,149.859 341.385,149.859 C366.064,149.859 389.606,155.76 410.093,166.818 C410.196,166.873 410.297,166.906 410.399,166.95 C412.281,168.303 414.63,169.018 417.116,168.797 C422.617,168.307 426.678,163.45 426.188,157.949 C426.095,156.902 416.837,53.015 415.084,32.637 C412.313,0.419 389.037,0.419 380.275,0.419 L245.281,0.419 C233.234,0.395 210.903,0.406 204.007,34.554 C200.126,53.77 191.594,94.212 185.007,125.095 C150.344,125.095 117.857,125.095 92.747,125.095 L92.747,74.513 C92.747,67.138 86.768,61.16 79.394,61.16 C72.02,61.16 66.041,67.139 66.041,74.513 L66.041,125.095 C53.229,125.095 45.11,125.095 43.521,125.095 C4.844,125.095 -7.106,208.169 14.194,245.416 C32.524,225.876 58.559,213.646 87.402,213.646 C137.902,213.646 179.807,251.125 186.778,299.729 L206.382,299.729 C205.425,293.309 204.934,286.749 204.934,280.082 C204.933,243.891 219.261,210.629 245.277,186.425 Z M395.159,34.352 C396.258,47.123 400.295,92.593 403.185,125.096 C387.366,125.096 356.888,125.096 320.081,125.096 L320.081,20.419 L380.277,20.419 C390.01,20.419 394.006,20.954 395.159,34.352 Z M223.611,38.513 C227.267,20.413 234.074,20.426 245.274,20.419 L304.081,20.419 L304.081,125.095 C273.09,125.095 238.758,125.095 205.452,125.095 C212.397,92.456 220.854,52.163 223.611,38.513 Z" id="Shape"></path>
        </g>
    </g>
</svg>