<?xml version="1.0" encoding="UTF-8"?>
<svg width="78px" height="80px" viewBox="0 0 78 80" version="1.1" xmlns="http://www.w3.org/2000/svg" xmlns:xlink="http://www.w3.org/1999/xlink">
    <!-- Generator: Sketch 53.2 (72643) - https://sketchapp.com -->
    <title>building</title>
    <desc>Created with Sketch.</desc>
    <g id="Page-1" stroke="none" stroke-width="1" fill="none" fill-rule="evenodd">
        <g id="building" fill="#000000" fill-rule="nonzero">
            <path d="M41.0625714,0 L41.0625714,1.38647788 L2.21414286,14.1207788 L0.0802857143,14.3630442 L0.0802857143,25.7257345 L5.54457143,25.7257345 L5.54457143,42.6964956 L3.69628571,44.6814867 L5.32328571,56.8672566 L6.91071429,56.8672566 L6.91071429,60.5067611 C6.91071429,60.5067611 4.90128571,60.6759646 4.90128571,65.3107257 C4.90128571,68.3760708 6.74,69.4091327 9.99814286,69.4091327 C13.6127143,69.4091327 14.2712857,67.4933805 14.2712857,64.6715752 C14.2712857,64.6715752 13.1442857,66.7906549 10.184,66.7906549 C8.083,66.7906549 7.76471429,65.6018407 7.76471429,64.6715752 C7.76471429,63.588531 7.93542857,62.3549735 11.0091429,62.3549735 L11.0091429,56.8672566 L12.6442857,56.8672566 L14.2712857,44.6814867 L12.3751429,42.7006018 L12.3751429,25.7257345 L21.9377143,25.7257345 L21.9377143,31.5369912 L26.066,37.911646 L34.2324286,37.911646 L34.2324286,64.9911504 L27.4021429,64.9911504 L27.4021429,79.8850265 L60.1878571,79.8850265 L60.1878571,64.9911504 L53.3571429,64.9911504 L53.3571429,25.7257345 L61.5535714,25.7257345 L61.5535714,37.9115044 L76.5804286,37.9115044 L76.5804286,25.7257345 L77.9464286,25.7257345 L77.9464286,14.4050973 L76.012,14.1166726 L47.8928571,1.71553982 L47.8928571,0 L41.0625714,0 Z M49.2588571,34.1934159 L49.2588571,40.619469 L42.8601429,40.619469 L49.2588571,34.1934159 Z M45.0527143,46.0353982 L38.3302857,52.3490265 L38.3302857,46.0353982 L45.0527143,46.0353982 Z M38.3302857,37.7179469 L38.3302857,31.1416637 L45.1497143,31.1416637 L38.3302857,37.7179469 Z M38.3302857,14.8938761 L45.617,14.8938761 L39.0134286,21.6637168 L38.3304286,21.6637168 L38.3304286,14.8938761 L38.3302857,14.8938761 Z M38.3302857,59.5752212 L43.7945714,59.5752212 L39.6962857,63.6372389 L38.3302857,63.6372389 L38.3302857,59.5752212 Z M49.2588571,54.159292 L44.5828571,54.159292 L49.2588571,49.2482832 L49.2588571,54.159292 Z M49.2588571,21.6637168 L43.2822857,21.6637168 L49.2588571,15.4868673 L49.2588571,21.6637168 Z M49.2588571,63.6372389 L44.7057143,63.6372389 L49.2588571,59.3492389 L49.2588571,63.6372389 Z M41.0625714,4.2380177 L41.0625714,9.69316814 L15.5511429,12.6002124 L41.0625714,4.2380177 Z M7.04871429,45.8661947 C7.04871429,44.8073628 7.91471429,43.9476106 8.98442857,43.9476106 C10.0541429,43.9476106 10.9201429,44.8059469 10.9201429,45.8661947 C10.9201429,46.9264425 10.0541429,47.7847788 8.98442857,47.7847788 C7.91471429,47.7846372 7.04871429,46.924885 7.04871429,45.8661947 Z M11.0088571,41.2734867 L10.3832857,40.619469 L7.48042857,40.619469 L6.91071429,41.2300177 L6.91071429,25.7255929 L11.009,25.7255929 L11.009,41.2734867 L11.0088571,41.2734867 Z M12.375,23.0176283 L11.009,23.0176283 L6.91071429,23.0176283 L5.54471429,23.0176283 L2.81257143,23.0176283 L2.81257143,16.7784779 L34.2322857,13.1241062 L34.2322857,15.2430442 L34.2322857,21.6637168 L34.2322857,23.0176283 L12.375,23.0176283 Z M53.3571429,23.0176283 L53.3571429,21.6637168 L53.3571429,13.964885 L53.7014286,13.611469 L75.2142857,16.7364248 L75.2142857,23.0174867 L53.3571429,23.0174867 L53.3571429,23.0176283 Z M65.8567143,12.6029027 L47.8928571,9.9260885 L47.8928571,4.68077876 L65.8567143,12.6029027 Z" id="Shape"></path>
        </g>
    </g>
</svg>