<?xml version="1.0" encoding="UTF-8"?>
<svg width="92px" height="80px" viewBox="0 0 92 80" version="1.1" xmlns="http://www.w3.org/2000/svg" xmlns:xlink="http://www.w3.org/1999/xlink">
    <!-- Generator: Sketch 53.2 (72643) - https://sketchapp.com -->
    <title>theater</title>
    <desc>Created with Sketch.</desc>
    <g id="Page-1" stroke="none" stroke-width="1" fill="none" fill-rule="evenodd">
        <g id="theater" fill="#000000" fill-rule="nonzero">
            <path d="M90.1858143,26.6193674 C90.0258819,25.9822871 89.6043122,25.4442822 89.0272743,25.1336253 C88.451789,24.8249148 87.7714937,24.7725547 87.1542785,24.9899757 C81.7429705,26.896545 73.3938734,28.1234063 64.0036624,28.1234063 C61.7207426,28.1234063 59.5205063,28.0360097 57.3872321,27.8983942 C56.2842025,32.8961557 54.5216456,37.4851582 52.2703629,41.5268127 C52.3798312,41.5223358 52.4844473,41.5044282 52.5948861,41.5044282 C55.5128776,41.5044282 57.8777046,41.2603406 57.8777046,43.2315328 C57.8777046,45.2027251 55.5126835,48.643309 52.5948861,48.643309 C50.8952152,48.643309 49.3987595,48.0916788 48.4331477,47.2492457 C45.516903,50.8801946 42.1099916,53.7432603 38.3579831,55.6365937 C42.5882363,69.9161071 52.4784304,79.933236 64.0036624,79.933236 C79.3795021,79.933236 91.8437553,62.1066667 91.8437553,40.116399 C91.8435612,35.3728467 91.2529367,30.833674 90.1858143,26.6193674 Z M75.0983966,68.3069586 C75.049097,68.5167883 74.8934346,68.6878832 74.6888608,68.7552311 C74.4838987,68.8239416 74.2583629,68.7807299 74.0937722,68.6411679 C71.9249789,66.8136253 68.2356624,65.5994161 64.0038565,65.5994161 C59.7716624,65.5994161 56.082346,66.8136253 53.9137468,68.6411679 C53.748962,68.7791727 53.5232321,68.8225791 53.3186582,68.7552311 C53.1138903,68.686326 52.9584219,68.5167883 52.9091224,68.3069586 C52.7295865,67.5408273 52.6191477,66.7509489 52.6191477,65.9293431 C52.6191477,59.623747 57.7166076,54.5121168 64.0040506,54.5121168 C70.2914937,54.5121168 75.3885654,59.6239416 75.3885654,65.9293431 C75.3881772,66.7509489 75.2777384,67.5410219 75.0983966,68.3069586 Z M75.4122447,48.6431144 C72.4942532,48.6431144 70.1294262,45.2025304 70.1294262,43.2313382 C70.1294262,41.260146 72.4944473,41.5042336 75.4122447,41.5042336 C78.3300422,41.5042336 80.6950633,43.1024818 80.6950633,45.073674 C80.6948692,47.0448662 78.3300422,48.6431144 75.4122447,48.6431144 Z" id="Shape"></path>
            <path d="M55.6801857,15.3625304 C55.6801857,10.619562 55.0895612,6.08019465 54.0224388,1.86608273 C53.8625063,1.22900243 53.4409367,0.690608273 52.8638987,0.380340633 C52.5230717,0.19756691 52.1447848,0.104720195 51.7635865,0.104720195 C51.503308,0.104720195 51.241865,0.147737226 50.990903,0.236690998 C45.5795949,2.14326034 37.230692,3.36973236 27.8402869,3.36973236 C18.4496878,3.36973236 10.1007848,2.14326034 4.68947679,0.236690998 C4.43987342,0.147737226 4.17978903,0.104720195 3.91970464,0.104720195 C3.53870042,0.104720195 3.15866667,0.198540146 2.81628692,0.38189781 C2.24080169,0.69216545 1.81787342,1.23036496 1.65774684,1.86608273 C0.590624473,6.08038929 0,10.619562 0,15.3625304 C0,37.3531873 12.4640591,55.1793674 27.8402869,55.1793674 C43.2161266,55.1793674 55.6801857,37.3531873 55.6801857,15.3625304 Z M11.1484979,20.3112409 C11.1484979,18.3396594 13.513519,16.7418005 16.4315105,16.7418005 C19.349308,16.7418005 21.7143291,20.1819951 21.7143291,22.1535766 C21.7143291,24.1247689 19.349308,23.8806813 16.4315105,23.8806813 C13.513519,23.8806813 11.1484979,22.2824331 11.1484979,20.3112409 Z M27.8402869,47.6519708 C21.5526498,47.6519708 16.4555781,42.540146 16.4555781,36.2351338 C16.4555781,35.413528 16.5660169,34.6232603 16.7453586,33.857129 C16.7946582,33.6476886 16.9503207,33.4781509 17.1548945,33.4088564 C17.3598565,33.3415085 17.5853924,33.3849148 17.7499831,33.5229197 C19.9187764,35.3504623 23.6080928,36.5646715 27.8400928,36.5646715 C32.0720928,36.5646715 35.7614093,35.3504623 37.9300084,33.5229197 C38.0947932,33.3833577 38.3203291,33.340146 38.525097,33.4088564 C38.729865,33.4765937 38.8853333,33.6476886 38.9346329,33.857129 C39.1139747,34.6232603 39.2246076,35.413528 39.2246076,36.2351338 C39.2248017,42.540146 34.1275359,47.6519708 27.8402869,47.6519708 Z M33.9658565,22.1535766 C33.9658565,20.1819951 36.3308776,16.7418005 39.2488692,16.7418005 C42.1666667,16.7418005 44.5316878,18.3396594 44.5316878,20.3112409 C44.5316878,22.2824331 42.1666667,23.8806813 39.2488692,23.8806813 C36.3308776,23.8806813 33.9658565,24.1247689 33.9658565,22.1535766 Z" id="Shape"></path>
        </g>
    </g>
</svg>