<?xml version="1.0" encoding="UTF-8"?>
<svg width="95px" height="80px" viewBox="0 0 95 80" version="1.1" xmlns="http://www.w3.org/2000/svg" xmlns:xlink="http://www.w3.org/1999/xlink">
    <!-- Generator: Sketch 53.2 (72643) - https://sketchapp.com -->
    <title>Shape</title>
    <desc>Created with Sketch.</desc>
    <g id="Page-1" stroke="none" stroke-width="1" fill-rule="evenodd">
        <path d="M57.3284039,13.7309626 C61.7209535,16.4868832 64.8010733,21.1504753 65.3618495,26.5638486 C67.153251,27.4014207 69.1414576,27.8830839 71.2494072,27.8830839 C78.9449645,27.8830839 85.1822663,21.6416294 85.1822663,13.9421351 C85.1822663,6.24145448 78.9449645,0 71.2494072,0 C63.6273555,0.00237272552 57.44459,6.1323091 57.3284039,13.7309626 Z M48.2006739,42.2772233 C55.8962311,42.2772233 62.133533,36.0345825 62.133533,28.3350882 C62.133533,20.6355938 55.8950456,14.3941393 48.2006739,14.3941393 C40.5063023,14.3941393 34.2654437,20.6367802 34.2654437,28.3362746 C34.2654437,36.0357689 40.5063023,42.2772233 48.2006739,42.2772233 Z M54.1107575,43.2274999 L42.2882192,43.2274999 C32.4515163,43.2274999 24.4488955,51.2366349 24.4488955,61.0798867 L24.4488955,75.5475806 L24.4856484,75.7741758 L25.48153,76.0861892 C34.8689005,79.0212508 43.0244602,80 49.737177,80 C62.8484338,80 70.4479596,76.2593982 70.9162611,76.0209393 L71.8469362,75.5499533 L71.9465244,75.5499533 L71.9465244,61.0798867 C71.9500811,51.2366349 63.9474604,43.2274999 54.1107575,43.2274999 Z M77.161862,28.8345469 L65.4306127,28.8345469 C65.3037564,33.531357 63.3001372,37.7607403 60.1310995,40.8025744 C68.8747036,43.4042679 75.2720579,51.5178029 75.2720579,61.1012412 L75.2720579,65.5595925 C86.8551104,65.1348746 93.529889,61.8498361 93.9697367,61.6291727 L94.9004118,61.1570003 L95,61.1570003 L95,46.684561 C95,36.8424955 86.9973793,28.8345469 77.161862,28.8345469 Z M23.7529639,27.8854567 C26.4785973,27.8854567 29.0145389,27.0894072 31.1627979,25.7333947 C31.8456882,21.2762297 34.2334332,17.3814008 37.644328,14.7286936 C37.6585549,14.4676939 37.6834519,14.2090668 37.6834519,13.9456943 C37.6834519,6.24501357 31.4449645,0.00355908828 23.7529639,0.00355908828 C16.0562211,0.00355908828 9.82010488,6.24501357 9.82010488,13.9456943 C9.82010488,21.6428158 16.0562211,27.8854567 23.7529639,27.8854567 Z M36.2655061,40.8025744 C33.1118807,37.776163 31.115375,33.5693207 30.9695495,28.9009832 C30.534444,28.8689514 30.1040809,28.8345469 29.6606764,28.8345469 L17.8393236,28.8345469 C8.00262074,28.8345469 0,36.8424955 0,46.684561 L0,61.1546275 L0.0367527767,61.3776637 L1.03263447,61.6920499 C8.56339698,64.0446072 15.2844128,65.1289428 21.1221765,65.4706152 L21.1221765,61.1012412 C21.1245476,51.5178029 27.5195307,43.4066407 36.2655061,40.8025744 Z" id="Shape" fill-rule="nonzero"></path>
    </g>
</svg>