<?xml version="1.0" encoding="UTF-8"?>
<svg width="80px" height="80px" viewBox="0 0 80 80" version="1.1" xmlns="http://www.w3.org/2000/svg" xmlns:xlink="http://www.w3.org/1999/xlink">
    <!-- Generator: Sketch 53.2 (72643) - https://sketchapp.com -->
    <title>ecology</title>
    <desc>Created with Sketch.</desc>
    <g id="Page-1" stroke="none" stroke-width="1" fill="none" fill-rule="evenodd">
        <g id="ecology" fill="#000000" fill-rule="nonzero">
            <path d="M39.4120267,29.3905357 C40.1633853,29.6858929 40.90049,28.9630357 40.6514031,28.1939286 C38.9420045,22.9144643 32.752784,20.945 26.9991982,25.6289286 C23.9727394,28.0930357 22.8354566,28.6166071 22.8067706,28.6298214 C24.8019599,30.6291071 27.0813363,37.3380357 32.0557684,38.08 C37.5355011,39.0757143 42.3853898,33.6725 38.417461,31.2 C35.8079287,29.5741071 32.7355011,28.6296429 29.4421381,28.6296429 C32.8947884,27.8496429 36.341559,28.1841071 39.4120267,29.3905357 Z" id="Path"></path>
            <path d="M64.2252116,25.6285714 C54.2934521,17.5432143 47.9595546,30.2939286 51.8966592,29.03 C54.6929176,28.1323214 57.7498441,27.9367857 60.8162138,28.6294643 C55.6208463,28.6294643 50.8317149,31.0157143 47.6386637,34.8998214 C47.9009354,28.7958929 48.2975501,24.9751786 48.7574165,22.1330357 C51.411314,22.0416071 54.9484187,19.89375 56.8908686,16.1353571 C60.2396437,10.1289286 58.6866815,3.97035714 58.1869042,0.0842857143 C55.570245,2.63803571 44.1398664,-0.354285714 39.6085523,7.42785714 C37.6069488,10.8655357 38.188686,15.04875 40.294343,18.11 C40.9608909,19.0791071 42.5546548,18.6141071 42.6000891,17.4380357 C42.7978619,12.3219643 45.338441,8.45660714 50.0746548,6.31571429 C47.9493987,9.07553571 46.5539421,12.1653571 45.8330512,15.3589286 C44.7125167,20.33375 43.5420935,23.5971429 43.1123385,39.4533929 C43.068686,41.0614286 44.3684633,42.3925 45.9734521,42.3723214 C47.1353229,42.3576786 48.1306013,41.61875 48.577461,40.54375 C49.2570156,38.90875 50.363118,37.2166071 52.163029,35.66625 C53.8734967,37.5610714 56.4762584,38.5692857 59.1693541,38.0798214 C64.1225835,37.3410714 66.4342094,30.6175 68.4181737,28.6292857 C68.3891314,28.6164286 67.2516704,28.0928571 64.2252116,25.6285714 Z" id="Path"></path>
            <path d="M78.8251225,45.3853571 C75.7202673,43.2741071 72.3410245,44.7785714 70.7891314,45.6766071 L51.3140312,59.9623214 L39.9109131,59.9648214 L37.0601336,57.1076786 L47.5324722,57.1076786 C50.682049,57.1076786 54.2093541,55.0516071 54.2093541,51.3921429 C54.2093541,47.5069643 50.682049,45.6766071 47.5324722,45.6766071 L43.6080178,45.6766071 C40.6927394,45.6766071 37.2858797,45.9371429 34.8837416,44.6483929 C32.6015145,43.4844643 29.9734521,42.8221429 27.1681069,42.8221429 C22.4573719,42.8221429 18.2412472,44.7042857 15.3521604,47.6725 L0,62.8194643 L17.1046771,79.9623214 L22.8062361,71.3908929 L49.7489532,71.3908929 C52.6223608,71.3908929 55.3959911,70.3344643 57.5440535,68.4219643 L79.0200445,49.3014286 C80.2139866,48.2385714 80.146637,46.2841071 78.8251225,45.3853571 Z" id="Path"></path>
        </g>
    </g>
</svg>