<?xml version="1.0" encoding="UTF-8"?>
<svg width="84px" height="80px" viewBox="0 0 84 80" version="1.1" xmlns="http://www.w3.org/2000/svg" xmlns:xlink="http://www.w3.org/1999/xlink">
    <!-- Generator: Sketch 53.2 (72643) - https://sketchapp.com -->
    <title>economy</title>
    <desc>Created with Sketch.</desc>
    <g id="Page-1" stroke="none" stroke-width="1" fill="none" fill-rule="evenodd">
        <g id="economy" fill="#000000" fill-rule="nonzero">
            <path d="M80.9117647,0.0682157676 L3.08823529,0.0682157676 C1.38517647,0.0682157676 0,1.46572614 0,3.18024896 L0,54.6225726 C0,56.3387552 1.38517647,57.7346058 3.08823529,57.7346058 L80.9117647,57.7346058 C82.6148235,57.7346058 84,56.3387552 84,54.6225726 L84,3.18024896 C84,1.46572614 82.6148235,0.0682157676 80.9117647,0.0682157676 Z M71.3176471,15.0375104 L71.0557647,26.4217427 C71.0244706,27.7760996 69.9242353,28.853278 68.5868235,28.853278 C68.5670588,28.853278 68.5472941,28.853278 68.5275294,28.8516183 C67.1637647,28.820083 66.0832941,27.679834 66.1162353,26.3055602 L66.2397647,20.9246473 L55.8929412,30.866556 C55.0545882,31.6715353 53.7748235,31.7810788 52.8129412,31.1321162 L42.2964706,24.0283817 L31.0503529,35.1785892 C30.3317412,35.8901245 29.2483059,36.1014108 28.3030588,35.673195 L17.6235294,30.8283817 L17.6235294,43.0092946 L68.8470588,43.0092946 C70.2108235,43.0092946 71.3176471,44.1246473 71.3176471,45.4989212 C71.3176471,46.8748548 70.2108235,47.9885477 68.8470588,47.9885477 L15.1529412,47.9885477 C13.7891765,47.9885477 12.6823529,46.8748548 12.6823529,45.4989212 L12.6823529,12.3039004 C12.6823529,10.9296266 13.7891765,9.81427386 15.1529412,9.81427386 C16.5167059,9.81427386 17.6235294,10.9296266 17.6235294,12.3039004 L17.6235294,25.3678008 L28.7905882,30.4350207 L40.2672941,19.0557676 C41.104,18.2275519 42.4018824,18.1047303 43.3752941,18.7636515 L53.9181176,25.8839834 L62.8204706,17.3296266 L57.4938824,17.2051452 C56.1301176,17.17361 55.0496471,16.033361 55.0809412,14.6590871 C55.1138824,13.2848133 56.2421176,12.1993361 57.6091765,12.2275519 L68.9047059,12.4914523 C70.1111765,12.4914523 71.3176471,13.5022407 71.3176471,15.0375104 Z" id="Shape"></path>
            <path d="M59.9735294,74.9525311 L51.0308235,74.9525311 L50.0145882,62.7141909 L33.9854118,62.7141909 L32.9691765,74.9525311 L24.0264706,74.9525311 C22.6620471,74.9525311 21.5558824,76.0672199 21.5558824,77.4421577 C21.5558824,78.8170954 22.6620471,79.9317842 24.0264706,79.9317842 L59.9735294,79.9317842 C61.3379529,79.9317842 62.4441176,78.8170954 62.4441176,77.4421577 C62.4441176,76.0672199 61.3379529,74.9525311 59.9735294,74.9525311 Z" id="Path"></path>
        </g>
    </g>
</svg>