<?xml version="1.0" encoding="UTF-8"?>
<svg width="104px" height="80px" viewBox="0 0 104 80" version="1.1" xmlns="http://www.w3.org/2000/svg" xmlns:xlink="http://www.w3.org/1999/xlink">
    <!-- Generator: Sketch 53.2 (72643) - https://sketchapp.com -->
    <title>education</title>
    <desc>Created with Sketch.</desc>
    <g id="Page-1" stroke="none" stroke-width="1" fill="none" fill-rule="evenodd">
        <g id="education" fill="#000000" fill-rule="nonzero">
            <path d="M15.9088485,0.0172687225 C15.9060471,0.0172687225 15.9028956,0.0172687225 15.9000943,0.0172687225 C14.9164714,0.0172687225 13.9913266,0.403171806 13.2927407,1.10449339 C12.5864512,1.81356828 12.1974141,2.75770925 12.1974141,3.76281938 L12.1974141,59.926696 C12.1974141,61.9862555 13.8687677,63.6659031 15.9235556,63.6711894 C24.5860202,63.6919824 39.0990976,65.5090749 49.1111111,76.0539207 L49.1111111,17.2768282 C49.1111111,16.5786784 48.9339259,15.9228194 48.5995152,15.3800881 C40.3821145,2.06132159 24.5909226,0.0377092511 15.9088485,0.0172687225 Z" id="Path"></path>
            <path d="M91.8025859,59.926696 L91.8025859,3.76246696 C91.8025859,2.75735683 91.4135488,1.81321586 90.7072593,1.10414097 C90.0086734,0.402819383 89.0828283,0.0169162996 88.1002559,0.0169162996 C88.0971044,0.0169162996 88.0939529,0.0169162996 88.0911515,0.0169162996 C79.4094276,0.0377092511 63.6182357,2.06132159 55.4004848,15.3800881 C55.0660741,15.9228194 54.8892391,16.5786784 54.8892391,17.2768282 L54.8892391,76.0535683 C64.9012525,65.5087225 79.41433,63.69163 88.0767946,63.670837 C90.1312323,63.6655507 91.8025859,61.9859031 91.8025859,59.926696 Z" id="Path"></path>
            <path d="M100.278761,12.9695154 L97.5803636,12.9695154 L97.5803636,59.926696 C97.5803636,65.1851982 93.323367,69.4731278 88.0904512,69.4861674 C80.7428687,69.5037885 68.6277441,70.9497797 60.047569,79.1228194 C74.8870034,75.4660793 90.5304242,77.8431718 99.4457104,79.8879295 C100.558896,80.1430837 101.709199,79.8794714 102.601077,79.1640529 C103.489805,78.4503965 103.99965,77.3836123 103.99965,76.2385903 L103.99965,16.7143612 C104,14.6495154 102.330397,12.9695154 100.278761,12.9695154 Z" id="Path"></path>
            <path d="M6.4192862,59.926696 L6.4192862,12.9695154 L3.72088889,12.9695154 C1.66960269,12.9695154 0,14.6495154 0,16.7143612 L0,76.237533 C0,77.3829075 0.509845118,78.4493392 1.39857239,79.1629956 C2.28975084,79.8780617 3.43900337,80.1427313 4.55393939,79.8868722 C13.4692256,77.8417621 29.1129966,75.465022 43.9517306,79.1217621 C35.3719057,70.9490749 23.2567811,69.5034361 15.9091987,69.485815 C10.676633,69.4731278 6.4192862,65.1851982 6.4192862,59.926696 Z" id="Path"></path>
        </g>
    </g>
</svg>