<?xml version="1.0" encoding="UTF-8"?>
<svg width="86px" height="80px" viewBox="0 0 86 80" version="1.1" xmlns="http://www.w3.org/2000/svg" xmlns:xlink="http://www.w3.org/1999/xlink">
    <!-- Generator: Sketch 53.2 (72643) - https://sketchapp.com -->
    <title>estate</title>
    <desc>Created with Sketch.</desc>
    <g id="Page-1" stroke="none" stroke-width="1" fill="none" fill-rule="evenodd">
        <g id="estate" fill="#000000" fill-rule="nonzero">
            <path d="M84.4539073,36.1063203 L71.436004,23.1054545 L71.436004,8.08727273 C71.436004,5.37177489 69.2326008,3.17108225 66.5095565,3.17108225 C63.792754,3.17108225 61.5893508,5.37177489 61.5893508,8.08727273 L61.5893508,13.2718615 L51.8964919,3.59134199 C47.104246,-1.19203463 38.772129,-1.18354978 33.9908065,3.6 L1.44119355,36.1063203 C-0.480282258,38.0290909 -0.480282258,41.1402597 1.44119355,43.0600866 C3.36353629,44.9823377 6.48485081,44.9823377 8.4065,43.0600866 L40.9529919,10.5529004 C42.013254,9.4995671 43.8820202,9.4995671 44.9367339,10.5497835 L77.4887742,43.0600866 C78.4540202,44.0212987 79.7124637,44.4993939 80.9705605,44.4993939 C82.2312581,44.4993939 83.4917823,44.0207792 84.4540806,43.0600866 C86.37625,41.1404329 86.37625,38.0292641 84.4539073,36.1063203 Z" id="Path"></path>
            <path d="M44.657754,19.8850216 C43.7121008,18.9411255 42.1809194,18.9411255 41.2380403,19.8850216 L12.6073226,48.4697835 C12.1553024,48.921039 11.8990363,49.5371429 11.8990363,50.1800866 L11.8990363,71.0287446 C11.8990363,75.921039 15.8709879,79.887619 20.7695202,79.887619 L34.9446089,79.887619 L34.9446089,57.9638095 L50.9480645,57.9638095 L50.9480645,79.887619 L65.1233266,79.887619 C70.0216855,79.887619 73.9936371,75.921039 73.9936371,71.0289177 L73.9936371,50.1800866 C73.9936371,49.5371429 73.739625,48.921039 73.2853508,48.4697835 L44.657754,19.8850216 Z" id="Path"></path>
        </g>
    </g>
</svg>