<?xml version="1.0" encoding="UTF-8"?>
<svg width="81px" height="80px" viewBox="0 0 81 80" version="1.1" xmlns="http://www.w3.org/2000/svg" xmlns:xlink="http://www.w3.org/1999/xlink">
    <!-- Generator: Sketch 53.2 (72643) - https://sketchapp.com -->
    <title>finance</title>
    <desc>Created with Sketch.</desc>
    <g id="Page-1" stroke="none" stroke-width="1" fill="none" fill-rule="evenodd">
        <g id="finance" fill="#000000" fill-rule="nonzero">
            <path d="M76.6102083,72.7114894 L3.649,72.7114894 C1.63316667,72.7114894 0,74.3387234 0,76.3489362 C0,78.3557447 1.63316667,79.9829787 3.649,79.9829787 L76.6085,79.9829787 C78.6243333,79.9829787 80.2575,78.3557447 80.2575,76.3489362 C80.2557917,74.3387234 78.622625,72.7114894 76.6102083,72.7114894 Z" id="Path"></path>
            <path d="M8.20854167,63.2595745 C6.19270833,63.2595745 4.55954167,64.8868085 4.55954167,66.8953191 C4.55954167,68.9038298 6.19270833,70.532766 8.20854167,70.532766 L72.0489583,70.532766 C74.0647917,70.532766 75.6979583,68.9038298 75.6979583,66.8953191 C75.6979583,64.8868085 74.0647917,63.2595745 72.0489583,63.2595745 L71.1384167,63.2595745 L71.1384167,30.5446809 L72.0489583,30.5446809 C73.0585833,30.5446809 73.87175,29.7310638 73.87175,28.7285106 C73.87175,27.7259574 73.0551667,26.9123404 72.0489583,26.9123404 L8.20854167,26.9123404 C7.200625,26.9123404 6.38575,27.7259574 6.38575,28.7285106 C6.38575,29.7310638 7.20233333,30.5446809 8.20854167,30.5446809 L9.12079167,30.5446809 L9.12079167,63.2578723 L8.20854167,63.2578723 L8.20854167,63.2595745 Z M63.8404167,30.5446809 L63.8404167,63.2578723 L52.8968333,63.2578723 L52.8968333,30.5446809 L63.8404167,30.5446809 Z M45.5988333,30.5446809 L45.5988333,63.2578723 L34.65525,63.2578723 L34.65525,30.5446809 L45.5988333,30.5446809 Z M16.415375,30.5446809 L27.3589583,30.5446809 L27.3589583,63.2578723 L16.415375,63.2578723 L16.415375,30.5446809 Z" id="Shape"></path>
            <path d="M3.649,23.6442553 L76.6085,23.6442553 C76.6204583,23.6442553 76.634125,23.6442553 76.644375,23.6442553 C78.6619167,23.6442553 80.293375,22.0170213 80.293375,20.0085106 C80.293375,18.4119149 79.2615417,17.0587234 77.82825,16.5685106 L41.6286667,0.338723404 C40.677125,-0.0868085106 39.5889167,-0.0868085106 38.6356667,0.338723404 L2.1525,16.6944681 C0.582541667,17.3991489 -0.280166667,19.0978723 0.082,20.772766 C0.442458333,22.4476596 1.92870833,23.6442553 3.649,23.6442553 Z" id="Path"></path>
        </g>
    </g>
</svg>