<?xml version="1.0" encoding="UTF-8"?>
<svg width="108px" height="80px" viewBox="0 0 108 80" version="1.1" xmlns="http://www.w3.org/2000/svg" xmlns:xlink="http://www.w3.org/1999/xlink">
    <!-- Generator: Sketch 53.2 (72643) - https://sketchapp.com -->
    <title>forestry</title>
    <desc>Created with Sketch.</desc>
    <g id="Page-1" stroke="none" stroke-width="1" fill="none" fill-rule="evenodd">
        <g id="forestry" fill="#000000" fill-rule="nonzero">
            <polygon id="Path" points="108 65.0793651 108 60.8465608 95.6249297 43.9153439 103.78125 43.9153439 103.78125 39.6825397 93.15 24.8677249 99.5625 24.8677249 99.5625 20.6349206 84.796875 0.105820106 73.3003594 16.0897354 75.09375 18.5832804 75.09375 31.2169312 79.3125 37.6344974 79.3125 50.2645503 77.3161875 50.2645503 83.53125 58.7680423 83.53125 65.0793651 83.53125 71.4285714 83.53125 73.5449735 57.1640625 73.5449735 57.1640625 65.0793651 77.203125 65.0793651 77.203125 60.8465608 64.8280547 43.9153439 72.984375 43.9153439 72.984375 39.6825397 62.353125 24.8677249 68.765625 24.8677249 68.765625 20.6349206 54 0.105820106 39.234375 20.6349206 39.234375 24.8677249 45.646875 24.8677249 35.015625 39.6825397 35.015625 43.9153439 43.1719453 43.9153439 30.796875 60.8465608 30.796875 65.0793651 50.8359375 65.0793651 50.8359375 73.5449735 24.46875 73.5449735 24.46875 71.4285714 24.46875 65.0793651 24.46875 58.7680423 30.6838125 50.2645503 28.6875 50.2645503 28.6875 37.6344974 32.90625 31.2169312 32.90625 18.5832804 34.6996406 16.0897354 23.203125 0.105820106 8.4375 20.6349206 8.4375 24.8677249 14.85 24.8677249 4.21875 39.6825397 4.21875 43.9153439 12.3750703 43.9153439 0 60.8465608 0 65.0793651 18.140625 65.0793651 18.140625 73.5449735 0 73.5449735 0 79.8941799 108 79.8941799 108 73.5449735 89.859375 73.5449735 89.859375 65.0793651"></polygon>
        </g>
    </g>
</svg>