<?xml version="1.0" encoding="UTF-8"?>
<svg width="92px" height="80px" viewBox="0 0 92 80" version="1.1" xmlns="http://www.w3.org/2000/svg" xmlns:xlink="http://www.w3.org/1999/xlink">
    <!-- Generator: Sketch 53.2 (72643) - https://sketchapp.com -->
    <title>health</title>
    <desc>Created with Sketch.</desc>
    <g id="Page-1" stroke="none" stroke-width="1" fill-rule="evenodd">
        <g id="health" fill-rule="nonzero">
            <path d="M67.5625,0 C56.6628359,0 49.6665234,7.53578475 46,14.3226906 C42.3334766,7.53560538 35.3371641,0 24.4375,0 C10.6082109,0 0,11.2010762 0,26.0570404 C0,29.9332735 0.777507812,33.5119283 2.20907812,36.9506726 L22.7714375,36.9506726 L27.4170781,27.6755157 C28.333125,25.8520179 31.323125,25.8520179 32.2391719,27.6755157 L40.609375,44.3867265 L43.5889531,38.4380269 C44.505,36.6145291 47.495,36.6145291 48.4110469,38.4380269 L51.390625,44.3867265 L59.7608281,27.6756951 C60.676875,25.8521973 63.666875,25.8521973 64.5829219,27.6756951 L69.2285625,36.9506726 L89.7909219,36.9506726 C91.2224922,33.5119283 92,29.9332735 92,26.0570404 C92,11.2010762 81.3917891,0 67.5625,0 Z" id="Path"></path>
            <path d="M67.5625,42.3318386 C66.5411562,42.3318386 65.6094766,41.7564126 65.1514531,40.8446637 L62.171875,34.8959641 L53.8016719,51.6069955 C53.3436484,52.5187444 52.4119687,53.0941704 51.390625,53.0941704 C50.3692812,53.0941704 49.4376016,52.5187444 48.9795781,51.6069955 L46,45.658296 L43.0204219,51.6069955 C42.104375,53.4304933 39.114375,53.4304933 38.1983281,51.6069955 L29.828125,34.8959641 L26.8485469,40.8446637 C26.3905234,41.7564126 25.4588437,42.3318386 24.4375,42.3318386 L5.03789844,42.3318386 C10.5853906,51.0446637 20.5761953,59.3207175 33.0734609,69.8498655 C36.5820391,72.8057399 40.3145078,75.9510314 44.2336719,79.343139 C44.7416484,79.7818834 45.3707344,80 45.9998203,80 C46.6289062,80 47.2579922,79.7818834 47.7659687,79.343139 C51.6853125,75.9510314 55.4176016,72.8059193 58.9261797,69.8498655 C71.423625,59.3207175 81.41425,51.0446637 86.9617422,42.3318386 L67.5625,42.3318386 Z" id="Path"></path>
        </g>
    </g>
</svg>