<?xml version="1.0" encoding="UTF-8"?>
<svg width="68px" height="78px" viewBox="0 0 68 78" version="1.1" xmlns="http://www.w3.org/2000/svg" xmlns:xlink="http://www.w3.org/1999/xlink">
    <!-- Generator: Sketch 53.2 (72643) - https://sketchapp.com -->
    <title>industry</title>
    <desc>Created with Sketch.</desc>
    <g id="Page-1" stroke="none" stroke-width="1" fill="none" fill-rule="evenodd">
        <g id="industry" transform="translate(-1.000000, 0.000000)" fill="#030104" fill-rule="nonzero">
            <polygon id="Path" points="12.6036 33.36 22.0392 29.9927273 22.0392 8.38181818 12.6036 8.38181818"></polygon>
            <polygon id="Path" points="38.466 33.36 47.9088 29.9927273 47.9088 8.38181818 38.466 8.38181818"></polygon>
            <path d="M1.0764,77.8545455 L68.8032,77.8545455 L68.8032,54.5818182 L1.0764,54.5818182 L1.0764,77.8545455 Z M33.5124,58.1672727 L40.7772,58.1672727 L40.7772,69.9090909 L33.5124,69.9090909 L33.5124,58.1672727 L33.5124,58.1672727 Z M20.6712,58.1672727 L27.9396,58.1672727 L27.9396,69.9090909 L20.6712,69.9090909 L20.6712,58.1672727 Z M7.3548,58.1672727 L14.616,58.1672727 L14.616,69.9090909 L7.3548,69.9090909 L7.3548,58.1672727 Z" id="Shape"></path>
            <polygon id="Path" points="52.812 40.8036364 50.958 31.2981818 27.414 40.8036364 24.5952 31.2981818 1.0764 40.8036364 1.0764 50.9381818 68.7996 50.9381818 68.7996 40.8036364"></polygon>
            <path d="M8.3376,6.83272727 C9.522,6.60727273 10.4364,5.93454545 11.16,5.2 C11.9124,4.45454545 12.4884,3.70909091 13.3488,3.26181818 C14.1624,2.8 15.1992,2.66909091 15.8688,2.80363636 C16.5096,2.91636364 16.92,3.19636364 17.3952,3.93454545 C17.8416,4.64 18.1656,5.53818182 18.5616,6.48 L18.7524,6.48 C19.0908,5.46909091 19.1052,4.39272727 18.7632,3.30545455 C18.5832,2.76363636 18.2736,2.20727273 17.7552,1.76727273 C17.2476,1.31636364 16.4952,1.10181818 15.8724,1.17454545 C14.5764,1.33454545 13.8168,2.16 13.0104,2.72727273 C12.2148,3.30909091 11.3904,3.94181818 10.5552,4.32 C9.6948,4.69454545 8.838,4.95272727 8.0892,5 C7.3296,5.01818182 6.7392,4.77090909 6.1488,4.31636364 C4.9284,3.4 3.9528,1.70909091 2.9268,0 L2.736,0.0363636364 C2.6064,2.08727273 3.096,4.27636364 4.8528,5.93818182 C5.7456,6.74545455 7.164,7.11272727 8.3376,6.83272727 Z" id="Path"></path>
            <path d="M37.566,7 C38.4588,6.81454545 39.0924,6.29090909 39.5928,5.71272727 C40.0788,5.16 40.4784,4.61090909 41.0688,4.32363636 C41.6376,4.01454545 42.3972,4.03636364 42.768,4.17090909 C43.1028,4.29454545 43.2612,4.34181818 43.6212,4.80363636 C43.9452,5.23636364 44.226,5.83272727 44.6112,6.47636364 L44.8056,6.47636364 C45.1548,5.76363636 45.2052,4.98909091 44.9892,4.17454545 C44.8704,3.77090909 44.64,3.34181818 44.244,2.99636364 C43.8552,2.63636364 43.254,2.47636364 42.7752,2.54181818 C41.7852,2.69818182 41.2884,3.37454545 40.734,3.78909091 C40.1832,4.22545455 39.5928,4.61454545 38.9772,4.84363636 C38.3724,5.03272727 37.7748,5.16363636 37.3284,5.16727273 C36.864,5.14181818 36.5724,4.98545455 36.2124,4.72727273 C35.4456,4.2 34.6932,3.10545455 33.8004,1.96727273 L33.6096,2.00727273 C33.3396,3.48363636 33.6096,5.07636364 34.9092,6.34909091 C35.586,6.96363636 36.6876,7.23636364 37.566,7 Z" id="Path"></path>
        </g>
    </g>
</svg>