<?xml version="1.0" encoding="UTF-8"?>
<svg width="97px" height="75px" viewBox="0 0 97 75" version="1.1" xmlns="http://www.w3.org/2000/svg" xmlns:xlink="http://www.w3.org/1999/xlink">
    <!-- Generator: Sketch 53.2 (72643) - https://sketchapp.com -->
    <title>it</title>
    <desc>Created with Sketch.</desc>
    <g id="Page-1" stroke="none" stroke-width="1" fill="none" fill-rule="evenodd">
        <g id="it" transform="translate(0.000000, -2.000000)" fill="#030104" fill-rule="nonzero">
            <ellipse id="Oval" cx="48.6826667" cy="64.8047059" rx="11.3213333" ry="11.4164706"></ellipse>
            <path d="M75.74,37.2988235 C75.572,37.1247059 75.3946667,36.9694118 75.222,36.8094118 L74.7133333,36.3247059 C74.6293333,36.2352941 74.536,36.1694118 74.4286667,36.0847059 C59.7893333,22.6729412 37.3846667,23.2047059 23.4126667,37.2941176 L21.7746667,38.9505882 L19.5066667,41.2376471 C16.744,44.0235294 16.758,48.5647059 19.5253333,51.3552941 C22.2973333,54.1552941 26.8006667,54.16 29.5586667,51.3741176 L33.4693333,47.4305882 C42.3546667,38.4752941 56.8073333,38.4752941 65.688,47.4258824 L68.5113333,50.1835294 C71.246,52.9411765 75.7073333,52.9364706 78.456,50.16 C79.786,48.8235294 80.5186667,47.04 80.5233333,45.1435294 C80.528,43.2564706 79.8046667,41.4729412 78.4746667,40.1411765 L75.74,37.2988235 Z" id="Path"></path>
            <path d="M95.0273333,23.1858824 L92.6753333,20.8141176 C92.666,20.8047059 92.6613333,20.7905882 92.6426667,20.7858824 L90.7853333,18.9035294 C90.4586667,18.5788235 90.104,18.2964706 89.7306667,18.0517647 C65.87,-3.07294118 29.5773333,-2.42352941 6.47733333,19.9858824 C6.36533333,20.0894118 6.23933333,20.16 6.12733333,20.2729412 L1.88066667,24.56 C-0.639333333,27.0964706 -0.625333333,31.2235294 1.90866667,33.7788235 C4.438,36.3294118 8.53066667,36.3482353 11.0506667,33.8023529 L15.2973333,29.5247059 C15.3253333,29.4870588 15.3486667,29.4541176 15.3766667,29.4305882 C34.0573333,11.2329412 63.6906667,11.12 82.5206667,29.0588235 L85.862,32.4329412 C88.3773333,34.9694118 92.4793333,34.96 95.0086667,32.4094118 C97.5333333,29.8541176 97.5426667,25.7223529 95.0273333,23.1858824 Z" id="Path"></path>
        </g>
    </g>
</svg>