<?xml version="1.0" encoding="UTF-8"?>
<svg width="68px" height="80px" viewBox="0 0 68 80" version="1.1" xmlns="http://www.w3.org/2000/svg" xmlns:xlink="http://www.w3.org/1999/xlink">
    <!-- Generator: Sketch 53.2 (72643) - https://sketchapp.com -->
    <title>jkh</title>
    <desc>Created with Sketch.</desc>
    <g id="Page-1" stroke="none" stroke-width="1" fill-rule="evenodd">
        <g id="jkh" fill-rule="nonzero">
            <path d="M27.1787666,6.66666667 L47.5628415,6.66666667 L47.5628415,10 L54.3575332,10 L54.3575332,3.33333333 C54.3575332,1.49238417 52.8364896,1.12725625e-16 50.9601874,0 L23.7814208,0 C21.9051185,-1.12725625e-16 20.3840749,1.49238417 20.3840749,3.33333333 L20.3840749,10 L27.1787666,10 L27.1787666,6.66666667 Z" id="Path"></path>
            <polygon id="Path" points="0 46.6666667 27.1787666 46.6666667 27.1787666 53.3333333 0 53.3333333"></polygon>
            <path d="M45.8641686,20 L45.8641686,10 L28.8774395,10 L28.8774395,20 L20.3840749,20 C11.0025635,20 3.39734582,27.4619208 3.39734582,36.6666667 L3.39734582,43.3333333 L23.7814208,43.3333333 L23.7814208,36.6666667 L67.9469165,36.6666667 L67.9469165,20 L45.8641686,20 Z" id="Path"></path>
            <path d="M15.9250585,57.5804167 C14.6145959,56.3618796 12.5616226,56.3618796 11.25116,57.5804167 C9.40979859,59.2941667 3.39734582,65.25375 3.39734582,70 C3.39734594,75.5228474 7.96047651,79.9999998 13.5893833,79.9999998 C19.2182901,79.9999998 23.7814206,75.5228474 23.7814208,70 C23.7814208,65.25375 17.768968,59.2941667 15.9250585,57.5804167 Z M20.3840749,70 C20.3840749,71.8409492 18.8630314,73.3333333 16.9867291,73.3333333 C15.1104268,73.3333333 13.5893833,71.8409492 13.5893833,70 C13.5893833,68.1590508 15.1104268,66.6666667 16.9867291,66.6666667 C18.8630314,66.6666667 20.3840749,68.1590508 20.3840749,70 Z" id="Shape"></path>
        </g>
    </g>
</svg>