<?xml version="1.0" encoding="UTF-8"?>
<svg width="92px" height="80px" viewBox="0 0 92 80" version="1.1" xmlns="http://www.w3.org/2000/svg" xmlns:xlink="http://www.w3.org/1999/xlink">
    <!-- Generator: Sketch 53.2 (72643) - https://sketchapp.com -->
    <title>labor</title>
    <desc>Created with Sketch.</desc>
    <g id="Page-1" stroke="none" stroke-width="1" fill="none" fill-rule="evenodd">
        <g id="labor" fill="#000000" fill-rule="nonzero">
            <polygon id="Path" points="37.9140625 42.6666667 54.0859375 42.6666667 54.0859375 48 37.9140625 48"></polygon>
            <path d="M74.6383972,48 L59.4765625,48 L59.4765625,50.6666667 C59.4765625,52.1402777 58.2706908,53.3333333 56.78125,53.3333333 L35.21875,53.3333333 C33.7293092,53.3333333 32.5234375,52.1402777 32.5234375,50.6666667 L32.5234375,48 L17.3616028,48 C13.8766479,48 10.7945862,45.8020834 9.69119267,42.53125 L0,13.7618055 L0,72 C0,76.4111111 3.62744141,80 8.0859375,80 L83.9140625,80 C88.3725586,80 92,76.4111111 92,72 L92,13.7638889 L82.3081055,42.53125 C81.2054138,45.8020834 78.1233521,48 74.6383972,48 Z" id="Path"></path>
            <path d="M56.78125,0 L35.21875,0 C30.7602539,0 27.1328125,3.58888889 27.1328125,8 L27.1328125,10.6666667 L4.63748173,10.6666667 L14.8031615,40.84375 C15.1716614,41.9347221 16.200653,42.6666667 17.3616028,42.6666667 L32.5234375,42.6666667 L32.5234375,40 C32.5234375,38.526389 33.7293092,37.3333333 35.21875,37.3333333 L56.78125,37.3333333 C58.2706908,37.3333333 59.4765625,38.526389 59.4765625,40 L59.4765625,42.6666667 L74.6383972,42.6666667 C75.799347,42.6666667 76.8283386,41.9347221 77.1968385,40.84375 L87.3632201,10.6666667 L64.8671875,10.6666667 L64.8671875,8 C64.8671875,3.58888889 61.2397461,0 56.78125,0 Z M32.5234375,10.6666667 L32.5234375,8 C32.5234375,6.52847218 33.7314147,5.33333333 35.21875,5.33333333 L56.78125,5.33333333 C58.2685853,5.33333333 59.4765625,6.52847218 59.4765625,8 L59.4765625,10.6666667 L32.5234375,10.6666667 Z" id="Shape"></path>
        </g>
    </g>
</svg>