<?xml version="1.0" encoding="UTF-8"?>
<svg width="94px" height="80px" viewBox="0 0 94 80" version="1.1" xmlns="http://www.w3.org/2000/svg" xmlns:xlink="http://www.w3.org/1999/xlink">
    <!-- Generator: Sketch 53.2 (72643) - https://sketchapp.com -->
    <title>legalstatistics</title>
    <desc>Created with Sketch.</desc>
    <g id="Page-1" stroke="none" stroke-width="1" fill="none" fill-rule="evenodd">
        <g id="legalstatistics" fill="#000000" fill-rule="nonzero">
            <path d="M56.9444252,73.0995918 L50.7232972,73.0995918 L50.7232972,16.0365306 L76.9413449,16.0365306 L65.8358872,33.6738776 C65.2727028,34.5681633 65.5406334,35.7506122 66.4343471,36.3140816 C66.7512148,36.5140816 67.1035618,36.6089796 67.4522386,36.6089796 C68.0874013,36.6089796 68.7084946,36.292449 69.0720564,35.7155102 L78.7034881,20.4187755 L88.3345119,35.7155102 C88.8979002,36.6097959 90.0793232,36.8779592 90.9726291,36.3140816 C91.8661388,35.7506122 92.1336616,34.5681633 91.5706811,33.6738776 L80.4656312,16.0365306 L80.6059176,16.0365306 C82.2430672,16.0365306 83.5704859,14.7079592 83.5704859,13.0693878 C83.5704859,11.4310204 82.2432711,10.102449 80.6059176,10.102449 L58.797102,10.102449 C57.5655184,8.30938776 55.7479132,6.95183673 53.6199653,6.30734694 C53.3159436,2.85816327 50.4233536,0.153061224 46.8980477,0.153061224 C43.372538,0.153061224 40.4801518,2.85816327 40.1759262,6.30734694 C38.0479783,6.95183673 36.2303731,8.30938776 34.9989935,10.102449 L13.1901779,10.102449 C11.5528243,10.102449 10.2254056,11.4310204 10.2254056,13.0693878 C10.2254056,14.7079592 11.5526204,16.0365306 13.1901779,16.0365306 L13.3304642,16.0365306 L2.22500651,33.6738776 C1.66182213,34.5681633 1.92975271,35.7506122 2.82326247,36.3140816 C3.14013015,36.5140816 3.49268113,36.6089796 3.84115401,36.6089796 C4.4761128,36.6089796 5.09761388,36.292449 5.4611757,35.7155102 L15.0926074,20.4187755 L24.7238351,35.7155102 C25.2870195,36.6097959 26.4682386,36.8779592 27.3617484,36.3140816 C28.255462,35.7506122 28.5231887,34.5681633 27.9602082,33.6738776 L16.8549544,16.0365306 L43.0730022,16.0365306 L43.0730022,73.0991837 L36.8520781,73.0991837 C33.1289848,73.0991837 30.1105857,76.1204082 30.1105857,79.8467347 L63.6857137,79.8467347 C63.6857137,76.1204082 60.6673145,73.0995918 56.9444252,73.0995918 Z" id="Path"></path>
            <path d="M29.1654881,38.6446939 L1.01952278,38.6446939 C0.456542299,38.6446939 0,39.1014286 0,39.665102 C0,47.9942857 6.77044685,54.7706122 15.0926074,54.7706122 C23.414564,54.7706122 30.1852148,47.9942857 30.1852148,39.665102 C30.1850108,39.1016327 29.7284685,38.6446939 29.1654881,38.6446939 Z" id="Path"></path>
            <path d="M92.7765727,38.6446939 L64.6306074,38.6446939 C64.0676269,38.6446939 63.6110846,39.1014286 63.6110846,39.665102 C63.6110846,47.9942857 70.3815315,54.7706122 78.7038959,54.7706122 C87.0258525,54.7706122 93.7962993,47.9942857 93.7962993,39.665102 C93.7960954,39.1016327 93.3395531,38.6446939 92.7765727,38.6446939 Z" id="Path"></path>
        </g>
    </g>
</svg>