<?xml version="1.0" encoding="UTF-8"?>
<svg width="80px" height="80px" viewBox="0 0 80 80" version="1.1" xmlns="http://www.w3.org/2000/svg" xmlns:xlink="http://www.w3.org/1999/xlink">
    <!-- Generator: Sketch 53.2 (72643) - https://sketchapp.com -->
    <title>market</title>
    <desc>Created with Sketch.</desc>
    <g id="Page-1" stroke="none" stroke-width="1" fill="none" fill-rule="evenodd">
        <g id="market" fill="#000000" fill-rule="nonzero">
            <path d="M24,64 C19.6,64 16,67.6 16,72 C16,76.4 19.6,80 24,80 C28.4,80 32,76.4 32,72 C32,67.6 28.4,64 24,64 Z M0,0 L0,8 L8,8 L22.4,38.4 L16.8,48 C16.4,49.2 16,50.8 16,52 C16,56.4 19.6,60 24,60 L72,60 L72,52 L25.6,52 C25.2,52 24.8,51.6 24.8,51.2 L24.8,50.7998431 L28.4,43.9998431 L58,43.9998431 C61.2,43.9998431 63.6,42.3998431 64.8,39.9998431 L79.2,14 C80,13.2 80,12.8 80,12 C80,9.6 78.4,8 76,8 L16.8,8 L13.2,0 L0,0 Z M64,64 C59.6,64 56,67.6 56,72 C56,76.4 59.6,80 64,80 C68.4,80 72,76.4 72,72 C72,67.6 68.4,64 64,64 Z" id="Shape"></path>
        </g>
    </g>
</svg>