<?xml version="1.0" encoding="UTF-8"?>
<svg width="68px" height="80px" viewBox="0 0 68 80" version="1.1" xmlns="http://www.w3.org/2000/svg" xmlns:xlink="http://www.w3.org/1999/xlink">
    <!-- Generator: Sketch 53.2 (72643) - https://sketchapp.com -->
    <title>safety</title>
    <desc>Created with Sketch.</desc>
    <g id="Page-1" stroke="none" stroke-width="1" fill="none" fill-rule="evenodd">
        <g id="safety" fill="#000000" fill-rule="nonzero">
            <path d="M33.9993908,24.8665935 C25.6096617,24.8665935 18.7844395,31.6910331 18.7844395,40.079191 C18.7844395,48.4679581 25.6096617,55.2923977 33.9993908,55.2923977 C42.3885106,55.2923977 49.2137328,48.4679581 49.2137328,40.079191 C49.2137328,31.6910331 42.3885106,24.8665935 33.9993908,24.8665935 Z M43.0324684,37.2143032 L32.132705,48.1128168 C31.675172,48.5702972 31.0750789,48.7993421 30.4755949,48.7993421 C29.876111,48.7993421 29.276627,48.5709065 28.819094,48.1128168 L24.6537773,43.9479775 C23.7387113,43.0336257 23.7387113,41.5503167 24.6537773,40.6353558 C25.5682339,39.7203947 27.0517131,39.7203947 27.9667789,40.6353558 L30.4755949,43.143884 L39.7194667,33.9016812 C40.6339234,32.9867203 42.1174025,32.9867203 43.0324684,33.9016812 C43.9475344,34.8160331 43.9475344,36.2993421 43.0324684,37.2143032 Z" id="Shape"></path>
            <path d="M67.9201906,21.8195663 L67.9177537,21.7574317 C67.8830275,20.990497 67.8598766,20.1790936 67.8458644,19.2763158 C67.7806766,14.8739035 64.2806408,11.2323343 59.8771144,10.986233 C50.6959934,10.4739278 43.5935709,7.48050682 37.5250143,1.56615501 L37.4732296,1.51681279 C35.493836,-0.297880078 32.5079917,-0.297880078 30.5279888,1.51681279 L30.4762041,1.56615501 C24.4076477,7.48050682 17.305225,10.4739278 8.12410411,10.9868421 C3.72118693,11.2323343 0.22054178,14.8739035 0.15535411,19.2769249 C0.141950936,20.1736111 0.118190862,20.9850146 0.0834646972,21.7574317 L0.0798093853,21.901803 C-0.0986954495,31.2627924 -0.320455927,42.9130118 3.57740826,53.4874512 C5.72068528,59.3025098 8.96667152,64.3573343 13.2245915,68.512427 C18.0740754,73.2443958 24.4259246,77.0010965 32.1034619,79.6777535 C32.3532468,79.7648636 32.6127796,79.8355262 32.877186,79.8885234 C33.2500358,79.9628412 33.6253225,80 34.0006092,80 C34.3758959,80 34.7517918,79.9628412 35.1240324,79.8885234 C35.388439,79.8355262 35.6497993,79.7642543 35.9008028,79.676535 C43.5692016,76.9950049 49.9143491,73.2364766 54.7595686,68.5051169 C59.0156608,64.3488061 62.261647,59.2927632 64.4067518,53.4764864 C68.3192374,42.8703704 68.0980863,31.1982213 67.9201906,21.8195663 Z M33.9993908,59.9774611 C23.0259103,59.9774611 14.098839,51.0514133 14.098839,40.079191 C14.098839,29.1069689 23.0259103,20.180921 33.9993908,20.180921 C44.972262,20.180921 53.8999427,29.1069689 53.8999427,40.079191 C53.8999427,51.0514133 44.972262,59.9774611 33.9993908,59.9774611 Z" id="Shape"></path>
        </g>
    </g>
</svg>