<?xml version="1.0" encoding="UTF-8"?>
<svg width="82px" height="80px" viewBox="0 0 82 80" version="1.1" xmlns="http://www.w3.org/2000/svg" xmlns:xlink="http://www.w3.org/1999/xlink">
    <!-- Generator: Sketch 53.2 (72643) - https://sketchapp.com -->
    <title>sport</title>
    <desc>Created with Sketch.</desc>
    <g id="Page-1" stroke="none" stroke-width="1" fill="none" fill-rule="evenodd">
        <g id="sport" fill="#000000" fill-rule="nonzero">
            <path d="M80.4698129,16.683871 L80.2695283,16.4816129 C78.3872047,14.5822581 75.3196374,14.5780645 73.4259649,16.4872581 L66.0589123,23.9991935 C65.6708109,24.3920968 65.0499766,24.4079032 64.6450916,24.0319355 L54.3162885,14.4098387 C53.3131072,13.4743548 52.0078207,12.9603226 50.6405146,12.9603226 L35.2756647,12.9603226 C34.9129786,12.9603226 34.5659571,13.0998387 34.3034932,13.3504839 L21.2809981,25.8272581 C19.3732593,27.7537097 19.2420273,30.8590323 20.9904016,32.7498387 C21.9245302,33.7608065 23.1860195,34.3174194 24.5419766,34.3174194 L24.5659532,34.3174194 C25.9107212,34.3103226 27.2032203,33.7337097 28.0964288,32.7483871 L37.2935361,22.9269355 L40.5855244,22.9269355 L19.1221442,47.1319355 L5.88385965,47.1319355 C2.74564133,47.1319355 0.164959064,49.4996774 0.00831189084,52.5224194 C-0.0749668616,54.1014516 0.472499025,55.6020968 1.54920858,56.7467742 C2.61025341,57.8758065 4.10175828,58.5222581 5.64409357,58.5222581 L25.3985809,58.5222581 C25.787961,58.5222581 26.1605575,58.36 26.428616,58.0709677 L36.5499415,47.168871 L45.0613177,56.1501613 L42.4918246,72.7203226 C41.8441365,75.4654839 43.149423,78.2617742 45.5947173,79.3651613 C46.3482222,79.7069355 47.1482417,79.8777419 47.9441053,79.8777419 C48.8005497,79.8777419 49.6528382,79.6798387 50.4373528,79.2882258 C51.9528343,78.5308065 53.0421715,77.1454839 53.4385848,75.4225806 L57.8283821,51.6635484 C57.9130994,51.2022581 57.7676413,50.7266129 57.4375634,50.395 L45.7217934,38.588871 L55.0290331,29.2117742 L61.5169435,35.7569355 C63.3287758,37.5851613 66.486655,37.5851613 68.2970487,35.7569355 L80.4701326,23.4751613 C81.3689357,22.5682258 81.8642924,21.3608065 81.8642924,20.0793548 C81.8639727,18.7967742 81.368616,17.5908065 80.4698129,16.683871 Z" id="Path"></path>
            <path d="M64.907076,17.2317742 C69.5762807,17.2317742 73.3733762,13.4003226 73.3733762,8.68887097 C73.3733762,3.97741935 69.5762807,0.145967742 64.907076,0.145967742 C60.2380312,0.145967742 56.4407758,3.97741935 56.4407758,8.68887097 C56.4409357,13.4003226 60.2380312,17.2317742 64.907076,17.2317742 Z" id="Path"></path>
        </g>
    </g>
</svg>