<?xml version="1.0" encoding="UTF-8"?>
<svg width="94px" height="80px" viewBox="0 0 94 80" version="1.1" xmlns="http://www.w3.org/2000/svg" xmlns:xlink="http://www.w3.org/1999/xlink">
    <!-- Generator: Sketch 53.2 (72643) - https://sketchapp.com -->
    <title>tariffs</title>
    <desc>Created with Sketch.</desc>
    <g id="Page-1" stroke="none" stroke-width="1" fill="none" fill-rule="evenodd">
        <g id="tariffs" fill="#000000" fill-rule="nonzero">
            <path d="M6.36960986,62.9148916 L6.36960986,78.1245301 C6.36960986,79.0498313 7.12238193,79.8209157 8.06817248,79.8209157 L19.8422998,79.8209157 C20.7687885,79.8209157 21.5408624,79.0691084 21.5408624,78.1245301 L21.5408624,51.3679036 L12.9901437,59.9076627 C11.17577,61.7004337 8.85954825,62.7413976 6.36960986,62.9148916 Z" id="Path"></path>
            <path d="M27.4086242,51.1751325 L27.4086242,78.1245301 C27.4086242,79.0498313 28.1613963,79.8209157 29.1071869,79.8209157 L40.8813142,79.8209157 C41.8078029,79.8209157 42.5798768,79.0691084 42.5798768,78.1245301 L42.5798768,62.2594699 C39.8969199,62.2016386 37.3876797,61.1413976 35.4960986,59.252241 L27.4086242,51.1751325 Z" id="Path"></path>
            <path d="M48.4476386,60.5823614 L48.4476386,78.1245301 C48.4476386,79.0498313 49.2004107,79.8209157 50.1462012,79.8209157 L61.9203285,79.8209157 C62.8468172,79.8209157 63.6188912,79.0691084 63.6188912,78.1245301 L63.6188912,45.7582651 L50.1268994,59.2329639 C49.6057495,59.7534458 49.0459959,60.1968193 48.4476386,60.5823614 Z" id="Path"></path>
            <path d="M83.5190965,25.8642892 L69.486653,39.878747 L69.486653,78.1245301 C69.486653,79.0498313 70.2394251,79.8209157 71.1852156,79.8209157 L82.9593429,79.8209157 C83.8858316,79.8209157 84.6579055,79.0691084 84.6579055,78.1245301 L84.6579055,26.9245301 C84.2718686,26.5968193 83.9823409,26.3076627 83.7700205,26.1148916 L83.5190965,25.8642892 Z" id="Path"></path>
            <path d="M93.1507187,1.03537349 C92.5909651,0.437783133 91.7416838,0.129349398 90.6607803,0.129349398 C90.564271,0.129349398 90.44846,0.129349398 90.3519507,0.129349398 C84.8702259,0.379951807 79.4078029,0.649831325 73.926078,0.900433735 C73.1926078,0.938987952 72.1889117,0.977542169 71.3975359,1.76790361 C71.1466119,2.01850602 70.9535934,2.30766265 70.7991786,2.6546506 C69.988501,4.40886747 71.1273101,5.54621687 71.6677618,6.0859759 L73.038193,7.47392771 C73.9839836,8.43778313 74.949076,9.40163855 75.9141684,10.3462169 L42.7921971,43.445012 L27.9104723,28.5823614 C27.0225873,27.6956145 25.8258727,27.1944096 24.5519507,27.1944096 C23.2780287,27.1944096 22.100616,27.6956145 21.212731,28.5823614 L1.38973306,48.3606747 C-0.463244353,50.2112771 -0.463244353,53.1992289 1.38973306,55.0498313 L2.27761807,55.9365783 C3.16550308,56.8233253 4.36221766,57.3245301 5.63613963,57.3245301 C6.9100616,57.3245301 8.08747433,56.8233253 8.97535934,55.9365783 L24.5519507,40.3799518 L39.4336756,55.2426024 C40.3215606,56.1293494 41.5182752,56.6305542 42.7921971,56.6305542 C44.0661191,56.6305542 45.2435318,56.1293494 46.1507187,55.2426024 L83.5190965,17.9221205 L87.7462012,22.1245301 C88.2480493,22.6257349 88.9429158,23.3197108 90.0045175,23.3197108 C90.44846,23.3197108 90.8924025,23.2040482 91.3556468,22.9534458 C91.6644764,22.7799518 91.9347023,22.5871807 92.1663244,22.3558554 C92.9963039,21.5269398 93.1507187,20.4666988 93.1893224,19.6377831 C93.3437372,16.0907952 93.5174538,12.5438072 93.6911704,8.97754217 L93.9420945,3.63778313 C94,2.51971084 93.749076,1.65224096 93.1507187,1.03537349 Z" id="Path"></path>
        </g>
    </g>
</svg>