<?xml version="1.0" encoding="UTF-8"?>
<svg width="50px" height="80px" viewBox="0 0 50 80" version="1.1" xmlns="http://www.w3.org/2000/svg" xmlns:xlink="http://www.w3.org/1999/xlink">
    <!-- Generator: Sketch 53.2 (72643) - https://sketchapp.com -->
    <title>tourism</title>
    <desc>Created with Sketch.</desc>
    <g id="Page-1" stroke="none" stroke-width="1" fill="none" fill-rule="evenodd">
        <g id="tourism" fill="#000000" fill-rule="nonzero">
            <path d="M48.1088235,25.9016393 L45.7124183,25.9016393 L45.7124183,20.752459 C45.7124183,17.8472131 43.4065359,15.4098361 40.5107843,15.4098361 L35.254902,15.4098361 L35.254902,7.83180328 C35.254902,3.49278689 31.872549,0 27.5480392,0 L18.7245098,0 C14.3996732,0 10.745098,3.49278689 10.745098,7.83180328 L10.745098,15.4098361 L5.76143791,15.4098361 C2.86568627,15.4098361 0.287581699,17.8472131 0.287581699,20.752459 L0.287581699,69.2963934 C0.287581699,72.2016393 2.86568627,74.4262295 5.76143791,74.4262295 L5.8254902,74.4262295 C6.31437908,77.704918 8.99509804,79.9213115 12.2284314,79.9213115 C15.4617647,79.9213115 18.1421569,77.704918 18.6310458,74.4262295 L27.6415033,74.4262295 C28.1303922,77.704918 30.8111111,79.9213115 34.0444444,79.9213115 C37.2777778,79.9213115 39.9578431,77.704918 40.4464052,74.4262295 L40.5104575,74.4262295 C43.4062092,74.4262295 45.7120915,72.2016393 45.7120915,69.2963934 L45.7120915,49.8360656 L48.1084967,49.8360656 C49.1915033,49.8360656 49.9604575,48.9554098 49.9604575,47.8688525 L49.9604575,27.8688525 C49.9607843,26.7822951 49.1918301,25.9016393 48.1088235,25.9016393 Z M17.9346405,7.83180328 C17.9346405,7.48262295 18.3764706,7.21311475 18.7245098,7.21311475 L27.5480392,7.21311475 C27.8960784,7.21311475 28.0653595,7.48229508 28.0653595,7.83180328 L28.0653595,15.4098361 L17.9346405,15.4098361 L17.9346405,7.83180328 Z M32.6405229,26.8852459 L32.6405229,39.3442623 L23.8169935,39.3442623 L23.8169935,26.8852459 L32.6405229,26.8852459 Z M7.88562092,28.9586885 C7.88562092,25.82 10.4215686,23.2757377 13.55,23.2757377 C16.6784314,23.2757377 19.2143791,25.82 19.2143791,28.9586885 C19.2143791,32.097377 16.6784314,34.6416393 13.55,34.6416393 C10.4215686,34.6416393 7.88562092,32.097377 7.88562092,28.9586885 Z M15.4565359,48.5534426 L10.1418301,43.2213115 L15.4565359,37.8891803 L20.7712418,43.2213115 L15.4565359,48.5534426 Z M28.2558824,54.6419672 C25.127451,54.6419672 22.5915033,52.0977049 22.5915033,48.9590164 C22.5915033,45.8203279 25.127451,43.2760656 28.2558824,43.2760656 C31.3843137,43.2760656 33.9202614,45.8203279 33.9202614,48.9590164 C33.9202614,52.0977049 31.3843137,54.6419672 28.2558824,54.6419672 Z" id="Shape"></path>
        </g>
    </g>
</svg>