<?xml version="1.0" encoding="UTF-8"?>
<svg width="96px" height="80px" viewBox="0 0 96 80" version="1.1" xmlns="http://www.w3.org/2000/svg" xmlns:xlink="http://www.w3.org/1999/xlink">
    <!-- Generator: Sketch 53.2 (72643) - https://sketchapp.com -->
    <title>transport</title>
    <desc>Created with Sketch.</desc>
    <g id="Page-1" stroke="none" stroke-width="1" fill="none" fill-rule="evenodd">
        <g id="transport" fill="#000000" fill-rule="nonzero">
            <path d="M95.9226429,44.3875269 C95.9226429,42.4939785 95.4966429,40.6853763 94.7273571,39.0307527 C94.6480714,38.6101075 94.5574286,38.1901075 94.4440714,37.764086 L86.1117857,17.0404301 L86.0554286,16.8539785 C83.1400714,8.14236559 78.9919286,0.0795698925 68.4735,0.0795698925 L28.2574286,0.0795698925 C17.4797143,0.0795698925 13.6712143,8.34215054 10.692,16.8055914 L1.97635714,37.5797849 C0.716357143,39.6058065 0,41.9234409 0,44.3875269 L0,50.836129 C0,51.8331183 0.117428571,52.8083871 0.340714286,53.7477419 C0.123642857,54.3152688 0,54.9268817 0,55.5716129 L0,74.7511828 C0,77.5636559 2.27185714,79.844086 5.07428571,79.844086 L15.6042857,79.844086 C18.4052143,79.844086 20.6770714,77.5636559 20.6770714,74.7511828 L20.6770714,65.16 L75.8470714,65.16 L75.8470714,74.7511828 C75.8470714,77.5636559 78.1193571,79.844086 80.922,79.844086 L90.849,79.844086 C93.6525,79.844086 95.9239286,77.5636559 95.9239286,74.7511828 L95.9239286,55.5694624 C95.9239286,54.9270968 95.799,54.3126882 95.5836429,53.7470968 C95.8060714,52.8062366 95.9239286,51.832043 95.9239286,50.8352688 L95.9239286,44.3877419 L95.9226429,44.3877419 L95.9226429,44.3875269 Z M16.8758571,18.8862366 C20.1936429,9.49204301 22.8617143,6.62430108 28.2574286,6.62430108 L68.4711429,6.62430108 C73.8272143,6.62430108 76.8096429,9.8227957 79.8402857,18.8458065 L85.9206429,31.211828 C83.9352857,30.4739785 81.7504286,30.0645161 79.455,30.0645161 L16.4676429,30.0645161 C14.4008571,30.0645161 12.4257857,30.3980645 10.6035,31.0017204 L16.8758571,18.8862366 Z M22.0990714,53.2851613 L10.9887857,53.2851613 C8.98842857,53.2851613 7.36607143,51.6554839 7.36607143,49.648172 C7.36607143,47.6402151 8.98842857,46.0116129 10.9887857,46.0116129 L22.0990714,46.0116129 C24.1002857,46.0116129 25.7226429,47.6402151 25.7226429,49.648172 C25.7226429,51.6554839 24.0992143,53.2851613 22.0990714,53.2851613 Z M61.3465714,52.5567742 L35.5037143,52.5567742 C34.2366429,52.5567742 33.21,51.5258065 33.21,50.2548387 C33.21,48.9815054 34.2366429,47.9509677 35.5037143,47.9509677 L61.3465714,47.9509677 C62.6151429,47.9509677 63.6415714,48.9815054 63.6415714,50.2548387 C63.6415714,51.5258065 62.6151429,52.5567742 61.3465714,52.5567742 Z M84.6537857,53.2851613 L73.5439286,53.2851613 C71.5418571,53.2851613 69.9203571,51.6554839 69.9203571,49.648172 C69.9203571,47.6402151 71.5431429,46.0116129 73.5439286,46.0116129 L84.6537857,46.0116129 C86.6558571,46.0116129 88.2786429,47.6402151 88.2786429,49.648172 C88.2786429,51.6554839 86.6558571,53.2851613 84.6537857,53.2851613 Z" id="Shape"></path>
        </g>
    </g>
</svg>