<?xml version="1.0" encoding="iso-8859-1"?>
<!-- Generator: Adobe Illustrator 19.0.0, SVG Export Plug-In . SVG Version: 6.00 Build 0)  -->
<svg version="1.1" id="Capa_1" xmlns="http://www.w3.org/2000/svg" xmlns:xlink="http://www.w3.org/1999/xlink" x="0px" y="0px"
	 viewBox="0 0 512 512" style="enable-background:new 0 0 512 512;" xml:space="preserve">
<g>
	<g>
		<g>
			<polygon points="224,128 224,224 288,224 288,192 256,192 256,128 			"/>
			<path d="M160,128c0-53.019,42.981-96,96-96s96,42.981,96,96v96h32v-96C384,57.308,326.692,0,256,0S128,57.308,128,128v101.328
				l48,64V324.8l-176,64V512h128v-32H32v-68.8l176-64v-64.528l-48-64V128z"/>
			<rect x="160" y="480" width="32" height="32"/>
			<rect x="224" y="480" width="32" height="32"/>
			<path d="M384,256c-70.692,0-128,57.308-128,128s57.308,128,128,128s128-57.308,128-128C511.921,313.34,454.66,256.079,384,256z
				 M384,480c-53.019,0-96-42.981-96-96s42.981-96,96-96s96,42.981,96,96C479.947,436.997,436.997,479.947,384,480z"/>
			<rect x="320" y="368" width="128" height="32"/>
		</g>
	</g>
</g>
<g>
</g>
<g>
</g>
<g>
</g>
<g>
</g>
<g>
</g>
<g>
</g>
<g>
</g>
<g>
</g>
<g>
</g>
<g>
</g>
<g>
</g>
<g>
</g>
<g>
</g>
<g>
</g>
<g>
</g>
</svg>
