<?xml version="1.0" encoding="UTF-8"?>
<svg width="395px" height="396px" viewBox="0 0 395 396" version="1.1" xmlns="http://www.w3.org/2000/svg" xmlns:xlink="http://www.w3.org/1999/xlink">
    <!-- Generator: Sketch 53.2 (72643) - https://sketchapp.com -->
    <title>edit</title>
    <desc>Created with Sketch.</desc>
    <g id="Page-1" stroke="none" stroke-width="1" fill="none" fill-rule="evenodd">
        <g id="edit" fill="#000000" fill-rule="nonzero">
            <path d="M153.522393,38.5 C160.425952,38.5 166.022393,44.0964406 166.022393,51 C166.022393,57.9035594 160.425952,63.5 153.522393,63.5 L63,63.5 C42.2893219,63.5 25.5,80.2893219 25.5,101 L25.5,333 C25.5,353.710678 42.2893219,370.5 63,370.5 L313,370.5 C333.710678,370.5 350.5,353.710678 350.5,333 L350.5,242.098271 C350.5,235.194711 356.096441,229.598271 363,229.598271 C369.903559,229.598271 375.5,235.194711 375.5,242.098271 L375.5,333 C375.5,367.517797 347.517797,395.5 313,395.5 L63,395.5 C28.4822031,395.5 0.5,367.517797 0.5,333 L0.5,101 C0.5,66.4822031 28.4822031,38.5 63,38.5 L153.522393,38.5 Z" id="Path"></path>
            <path d="M370.558124,13.0297123 C353.303456,-4.34323743 325.329339,-4.34323743 308.07467,13.0297123 L132.912365,189.392769 C131.71194,190.601423 130.845179,192.099691 130.392624,193.744695 L107.358275,277.473899 C106.410974,280.906784 107.373614,284.582945 109.874181,287.104513 C112.378581,289.62222 116.029713,290.591461 119.439227,289.641528 L202.598367,266.445415 C204.232172,265.989756 205.720239,265.117055 206.920664,263.9084 L382.079134,87.5414816 C399.306955,70.1569474 399.306955,42.0142351 382.079134,24.6296996 L370.558124,13.0297123 Z M154.305239,195.818328 L297.66204,51.4749434 L343.895654,98.0254923 L200.535017,242.368877 L154.305239,195.818328 Z M145.070022,214.477163 L182.007055,251.671263 L130.914213,265.924111 L145.070022,214.477163 Z M357.782996,84.0468119 L311.545548,37.4924023 L321.962013,27.0083921 C331.546236,17.358469 347.086559,17.358469 356.670782,27.0083921 L368.195627,38.6083795 C377.764508,48.2698874 377.764508,63.9051564 368.195627,73.5628021 L357.782996,84.0468119 Z" id="Shape"></path>
        </g>
    </g>
</svg>