<?xml version="1.0" encoding="UTF-8"?>
<svg width="480px" height="480px" viewBox="0 0 480 480" version="1.1" xmlns="http://www.w3.org/2000/svg" xmlns:xlink="http://www.w3.org/1999/xlink">
    <!-- Generator: Sketch 53.2 (72643) - https://sketchapp.com -->
    <title>business-and-finance</title>
    <desc>Created with Sketch.</desc>
    <g id="Page-1" stroke="none" stroke-width="1" fill="none" fill-rule="evenodd">
        <g id="business-and-finance" fill="#000000" fill-rule="nonzero">
            <path d="M240,0 C213.49,0 192,21.49 192,48 C192,74.51 213.49,96 240,96 C266.499,95.974 287.974,74.499 288,48 C288,21.49 266.51,0 240,0 Z M240,80 C222.327,80 208,65.673 208,48 C208,30.327 222.327,16 240,16 C257.673,16 272,30.327 272,48 C272,65.673 257.673,80 240,80 Z" id="Shape"></path>
            <path d="M272,104 L270.112,104 L268.424,104.84 C250.523,113.753 229.477,113.753 211.576,104.84 L209.888,104 L208,104 C185.92,104.026 168.026,121.92 168,144 L168,192 C168,205.255 178.745,216 192,216 L288,216 C301.255,216 312,205.255 312,192 L312,144 C311.974,121.92 294.08,104.026 272,104 Z M296,192 C296,196.418 292.418,200 288,200 L192,200 C187.582,200 184,196.418 184,192 L184,144 C184.002,131.408 193.735,120.958 206.296,120.064 C227.671,129.984 252.33,129.984 273.704,120.064 C286.264,120.958 295.998,131.408 296,144 L296,192 Z" id="Shape"></path>
            <path d="M408,264 C381.49,264 360,285.49 360,312 C360,338.51 381.49,360 408,360 C434.51,360 456,338.51 456,312 C455.974,285.501 434.499,264.026 408,264 Z M408,344 C390.327,344 376,329.673 376,312 C376,294.327 390.327,280 408,280 C425.673,280 440,294.327 440,312 C440,329.673 425.673,344 408,344 Z" id="Shape"></path>
            <path d="M440,368 L438.112,368 L436.424,368.8 C418.523,377.712 397.477,377.712 379.576,368.8 L377.888,368 L376,368 C353.92,368.026 336.026,385.92 336,408 L336,456 C336,469.255 346.745,480 360,480 L456,480 C469.255,480 480,469.255 480,456 L480,408 C479.974,385.92 462.08,368.026 440,368 Z M464,456 C464,460.418 460.418,464 456,464 L360,464 C355.582,464 352,460.418 352,456 L352,408 C352.002,395.408 361.735,384.958 374.296,384.064 C395.671,393.984 420.329,393.984 441.704,384.064 C454.265,384.958 463.998,395.408 464,408 L464,456 Z" id="Shape"></path>
            <path d="M72,264 C45.49,264 24,285.49 24,312 C24,338.51 45.49,360 72,360 C98.51,360 120,338.51 120,312 C119.974,285.501 98.499,264.026 72,264 Z M72,344 C54.327,344 40,329.673 40,312 C40,294.327 54.327,280 72,280 C89.673,280 104,294.327 104,312 C104,329.673 89.673,344 72,344 Z" id="Shape"></path>
            <path d="M104,368 L102.112,368 L100.424,368.8 C82.523,377.712 61.477,377.712 43.576,368.8 L41.888,368 L40,368 C17.92,368.026 0.026,385.92 0,408 L0,456 C0,469.255 10.745,480 24,480 L120,480 C133.255,480 144,469.255 144,456 L144,408 C143.974,385.92 126.08,368.026 104,368 Z M128,456 C128,460.418 124.418,464 120,464 L24,464 C19.582,464 16,460.418 16,456 L16,408 C16.002,395.408 25.735,384.958 38.296,384.064 C59.671,393.984 84.329,393.984 105.704,384.064 C118.265,384.958 127.998,395.408 128,408 L128,456 Z" id="Shape"></path>
            <path d="M319.372,406.276 C319.368,406.267 319.364,406.258 319.36,406.248 C317.628,402.183 312.929,400.292 308.865,402.024 C308.865,402.024 308.865,402.024 308.865,402.024 C272.74,417.164 232.62,419.926 194.761,409.88 L202.249,407.68 C206.491,406.438 208.923,401.994 207.681,397.752 C206.439,393.51 201.995,391.078 197.753,392.32 L165.753,401.704 C165.633,401.704 165.545,401.84 165.433,401.88 C164.692,402.156 163.996,402.542 163.369,403.024 C163.091,403.174 162.824,403.342 162.569,403.528 C161.725,404.281 161.056,405.209 160.609,406.248 C160.175,407.294 159.968,408.42 160.001,409.552 C160.196,410.635 160.463,411.704 160.801,412.752 C160.849,412.864 160.801,412.992 160.889,413.104 L176.889,443.72 C178.935,447.639 183.77,449.158 187.689,447.112 C191.608,445.066 193.127,440.231 191.081,436.312 L184.569,423.864 C227.583,436.794 273.764,434.281 315.121,416.76 C319.189,415.039 321.093,410.345 319.372,406.276 Z" id="Path"></path>
            <path d="M453.656,210.344 C450.532,207.221 445.468,207.221 442.344,210.344 L431.024,221.664 C424.4,151.594 379.913,90.788 315.136,63.264 C311.071,61.532 306.372,63.423 304.64,67.488 C302.908,71.553 304.799,76.252 308.864,77.984 C366.974,102.681 407.368,156.653 414.68,219.368 L405.656,210.344 C402.478,207.274 397.414,207.362 394.344,210.54 C391.35,213.64 391.35,218.555 394.344,221.656 L418.344,245.656 C421.464,248.784 426.53,248.791 429.658,245.67 C429.663,245.665 429.668,245.66 429.672,245.656 L453.672,221.656 C456.791,218.528 456.784,213.464 453.656,210.344 Z" id="Path"></path>
            <path d="M175.768,69.272 C175.742,68.805 175.673,68.342 175.56,67.888 C175.56,67.816 175.472,67.768 175.44,67.688 C175.408,67.608 175.44,67.552 175.44,67.488 C175.222,67.099 174.97,66.729 174.688,66.384 C174.429,65.915 174.123,65.473 173.776,65.064 C173.303,64.645 172.779,64.288 172.216,64 C171.935,63.761 171.635,63.544 171.32,63.352 L139.32,48.736 C135.233,47.058 130.559,49.011 128.881,53.098 C127.294,56.963 128.949,61.399 132.68,63.28 L149.248,70.856 C86.875,104.237 47.955,169.256 48,240 C48,244.418 51.582,248 56,248 C60.418,248 64,244.418 64,240 C63.96,177.707 96.901,120.048 150.584,88.448 L144.8,100.536 C142.893,104.513 144.564,109.283 148.536,111.2 C149.615,111.727 150.799,112.001 152,112 C155.072,111.996 157.87,110.233 159.2,107.464 L175.2,74.08 C175.2,74 175.2,73.912 175.264,73.832 C175.472,73.285 175.617,72.716 175.696,72.136 C175.833,71.705 175.935,71.264 176,70.816 C175.973,70.295 175.896,69.778 175.768,69.272 Z" id="Path"></path>
        </g>
    </g>
</svg>