<?xml version="1.0" encoding="UTF-8"?>
<svg width="513px" height="512px" viewBox="0 0 513 512" version="1.1" xmlns="http://www.w3.org/2000/svg" xmlns:xlink="http://www.w3.org/1999/xlink">
    <!-- Generator: Sketch 53.2 (72643) - https://sketchapp.com -->
    <title>filter</title>
    <desc>Created with Sketch.</desc>
    <g id="Page-1" stroke="none" stroke-width="1" fill="none" fill-rule="evenodd">
        <path d="M492.476562,0 L20.5,0 C9.453125,0 0.5,8.953125 0.5,20 C0.5,75.695312 24.375,128.867188 66.003906,165.871094 L153.59375,243.722656 C168.78125,257.222656 177.492188,276.621094 177.492188,296.945312 L177.492188,491.976562 C177.492188,507.914062 195.304688,517.46875 208.582031,508.613281 L326.578125,429.953125 C332.140625,426.242188 335.484375,420 335.484375,413.3125 L335.484375,296.945312 C335.484375,276.621094 344.195312,257.222656 359.382812,243.722656 L446.96875,165.871094 C488.597656,128.867188 512.472656,75.695312 512.472656,20 C512.472656,8.953125 503.519531,0 492.476562,0 Z" id="filter" fill="#000000" fill-rule="nonzero"></path>
    </g>
</svg>