<?xml version="1.0" encoding="UTF-8"?>
<svg width="512px" height="512px" viewBox="0 0 512 512" version="1.1" xmlns="http://www.w3.org/2000/svg" xmlns:xlink="http://www.w3.org/1999/xlink">
    <!-- Generator: Sketch 53.2 (72643) - https://sketchapp.com -->
    <title>inactive</title>
    <desc>Created with Sketch.</desc>
    <g id="Page-1" stroke="none" stroke-width="1" fill="none" fill-rule="evenodd">
        <g id="inactive" fill="#000000" fill-rule="nonzero">
            <path d="M373.333333,512 C296.874667,512 234.666667,449.792 234.666667,373.333333 C234.666667,296.874667 296.874667,234.666667 373.333333,234.666667 C449.792,234.666667 512,296.874667 512,373.333333 C512,449.792 449.792,512 373.333333,512 Z M373.333333,266.666667 C314.517333,266.666667 266.666667,314.517333 266.666667,373.333333 C266.666667,432.149333 314.517333,480 373.333333,480 C432.149333,480 480,432.149333 480,373.333333 C480,314.517333 432.149333,266.666667 373.333333,266.666667 Z" id="Shape"></path>
            <g id="Group" transform="translate(336.000000, 330.000000)">
                <path d="M87.0585827,75.4837942 C92.8665227,82.1435655 92.1759771,92.2506426 85.5162058,98.0585827 C78.8564345,103.866523 68.7493574,103.175977 62.9414173,96.5162058 L-12.0585827,10.5162058 C-17.8665227,3.8564345 -17.1759771,-6.25064256 -10.5162058,-12.0585827 C-3.8564345,-17.8665227 6.25064256,-17.1759771 12.0585827,-10.5162058 L87.0585827,75.4837942 Z" id="Line"></path>
                <path d="M62.9414173,-10.5162058 C68.7493574,-17.1759771 78.8564345,-17.8665227 85.5162058,-12.0585827 C92.1759771,-6.25064256 92.8665227,3.8564345 87.0585827,10.5162058 L12.0585827,96.5162058 C6.25064256,103.175977 -3.8564345,103.866523 -10.5162058,98.0585827 C-17.1759771,92.2506426 -17.8665227,82.1435655 -12.0585827,75.4837942 L62.9414173,-10.5162058 Z" id="Line"></path>
            </g>
            <path d="M176,426.666667 L48,426.666667 C21.5466667,426.666667 0,405.12 0,378.666667 L0,197.333333 C0,170.88 21.5466667,149.333333 48,149.333333 L293.333333,149.333333 C307.093333,149.333333 320.106667,155.2 329.066667,165.482667 C334.869333,172.138667 334.208,182.229333 327.552,188.053333 C320.938667,193.877333 310.805333,193.216 304.981333,186.538667 C302.08,183.232 297.856,181.333333 293.333333,181.333333 L48,181.333333 C39.1893333,181.333333 32,188.522667 32,197.333333 L32,378.666667 C32,387.477333 39.1893333,394.666667 48,394.666667 L176,394.666667 C184.832,394.666667 192,401.834667 192,410.666667 C192,419.498667 184.832,426.666667 176,426.666667 Z" id="Path"></path>
            <path d="M261.333333,181.333333 C252.501333,181.333333 245.333333,174.165333 245.333333,165.333333 L245.333333,106.666667 C245.333333,65.4933333 211.84,32 170.666667,32 C129.493333,32 96,65.4933333 96,106.666667 L96,165.333333 C96,174.165333 88.832,181.333333 80,181.333333 C71.168,181.333333 64,174.165333 64,165.333333 L64,106.666667 C64,47.8506667 111.850667,0 170.666667,0 C229.482667,0 277.333333,47.8506667 277.333333,106.666667 L277.333333,165.333333 C277.333333,174.165333 270.165333,181.333333 261.333333,181.333333 Z" id="Path"></path>
        </g>
    </g>
</svg>