<?xml version="1.0" encoding="UTF-8"?>
<svg width="55px" height="55px" viewBox="0 0 55 55" version="1.1" xmlns="http://www.w3.org/2000/svg" xmlns:xlink="http://www.w3.org/1999/xlink">
    <!-- Generator: Sketch 53.2 (72643) - https://sketchapp.com -->
    <title>Path</title>
    <desc>Created with Sketch.</desc>
    <g id="Page-1" stroke="none" stroke-width="1" fill="none" fill-rule="evenodd">
        <path d="M52.8515625,25.3515625 L29.6484375,25.3515625 L29.6484375,2.1484375 C29.6484375,0.961855469 28.686582,0 27.5,0 C26.313418,0 25.3515625,0.961855469 25.3515625,2.1484375 L25.3515625,25.3515625 L2.1484375,25.3515625 C0.961855469,25.3515625 0,26.313418 0,27.5 C0,28.686582 0.961855469,29.6484375 2.1484375,29.6484375 L25.3515625,29.6484375 L25.3515625,52.8515625 C25.3515625,54.0381445 26.313418,55 27.5,55 C28.686582,55 29.6484375,54.0381445 29.6484375,52.8515625 L29.6484375,29.6484375 L52.8515625,29.6484375 C54.0381445,29.6484375 55,28.686582 55,27.5 C55,26.313418 54.0381445,25.3515625 52.8515625,25.3515625 Z" id="Path" fill="#000000" fill-rule="nonzero"></path>
    </g>
</svg>