<?xml version="1.0" encoding="UTF-8"?>
<svg width="571px" height="570px" viewBox="0 0 571 570" version="1.1" xmlns="http://www.w3.org/2000/svg" xmlns:xlink="http://www.w3.org/1999/xlink">
    <!-- Generator: Sketch 53.2 (72643) - https://sketchapp.com -->
    <title>rock-and-rollo</title>
    <desc>Created with Sketch.</desc>
    <g id="Page-1" stroke="none" stroke-width="1" fill="none" fill-rule="evenodd">
        <g id="rock-and-rollo" fill="#000000" fill-rule="nonzero">
            <path d="M1.527344,52.246094 L39.511719,118.714844 C40.792969,120.960938 42.9375,122.585938 45.445312,123.214844 L80.882812,132.074219 L202.425781,253.617188 L215.855469,240.191406 L92.410156,116.75 C91.195312,115.53125 89.671875,114.667969 88.003906,114.25 L53.953125,105.707031 L21.613281,49.082031 L49.339844,21.355469 L105.988281,53.726562 L114.535156,87.777344 C114.949219,89.449219 115.816406,90.976562 117.03125,92.191406 L240.476562,215.636719 L253.902344,202.207031 L132.359375,80.664062 L123.5,45.246094 C122.871094,42.734375 121.246094,40.585938 119,39.300781 L52.527344,1.320312 C48.820312,-0.789062 44.15625,-0.164062 41.132812,2.847656 L3.152344,40.832031 C0.0976562,43.835938 -0.566406,48.507812 1.527344,52.246094 Z" id="Path"></path>
            <polygon id="Path" points="396.3125 187.144531 187.410156 396.050781 173.980469 382.621094 382.886719 173.71875"></polygon>
            <path d="M150.847656,403.441406 C149.128906,400.582031 146.042969,398.835938 142.707031,398.835938 L85.734375,398.835938 C82.402344,398.835938 79.3125,400.582031 77.597656,403.441406 L49.109375,450.917969 C47.300781,453.925781 47.300781,457.6875 49.109375,460.699219 L77.597656,508.175781 C79.3125,511.03125 82.402344,512.78125 85.734375,512.78125 L142.707031,512.78125 C146.042969,512.78125 149.128906,511.03125 150.847656,508.175781 L179.332031,460.699219 C181.140625,457.6875 181.140625,453.925781 179.332031,450.917969 L150.847656,403.441406 Z M137.335938,493.789062 L91.109375,493.789062 L68.320312,455.808594 L91.109375,417.824219 L137.335938,417.824219 L160.125,455.808594 L137.335938,493.789062 Z" id="Shape"></path>
            <path d="M456.0625,227.914062 C518.777344,228.125 569.792969,177.453125 570.003906,114.738281 C570.035156,105.191406 568.863281,95.683594 566.515625,86.429688 C565.25,81.339844 560.097656,78.242188 555.007812,79.507812 C553.335938,79.925781 551.8125,80.789062 550.59375,82.003906 L491.484375,141.074219 L444.585938,125.445312 L428.945312,78.558594 L488.054688,19.4375 C491.761719,15.726562 491.757812,9.714844 488.046875,6.007812 C486.824219,4.785156 485.285156,3.917969 483.601562,3.503906 C422.78125,-11.898438 360.996094,24.917969 345.59375,85.734375 C343.253906,94.960938 342.085938,104.445312 342.117188,113.964844 C342.140625,121.441406 342.910156,128.894531 344.425781,136.214844 L136.46875,344.167969 C129.148438,342.65625 121.695312,341.886719 114.222656,341.859375 C51.289062,341.859375 0.273438,392.875 0.273438,455.808594 C0.273438,518.738281 51.289062,569.753906 114.222656,569.753906 C177.152344,569.753906 228.167969,518.738281 228.167969,455.808594 C228.144531,448.332031 227.371094,440.878906 225.859375,433.558594 L275.644531,383.773438 L297.417969,405.546875 C301.128906,409.253906 307.136719,409.253906 310.847656,405.546875 L315.59375,400.796875 C319.757812,396.660156 326.488281,396.660156 330.652344,400.796875 C334.8125,404.945312 334.820312,411.679688 330.671875,415.839844 C330.667969,415.84375 330.660156,415.851562 330.652344,415.859375 L325.90625,420.605469 C322.199219,424.3125 322.199219,430.324219 325.90625,434.03125 L439.179688,547.304688 C468.972656,577.371094 517.496094,577.589844 547.5625,547.796875 C577.625,518.003906 577.84375,469.476562 548.050781,439.414062 C547.890625,439.25 547.726562,439.085938 547.5625,438.921875 L434.289062,325.652344 C430.582031,321.945312 424.570312,321.945312 420.863281,325.652344 L416.117188,330.398438 C411.949219,334.539062 405.222656,334.539062 401.054688,330.398438 C396.898438,326.25 396.886719,319.515625 401.035156,315.359375 C401.042969,315.351562 401.050781,315.347656 401.054688,315.339844 L405.804688,310.589844 C409.511719,306.882812 409.511719,300.871094 405.804688,297.164062 L384.03125,275.390625 L433.816406,225.605469 C441.136719,227.117188 448.589844,227.890625 456.0625,227.914062 Z M493.371094,550.765625 C486.472656,550.753906 479.632812,549.507812 473.175781,547.082031 L547.335938,472.917969 C558.527344,502.6875 543.46875,535.890625 513.699219,547.082031 C507.203125,549.523438 500.316406,550.773438 493.371094,550.765625 Z M385.796875,303.972656 C375.28125,316.515625 376.929688,335.210938 389.472656,345.722656 C400.496094,354.960938 416.5625,354.953125 427.574219,345.695312 L534.136719,452.351562 C535.292969,453.511719 536.375,454.734375 537.421875,455.976562 L456.234375,537.164062 C454.988281,536.121094 453.765625,535.039062 452.605469,533.878906 L345.960938,427.226562 C356.476562,414.683594 354.828125,395.988281 342.285156,385.476562 C331.261719,376.234375 315.191406,376.246094 304.179688,385.5 L288.988281,370.308594 L370.601562,288.816406 L385.796875,303.972656 Z M424.140625,208.46875 L208.730469,423.835938 C206.367188,426.195312 205.417969,429.621094 206.222656,432.859375 C219.25,484.019531 188.335938,536.054688 137.171875,549.078125 C86.011719,562.105469 33.976562,531.191406 20.949219,480.027344 C7.925781,428.867188 38.839844,376.832031 90.003906,363.804688 C105.480469,359.867188 121.695312,359.867188 137.171875,363.804688 C140.410156,364.597656 143.828125,363.648438 146.195312,361.300781 L361.554688,145.929688 C363.914062,143.570312 364.863281,140.144531 364.050781,136.910156 C351.113281,86.347656 381.613281,34.871094 432.175781,21.929688 C441.730469,19.488281 451.613281,18.550781 461.457031,19.164062 L411.367188,69.273438 C408.824219,71.8125 407.933594,75.574219 409.070312,78.984375 L428.058594,135.960938 C429.007812,138.792969 431.234375,141.019531 434.070312,141.960938 L491.046875,160.953125 C494.453125,162.089844 498.214844,161.203125 500.757812,158.664062 L550.847656,108.574219 C550.960938,110.386719 551.019531,112.179688 551.019531,113.964844 C551.285156,166.140625 509.207031,208.652344 457.03125,208.921875 C448.964844,208.960938 440.925781,207.96875 433.113281,205.96875 C429.875,205.160156 426.449219,206.105469 424.089844,208.464844 L424.140625,208.464844 L424.140625,208.46875 Z" id="Shape"></path>
            <polygon id="Path" points="491.273438 477.578125 477.84375 491.007812 382.890625 396.054688 396.316406 382.625"></polygon>
        </g>
    </g>
</svg>