<svg id="Capa_1" enable-background="new 0 0 512 512" height="512" viewBox="0 0 512 512" width="512" xmlns="http://www.w3.org/2000/svg"><g><path d="m502 492c-11.38 0-18.096-5.597-26.599-12.683-9.74-8.117-20.781-17.317-39.401-17.317h-.59c-20.026 0-39.147-9.594-51.148-25.664-27.442-36.736-70.22-61.114-118.262-64.029v-171.043c22.087 5.301 42.7 25.58 42.929 25.807 1.795 1.795 4.358 2.929 7.071 2.929 2.532 0 5.121-.988 7.063-2.92.271-.27 27.51-27.08 52.937-27.08s52.666 26.81 52.929 27.071c6.255 6.255 17.071 1.868 17.071-7.071 0-30.507-7.406-60.837-21.417-87.713-2.553-4.896-8.59-6.798-13.49-4.244-4.897 2.553-6.798 8.593-4.244 13.49 9.283 17.808 15.224 36.692 17.751 56.375-12.648-8.689-30.364-17.908-48.6-17.908-19.119 0-37.66 10.132-50.394 19.163-1.65-43.903-10.197-109.004-34.23-145.471 21.053 4.453 41.1 12.883 59.186 25.013 4.586 3.076 10.798 1.853 13.875-2.734s1.853-10.799-2.734-13.875c-28.542-19.142-61.44-30.052-95.703-31.832v-20.264c0-5.522-4.478-10-10-10s-10 4.478-10 10v20.263c-100.136 5.218-180 88.325-180 189.737 0 4.04 2.436 7.679 6.166 9.229 3.731 1.549 8.032.7 10.896-2.149.272-.27 27.511-27.08 52.938-27.08s52.666 26.81 52.929 27.071c1.821 1.821 4.4 2.929 7.071 2.929 2.545 0 5.168-1.026 7.071-2.929 6.363-6.364 24.622-21.303 42.929-25.78v171.016c-48.014 2.913-90.801 27.269-118.263 64.03-20.436 27.37-51.454 25.595-51.737 25.663-18.62 0-29.661 9.2-39.401 17.317-8.503 7.086-15.219 12.683-26.599 12.683-5.522 0-10 4.478-10 10s4.478 10 10 10c18.62 0 29.661-9.2 39.401-17.317 8.503-7.086 15.219-12.683 26.599-12.683 10.857 0 15.921 5.063 22.929 12.071 7.988 7.988 17.928 17.929 37.071 17.929s29.083-9.941 37.071-17.929c7.008-7.008 12.072-12.071 22.929-12.071s15.921 5.063 22.929 12.071c7.988 7.988 17.928 17.929 37.071 17.929s29.083-9.941 37.071-17.929c7.008-7.008 12.072-12.071 22.929-12.071s15.921 5.063 22.929 12.071c7.988 7.988 17.928 17.929 37.071 17.929s29.083-9.941 37.071-17.929c7.008-7.008 12.072-12.071 22.929-12.071 11.38 0 18.096 5.597 26.599 12.683 9.74 8.117 20.781 17.317 39.401 17.317 5.522 0 10-4.478 10-10s-4.478-10-10-10zm-315.606-292.837c-12.734-9.031-31.275-19.163-50.394-19.163-18.221 0-35.923 9.204-48.568 17.887 9.345-71.608 63.425-129.356 133.185-144.183-24.046 36.497-32.577 101.641-34.223 145.459zm20.022-.571c3.607-92.609 30.161-148.592 49.584-148.592s45.977 55.983 49.584 148.592c-12.703-8.882-30.867-18.592-49.584-18.592s-36.881 9.71-49.584 18.592zm192.513 281.337c-7.008 7.008-12.072 12.071-22.929 12.071s-15.921-5.063-22.929-12.071c-7.988-7.988-17.928-17.929-37.071-17.929s-29.083 9.941-37.071 17.929c-7.008 7.008-12.072 12.071-22.929 12.071s-15.921-5.063-22.929-12.071c-7.988-7.988-17.928-17.929-37.071-17.929s-29.083 9.941-37.071 17.929c-7.008 7.008-12.072 12.071-22.929 12.071s-15.921-5.063-22.929-12.071c-1.411-1.411-2.884-2.882-4.457-4.349 13.792-5.723 26.036-15.073 35.147-27.275 26.731-35.783 67.641-56.305 112.239-56.305s85.508 20.522 112.237 56.304c9.113 12.202 21.357 21.553 35.149 27.276-1.573 1.467-3.046 2.938-4.457 4.349z"/><circle cx="390" cy="100" r="10"/></g></svg>