<svg id="Capa_1" enable-background="new 0 0 512 512" height="512" viewBox="0 0 512 512" width="512" xmlns="http://www.w3.org/2000/svg"><g><path d="m0 436c0 5.522 4.477 10 10 10h50v46h-20c-5.523 0-10 4.478-10 10s4.477 10 10 10h60c5.523 0 10-4.478 10-10s-4.477-10-10-10h-20v-46h166v46h-20c-5.523 0-10 4.478-10 10s4.477 10 10 10h60c5.522 0 10-4.478 10-10s-4.478-10-10-10h-20v-46h166v46h-20c-5.522 0-10 4.478-10 10s4.478 10 10 10h60c5.522 0 10-4.478 10-10s-4.478-10-10-10h-20v-46h20c22.056 0 40-17.944 40-40s-17.944-40-40-40h-86v-20c0-22.056-17.944-40-40-40h-80v-104.736c15.181 3.643 32.154 15.38 43.065 25.931 3.904 3.762 10.119 3.739 13.997-.115.272-.27 27.511-27.08 52.938-27.08s52.666 26.81 52.929 27.071c2.861 2.861 7.161 3.714 10.898 2.168 3.736-1.548 6.173-5.194 6.173-9.239 0-30.507-7.406-60.837-21.417-87.713-2.553-4.896-8.591-6.797-13.49-4.244-4.897 2.553-6.798 8.593-4.244 13.49 9.283 17.808 15.224 36.692 17.751 56.375-12.648-8.689-30.364-17.908-48.6-17.908-19.119 0-37.66 10.132-50.394 19.163-1.65-43.903-10.198-109.004-34.23-145.471 21.053 4.453 41.1 12.883 59.185 25.013 4.586 3.075 10.799 1.853 13.875-2.734 3.077-4.587 1.853-10.799-2.734-13.875-28.541-19.142-61.439-30.052-95.702-31.832v-20.264c0-5.522-4.478-10-10-10s-10 4.478-10 10v20.263c-100.136 5.218-180 88.325-180 189.737 0 4.04 2.436 7.679 6.166 9.229 3.731 1.549 8.032.7 10.896-2.149.272-.27 27.512-27.08 52.938-27.08s52.666 26.81 52.929 27.071c3.825 3.825 10.192 3.951 14.143 0 6.363-6.364 24.622-21.303 42.929-25.78v104.709h-159.326l-18.003-18.07c-7.581-7.582-18.031-11.93-28.672-11.93-22.056 0-40 17.944-40 40 0 10.641 4.348 21.091 11.929 28.671l81.328 81.329h-83.257c-5.523 0-10 4.478-10 10zm346-110c11.028 0 20 8.972 20 20v20h-100v-40zm-159.606-126.837c-12.734-9.031-31.275-19.163-50.394-19.163-18.22 0-35.923 9.204-48.568 17.887 9.345-71.608 63.425-129.356 133.185-144.183-24.047 36.498-32.577 101.641-34.223 145.459zm20.022-.571c3.607-92.609 30.16-148.592 49.584-148.592 19.423 0 45.977 55.983 49.584 148.592-12.703-8.882-30.867-18.592-49.584-18.592s-36.881 9.71-49.584 18.592zm39.584 127.408v40h-99.547l-39.852-40zm-219.929 4.528c-3.801-3.8-6.071-9.232-6.071-14.528 0-11.028 8.972-20 20-20 5.296 0 10.728 2.27 14.516 6.058 6.948 6.974 71.653 71.919 80.7 81 1.876 1.884 4.425 2.942 7.084 2.942h329.7c11.028 0 20 8.972 20 20s-8.972 20-20 20c-18.343 0-330.695 0-350.458 0z"/><circle cx="390" cy="100" r="10"/></g></svg>