<svg width="302" height="63" viewBox="0 0 302 63" xmlns="http://www.w3.org/2000/svg"><g fill-rule="nonzero" fill="none"><path d="M13.13 39.62V22.97H0v16.64a16.41 16.41 0 008.21 14.21l14.76 8.53V47.2l-8.2-4.74a3.28 3.28 0 01-1.64-2.84" fill="#C79B65"/><path d="M22.97 55.79l14.77-8.52a16.41 16.41 0 008.2-14.21V0h-23v13.13h9.84v19.93a3.28 3.28 0 01-1.64 2.84l-8.2 4.74.03 15.15z" fill="#E44E34"/><path fill="#FFF" d="M22.97 0L0 22.97h22.97z"/><g fill="#FFF"><path d="M87.512 50.696a.899.899 0 01-.176-.016.899.899 0 00-.176-.016c-.128 0-.432.128-.912.384-.48.256-1.088.544-1.824.864a16.12 16.12 0 01-2.512.832c-.939.235-1.92.352-2.944.352-1.344 0-2.635-.17-3.872-.512-1.237-.341-2.33-.87-3.28-1.584a7.81 7.81 0 01-2.256-2.672c-.555-1.067-.832-2.315-.832-3.744 0-1.408.277-2.65.832-3.728a7.92 7.92 0 012.256-2.704c.95-.725 2.043-1.27 3.28-1.632a13.695 13.695 0 013.872-.544c1.088 0 2.075.085 2.96.256.885.17 1.659.352 2.32.544.661.192 1.184.373 1.568.544.384.17.619.256.704.256.107 0 .197-.053.272-.16.075-.107.133-.192.176-.256l.48.384-2.496 3.872-.32-.224c0-.064-.005-.128-.016-.192a2.92 2.92 0 00-.048-.224c-.043-.235-.256-.475-.64-.72a6.584 6.584 0 00-1.424-.656 14.646 14.646 0 00-1.792-.48 8.794 8.794 0 00-1.744-.192c-.896 0-1.755.128-2.576.384a6.411 6.411 0 00-2.144 1.12 5.48 5.48 0 00-1.456 1.808c-.363.715-.544 1.53-.544 2.448 0 .917.181 1.733.544 2.448a5.48 5.48 0 001.456 1.808c.608.49 1.323.864 2.144 1.12.821.256 1.68.384 2.576.384.683 0 1.397-.08 2.144-.24.747-.16 1.43-.363 2.048-.608.619-.245 1.136-.523 1.552-.832.416-.31.624-.603.624-.88a.596.596 0 00-.128-.384l.448-.256 2.112 3.392-.256.256zm14.176 1.728a.555.555 0 00.32-.112c.107-.075.16-.197.16-.368V41.288h-4.16c-.17 0-.33.043-.48.128-.15.085-.224.224-.224.416h-.576v-3.68h.576c0 .299.075.501.224.608.15.107.31.16.48.16H109.4a.81.81 0 00.48-.16c.15-.107.224-.31.224-.608h.576v3.68h-.576c0-.192-.075-.33-.224-.416a.952.952 0 00-.48-.128h-4.16v10.656c0 .32.192.48.576.48V53h-4.128v-.576zm26.784-5.312l-2.592-5.376-2.272 5.376h4.864zm-10.688 5.312a.973.973 0 00.624-.368c.16-.203.283-.39.368-.56l4.768-10.4c.128-.299.23-.539.304-.72.075-.181.112-.357.112-.528 0-.128-.027-.208-.08-.24a4.421 4.421 0 01-.176-.112v-.576h4.832v.576a.738.738 0 01-.208.096c-.075.021-.112.107-.112.256 0 .128.048.283.144.464.096.181.197.39.304.624l5.184 10.88c.107.192.224.33.352.416.128.085.267.15.416.192V53h-4.544v-.48a.703.703 0 00.336-.096c.117-.064.176-.181.176-.352a.94.94 0 00-.064-.352 21.34 21.34 0 01-.16-.416l-.864-1.824h-6.848l-.896 1.728c-.085.17-.155.325-.208.464-.053.139-.08.261-.08.368 0 .17.053.277.16.32.107.043.256.064.448.064V53h-4.288v-.576zm28.896 0a.555.555 0 00.32-.112c.107-.075.16-.197.16-.368V41.288H143c-.17 0-.33.043-.48.128-.15.085-.224.224-.224.416h-.576v-3.68h.576c0 .299.075.501.224.608.15.107.31.16.48.16h11.392a.81.81 0 00.48-.16c.15-.107.224-.31.224-.608h.576v3.68h-.576c0-.192-.075-.33-.224-.416a.952.952 0 00-.48-.128h-4.16v10.656c0 .32.192.48.576.48V53h-4.128v-.576zm33.76-.48c0 .32.192.48.576.48V53h-3.936v-.576c.448 0 .672-.16.672-.48v-9.632l-7.936 8.768c-.256.277-.485.523-.688.736-.203.213-.304.363-.304.448 0 .107.075.16.224.16V53h-4.16v-.576c.384 0 .576-.16.576-.48V39.976c0-.32-.192-.48-.576-.48v-.576h3.904v.576c-.427 0-.64.16-.64.48v8.992l7.68-8.448c.47-.533.704-.821.704-.864 0-.085-.075-.139-.224-.16v-.576h4.704v.576c-.384 0-.576.16-.576.48v11.968zm22.528-8.992a.526.526 0 00-.016-.128.673.673 0 01-.016-.16c0-.107-.107-.25-.32-.432-.213-.181-.517-.357-.912-.528a7.683 7.683 0 00-1.392-.432 8.199 8.199 0 00-1.76-.176c-.768 0-1.467.101-2.096.304a4.688 4.688 0 00-1.648.912c-.47.405-.832.907-1.088 1.504-.256.597-.384 1.28-.384 2.048s.144 1.456.432 2.064c.288.608.667 1.13 1.136 1.568.47.437 1.003.768 1.6.992a5.157 5.157 0 001.824.336 7.24 7.24 0 001.76-.224c.597-.15 1.141-.325 1.632-.528.49-.203.89-.421 1.2-.656.31-.235.464-.448.464-.64v-.256c0-.128-.01-.235-.032-.32l.352-.32 2.368 3.392-.32.16c-.256-.107-.437-.16-.544-.16-.17 0-.448.096-.832.288-.384.192-.87.41-1.456.656a11.98 11.98 0 01-2.048.624c-.779.17-1.648.256-2.608.256-.981 0-1.952-.139-2.912-.416a7.15 7.15 0 01-2.56-1.328 7.091 7.091 0 01-1.824-2.272c-.47-.907-.704-1.957-.704-3.152s.235-2.24.704-3.136a6.955 6.955 0 011.856-2.256 7.855 7.855 0 012.64-1.36c.992-.299 2.01-.448 3.056-.448.81 0 1.552.075 2.224.224.672.15 1.264.32 1.776.512s.939.363 1.28.512c.341.15.587.224.736.224a.404.404 0 00.272-.096c.075-.064.155-.117.24-.16l.384.224-2.112 3.04-.352-.256zm15.648 9.472a.555.555 0 00.32-.112c.107-.075.16-.197.16-.368V41.288h-4.16c-.17 0-.33.043-.48.128-.15.085-.224.224-.224.416h-.576v-3.68h.576c0 .299.075.501.224.608.15.107.31.16.48.16h11.392a.81.81 0 00.48-.16c.15-.107.224-.31.224-.608h.576v3.68h-.576c0-.192-.075-.33-.224-.416a.952.952 0 00-.48-.128h-4.16v10.656c0 .32.192.48.576.48V53h-4.128v-.576zm33.76-.48c0 .32.192.48.576.48V53h-3.936v-.576c.448 0 .672-.16.672-.48v-9.632l-7.936 8.768c-.256.277-.485.523-.688.736-.203.213-.304.363-.304.448 0 .107.075.16.224.16V53h-4.16v-.576c.384 0 .576-.16.576-.48V39.976c0-.32-.192-.48-.576-.48v-.576h3.904v.576c-.427 0-.64.16-.64.48v8.992l7.68-8.448c.47-.533.704-.821.704-.864 0-.085-.075-.139-.224-.16v-.576h4.704v.576c-.384 0-.576.16-.576.48v11.968zm14.752 0c0 .32.203.48.608.48V53h-4.192v-.576c.341 0 .512-.16.512-.48V39.976c0-.32-.17-.48-.512-.48v-.576h4.192v.576c-.405 0-.608.16-.608.48v5.216c.725-.597 1.472-1.2 2.24-1.808.768-.608 1.461-1.168 2.08-1.68s1.13-.944 1.536-1.296c.405-.352.608-.57.608-.656 0-.107-.059-.192-.176-.256a.703.703 0 00-.336-.096v-.48h5.28v.576c-.256.085-.64.33-1.152.736l-5.344 4.32 5.056 6.272c.256.32.533.645.832.976.299.33.597.539.896.624V53h-4.736v-.576c.235 0 .352-.064.352-.192 0-.085-.048-.203-.144-.352a7.25 7.25 0 00-.56-.704l-3.936-4.8-2.496 1.984v3.584zm28.608-4.832l-2.592-5.376-2.272 5.376h4.864zm-10.688 5.312a.973.973 0 00.624-.368c.16-.203.283-.39.368-.56l4.768-10.4c.128-.299.23-.539.304-.72.075-.181.112-.357.112-.528 0-.128-.027-.208-.08-.24a4.421 4.421 0 01-.176-.112v-.576h4.832v.576a.738.738 0 01-.208.096c-.075.021-.112.107-.112.256 0 .128.048.283.144.464.096.181.197.39.304.624l5.184 10.88c.107.192.224.33.352.416.128.085.267.15.416.192V53h-4.544v-.48a.703.703 0 00.336-.096c.117-.064.176-.181.176-.352a.94.94 0 00-.064-.352 21.337 21.337 0 01-.16-.416l-.864-1.824h-6.848l-.896 1.728c-.085.17-.155.325-.208.464-.053.139-.08.261-.08.368 0 .17.053.277.16.32.107.043.256.064.448.064V53h-4.288v-.576zM164.03 19.1a5.63 5.63 0 10-5.51-5.58 5.38 5.38 0 005.51 5.58zm0-14.27a8.64 8.64 0 11-8.76 8.69 8.45 8.45 0 018.76-8.69zm74.01 2.73c3 0 4.5 1.92 4.76 4.44h-9.47c.47-2.6 2.27-4.44 4.71-4.44zm7.77 7c0-.33.05-.67.05-1 0-5-2.58-8.69-8-8.69-4.62 0-8 3.7-8 8.69 0 .35 0 .69.05 1 .37 4.28 3.11 7.58 8.85 7.58a10.69 10.69 0 006.82-2.23l-1.29-2.36a9.2 9.2 0 01-5.44 1.82c-3.58 0-5.31-1.95-5.63-4.81h12.59zM260.17 5.27v6.72h-8.78V5.27h-3.27v16.41h3.27v-7.14h8.78v7.14h3.27V5.27h-3.27zm20.48 0h-14.96v2.91h5.85v13.5h3.26V8.18h5.85V5.27zm17.54 0h3.27v16.41h-3.27V5.27zM182.23 13.05v-.14a1.48 1.48 0 00.58-.41l6.26-7.22h-3.67l-5.76 6.73h-1.3V5.28h-3.27v16.41h3.27v-7.14h1.48l6.22 7.14h4.07l-7.27-8.21a1.51 1.51 0 00-.6-.43h-.01zm105.88 6.16c-1 0-1.94-.08-1.94-.08v-5.92a8.35 8.35 0 012-.19c2.74 0 3.94 1.06 3.94 3s-1.08 3.16-4 3.16v.03zm.58-8.96a14.63 14.63 0 00-2.52.19V5.23h-3.27v16.42s2.68.26 5.46.26c5.13 0 6.82-3.13 6.82-6s-1.51-5.65-6.49-5.65v-.01zM145.22 19.1c-3.3 0-5-2.41-5-5.58s1.93-5.68 5.23-5.68a4.55 4.55 0 014.27 4.67v4.53a5.67 5.67 0 01-4.53 2.06h.03zm4.63-13.83l-.09 2.07h-.21a6.17 6.17 0 00-4.75-2.51c-4.79 0-7.63 3.7-7.75 8.69-.12 4.99 2.77 8.6 7.55 8.6 1.9.13 3.74-.7 4.9-2.21h.21v1.44c0 3.18-2.2 4.43-4.68 4.43a10 10 0 01-5.16-1.52l-1.07 2.71a12.21 12.21 0 006.22 1.7c4.59 0 8-2.74 8-8V5.27h-3.17zm53.2 0v11.9a5.3 5.3 0 01-4.29 1.94c-3 0-4.37-2.41-4.3-5.58V5.28h-3.17v8.25c-.11 4.92 1.86 8.6 6.64 8.6a5.63 5.63 0 004.9-2.21h.21v1.43c0 3.18-2.2 4.43-4.69 4.43a10 10 0 01-5.15-1.52l-1.07 2.71a12.21 12.21 0 006.22 1.7c4.59 0 8-2.74 8-8V5.27h-3.3zm21.48 0l-5.56 7.82a1.46 1.46 0 00-.21.44h-.12a1.59 1.59 0 00-.24-.44l-6-7.82h-3.08v16.41h3.27V11.21a3.57 3.57 0 00-.15-1.14h.15l6 8.08h.14l5.58-8.08h.22a3.7 3.7 0 00-.15 1.13v10.47h3.27V5.27h-3.12zM109.42 21.68V5.27h5.51v7.64a7.62 7.62 0 01-.12 1.19h.24l6-8.83h5.27v16.41h-5.51v-7.71a5.52 5.52 0 01.12-1.07h-.24l-6 8.78h-5.27zM98 17a3.54 3.54 0 000-7.06A3.54 3.54 0 0098 17zm0-12.17c5.24 0 9.14 3.7 9.14 8.67s-3.91 8.62-9.14 8.62-9.09-3.71-9.09-8.62c0-4.91 3.91-8.67 9.09-8.67zm-15.7.44s-4.6 6-4.78 6.21a1 1 0 00-.25.43h-.24a1.4 1.4 0 00-.26-.43l-5.09-6.2h-4.34v16.41h5.31V14.8c.007-.4-.034-.8-.12-1.19h.24l4.27 4.9h.23l4-4.9h.24a5.08 5.08 0 00-.12 1.19v6.89h5.31V5.27h-4.4z"/></g></g></svg>