<?xml version="1.0" encoding="UTF-8"?>
<svg width="24px" height="18px" viewBox="0 0 24 18" version="1.1" xmlns="http://www.w3.org/2000/svg" xmlns:xlink="http://www.w3.org/1999/xlink">
    <!-- Generator: Sketch 53.2 (72643) - https://sketchapp.com -->
    <title>arrow-left</title>
    <desc>Created with Sketch.</desc>
    <g id="Page-1" stroke="none" stroke-width="1" fill="none" fill-rule="evenodd">
        <path d="M22.8408103,7.78376998 L4.25062594,7.78376998 L10.0927498,2.07620551 C10.578971,1.60119946 10.578971,0.83118761 10.0927498,0.356181562 C9.60642906,-0.118727187 8.81823682,-0.118727187 8.33211522,0.356181562 L0.36474059,8.13997586 C-0.121580197,8.61498191 -0.121580197,9.38499376 0.36474059,9.85999981 L8.33231441,17.6437941 C8.57522582,17.8811025 8.89402837,18 9.21263172,18 C9.53123508,18 9.84973885,17.8811025 10.092949,17.6437941 C10.5791702,17.1687881 10.5791702,16.3987762 10.092949,15.9237702 L4.25062594,10.2162057 L22.8408103,10.2162057 C23.5283123,10.2162057 24,9.67153469 24,8.99998784 C24,8.32834369 23.5283123,7.78376998 22.8408103,7.78376998 Z" id="arrow-left" fill="#000000" fill-rule="nonzero"></path>
    </g>
</svg>