<?xml version="1.0" encoding="UTF-8"?>
<svg width="50px" height="48px" viewBox="0 0 50 48" version="1.1" xmlns="http://www.w3.org/2000/svg" xmlns:xlink="http://www.w3.org/1999/xlink">
    <!-- Generator: Sketch 53.2 (72643) - https://sketchapp.com -->
    <title>billboard-type</title>
    <desc>Created with Sketch.</desc>
    <g id="Page-1" stroke="none" stroke-width="1" fill="none" fill-rule="evenodd">
        <g id="billboard-type" fill="#000000" fill-rule="nonzero">
            <path d="M48.8687783,0.0370704225 L1.13122172,0.0370704225 C0.506447964,0.0370704225 0,0.541633803 0,1.16383099 L0,23.715831 C0,24.3380282 0.506447964,24.8425915 1.13122172,24.8425915 L48.8687783,24.8425915 C49.493552,24.8425915 50,24.3380282 50,23.715831 L50,1.16383099 C50,0.541521127 49.493552,0.0370704225 48.8687783,0.0370704225 Z M47.7375566,22.5890704 L2.26244344,22.5890704 L2.26244344,2.29059155 L47.7375566,2.29059155 L47.7375566,22.5890704 Z" id="Shape"></path>
            <path d="M48.8687783,26.2164507 C48.2440045,26.2164507 47.7375566,26.7210141 47.7375566,27.3432113 L47.7375566,28.2228732 L40.4524887,28.2228732 L40.4524887,27.3432113 C40.4524887,26.7210141 39.9460407,26.2164507 39.321267,26.2164507 C38.6964932,26.2164507 38.1900452,26.7210141 38.1900452,27.3432113 L38.1900452,28.2228732 L30.9049774,28.2228732 L30.9049774,27.3432113 C30.9049774,26.7210141 30.3985294,26.2164507 29.7737557,26.2164507 C29.1489819,26.2164507 28.6425339,26.7210141 28.6425339,27.3432113 L28.6425339,28.2228732 L21.3574661,28.2228732 L21.3574661,27.3432113 C21.3574661,26.7210141 20.8510181,26.2164507 20.2262443,26.2164507 C19.6014706,26.2164507 19.0950226,26.7210141 19.0950226,27.3432113 L19.0950226,28.2228732 L11.8099548,28.2228732 L11.8099548,27.3432113 C11.8099548,26.7210141 11.3035068,26.2164507 10.678733,26.2164507 C10.0539593,26.2164507 9.54751131,26.7210141 9.54751131,27.3432113 L9.54751131,28.2228732 L2.26244344,28.2228732 L2.26244344,27.3432113 C2.26244344,26.7210141 1.75599548,26.2164507 1.13122172,26.2164507 C0.506447964,26.2164507 0,26.7210141 0,27.3432113 L0,29.3496338 C0,29.971831 0.506447964,30.4763944 1.13122172,30.4763944 L21.040724,30.4763944 L21.040724,46.836169 C21.040724,47.4583662 21.5471719,47.9629296 22.1719457,47.9629296 C22.7967195,47.9629296 23.3031674,47.4583662 23.3031674,46.836169 L23.3031674,30.4763944 L26.6968326,30.4763944 L26.6968326,46.836169 C26.6968326,47.4583662 27.2032805,47.9629296 27.8280543,47.9629296 C28.4528281,47.9629296 28.959276,47.4583662 28.959276,46.836169 L28.959276,30.4763944 L48.8687783,30.4763944 C49.493552,30.4763944 50,29.971831 50,29.3496338 L50,27.3432113 C50,26.7210141 49.493552,26.2164507 48.8687783,26.2164507 Z" id="Path"></path>
        </g>
    </g>
</svg>