<?xml version="1.0" encoding="iso-8859-1"?>
<!-- Generator: Adobe Illustrator 19.0.0, SVG Export Plug-In . SVG Version: 6.00 Build 0)  -->
<svg version="1.1" id="Capa_1" xmlns="http://www.w3.org/2000/svg" xmlns:xlink="http://www.w3.org/1999/xlink" x="0px" y="0px"
	 viewBox="0 0 508 508" style="enable-background:new 0 0 508 508;" xml:space="preserve">
<g>
	<g>
		<path d="M254,64.8c-58,0-105.2,47.2-105.2,105.2S196,275.2,254,275.2S359.2,228,359.2,170S312,64.8,254,64.8z M254,259
			c-49.1,0-89-39.9-89-89s39.9-89,89-89c49.1,0,89,39.9,89,89S303.1,259,254,259z"/>
	</g>
</g>
<g>
	<g>
		<path d="M254,0C160.3,0,84,76.3,84,170c0,90.9,156.7,318.7,163.3,328.4l6.7,9.6l6.7-9.6C267.3,488.7,424,260.9,424,170
			C424,76.3,347.7,0,254,0z M254,479.3C223.7,434.2,100.2,245.7,100.2,170c0-84.8,69-153.8,153.8-153.8s153.8,69,153.8,153.8
			C407.8,245.7,284.3,434.2,254,479.3z"/>
	</g>
</g>
<g>
</g>
<g>
</g>
<g>
</g>
<g>
</g>
<g>
</g>
<g>
</g>
<g>
</g>
<g>
</g>
<g>
</g>
<g>
</g>
<g>
</g>
<g>
</g>
<g>
</g>
<g>
</g>
<g>
</g>
</svg>
