<?xml version="1.0" encoding="UTF-8"?>
<svg width="50px" height="35px" viewBox="0 0 50 35" version="1.1" xmlns="http://www.w3.org/2000/svg" xmlns:xlink="http://www.w3.org/1999/xlink">
    <!-- Generator: Sketch 53.2 (72643) - https://sketchapp.com -->
    <title>billboard-format</title>
    <desc>Created with Sketch.</desc>
    <g id="Page-1" stroke="none" stroke-width="1" fill="none" fill-rule="evenodd">
        <g id="billboard-format" fill="#000000" fill-rule="nonzero">
            <path d="M49.1666667,0 L0.833333333,0 C0.373125,0 0,0.373125 0,0.833333333 L0,34.1666667 C0,34.626875 0.373125,35 0.833333333,35 L49.1666667,35 C49.626875,35 50,34.626875 50,34.1666667 L50,0.833333333 C50,0.373125 49.626875,0 49.1666667,0 Z M48.3333333,33.3333333 L1.66666667,33.3333333 L1.66666667,1.66666667 L48.3333333,1.66666667 L48.3333333,33.3333333 Z" id="Shape"></path>
            <path d="M8.33333333,8.33333333 L15,8.33333333 L15,3.33333333 L3.33333333,3.33333333 L3.33333333,15 L8.33333333,15 L8.33333333,8.33333333 Z M6.66666667,13.3333333 L5,13.3333333 L5,5 L13.3333333,5 L13.3333333,6.66666667 L6.66666667,6.66666667 L6.66666667,13.3333333 Z" id="Shape"></path>
            <path d="M46.6666667,20 L41.6666667,20 L41.6666667,26.6666667 L35,26.6666667 L35,31.6666667 L46.6666667,31.6666667 L46.6666667,20 Z M45,30 L36.6666667,30 L36.6666667,28.3333333 L43.3333333,28.3333333 L43.3333333,21.6666667 L45,21.6666667 L45,30 Z" id="Shape"></path>
        </g>
    </g>
</svg>