<?xml version="1.0" encoding="UTF-8"?>
<svg width="56px" height="46px" viewBox="0 0 56 46" version="1.1" xmlns="http://www.w3.org/2000/svg" xmlns:xlink="http://www.w3.org/1999/xlink">
    <!-- Generator: Sketch 53.2 (72643) - https://sketchapp.com -->
    <title>Group</title>
    <desc>Created with Sketch.</desc>
    <g id="Page-1" stroke="none" stroke-width="1" fill="none" fill-rule="evenodd">
        <g id="Group" transform="translate(0.683594, 0.916992)" fill="#000000" fill-rule="nonzero">
            <path d="M3.26757812,9.14648438 L3.26757812,2.92578125 C2.11002025,3.81445757 1.33073117,4.25878906 0.9296875,4.25878906 C0.738280293,4.25878906 0.568522876,4.18245519 0.420410156,4.02978516 C0.272297437,3.87711512 0.198242188,3.70052184 0.198242188,3.5 C0.198242188,3.26757696 0.271158125,3.09668023 0.416992188,2.98730469 C0.56282625,2.87792914 0.820310654,2.73665451 1.18945312,2.56347656 C1.74088817,2.30370964 2.18180173,2.03027487 2.51220703,1.74316406 C2.84261233,1.45605325 3.13541539,1.1347674 3.390625,0.779296875 C3.64583461,0.423826348 3.81217409,0.205078535 3.88964844,0.123046875 C3.96712278,0.0410152148 4.11295466,0 4.32714844,0 C4.5686861,0 4.76236906,0.0934235449 4.90820312,0.280273438 C5.05403719,0.46712333 5.12695312,0.724607734 5.12695312,1.05273438 L5.12695312,8.87988281 C5.12695312,9.79590302 4.81478177,10.2539062 4.19042969,10.2539062 C3.91243351,10.2539062 3.68912845,10.1604827 3.52050781,9.97363281 C3.35188718,9.78678292 3.26757812,9.51106953 3.26757812,9.14648438 Z" id="1"></path>
            <path d="M2.44042969,25.4697266 L6.00878906,25.4697266 C6.36425959,25.4697266 6.63541573,25.5426425 6.82226562,25.6884766 C7.00911552,25.8343106 7.10253906,26.0325508 7.10253906,26.2832031 C7.10253906,26.5065115 7.02848381,26.6956372 6.88037109,26.8505859 C6.73225837,27.0055346 6.507814,27.0830078 6.20703125,27.0830078 L1.17578125,27.0830078 C0.833982666,27.0830078 0.56738377,26.988445 0.375976562,26.7993164 C0.184569355,26.6101879 0.0888671875,26.3880221 0.0888671875,26.1328125 C0.0888671875,25.9687492 0.15039001,25.7511407 0.2734375,25.4799805 C0.39648499,25.2088203 0.53092375,24.995769 0.676757812,24.8408203 C1.28288063,24.2119109 1.82975017,23.6730166 2.31738281,23.2241211 C2.80501546,22.7752256 3.15364479,22.4801439 3.36328125,22.3388672 C3.73698104,22.0745429 4.04801308,21.8090834 4.29638672,21.5424805 C4.54476036,21.2758776 4.73388607,21.0024428 4.86376953,20.722168 C4.99365299,20.4418931 5.05859375,20.1673191 5.05859375,19.8984375 C5.05859375,19.6067694 4.98909575,19.345867 4.85009766,19.1157227 C4.71109957,18.8855783 4.52197385,18.7067064 4.28271484,18.5791016 C4.04345583,18.4514968 3.7825535,18.3876953 3.5,18.3876953 C2.90299181,18.3876953 2.43359546,18.649737 2.09179688,19.1738281 C2.04622373,19.2421878 1.96988986,19.4290349 1.86279297,19.734375 C1.75569608,20.0397151 1.63492906,20.2744132 1.50048828,20.4384766 C1.3660475,20.6025399 1.16894661,20.6845703 0.909179688,20.6845703 C0.681313965,20.6845703 0.492188252,20.6093758 0.341796875,20.4589844 C0.191405498,20.308593 0.116210938,20.1035169 0.116210938,19.84375 C0.116210938,19.5292953 0.186848252,19.2011736 0.328125,18.859375 C0.469401748,18.5175764 0.68017438,18.2076837 0.960449219,17.9296875 C1.24072406,17.6516913 1.59618925,17.4272469 2.02685547,17.2563477 C2.45752168,17.0854484 2.96223669,17 3.54101562,17 C4.23828474,17 4.83300535,17.1093739 5.32519531,17.328125 C5.64420732,17.4739591 5.92447796,17.6744779 6.16601562,17.9296875 C6.40755329,18.1848971 6.59553969,18.4799788 6.72998047,18.8149414 C6.86442125,19.149904 6.93164062,19.497394 6.93164062,19.8574219 C6.93164062,20.4225289 6.79150531,20.9363584 6.51123047,21.3989258 C6.23095563,21.8614932 5.94498844,22.2237943 5.65332031,22.4858398 C5.36165219,22.7478854 4.87288754,23.1591769 4.18701172,23.7197266 C3.50113589,24.2802762 3.03060023,24.7154932 2.77539062,25.0253906 C2.66601508,25.1484381 2.55436255,25.2965486 2.44042969,25.4697266 Z" id="2"></path>
            <path d="M3.15136719,38.0332031 C3.57064012,38.0332031 3.93180187,37.9101575 4.23486328,37.6640625 C4.53792469,37.4179675 4.68945312,37.0647809 4.68945312,36.6044922 C4.68945312,36.253579 4.5686861,35.9516614 4.32714844,35.6987305 C4.08561077,35.4457995 3.75976768,35.3193359 3.34960938,35.3193359 C3.07161319,35.3193359 2.84261158,35.3580725 2.66259766,35.4355469 C2.48258374,35.5130212 2.34016979,35.6155593 2.23535156,35.7431641 C2.13053333,35.8707689 2.03141323,36.0348297 1.93798828,36.2353516 C1.84456333,36.4358734 1.75911497,36.6249991 1.68164062,36.8027344 C1.63606748,36.898438 1.55403705,36.9736325 1.43554688,37.0283203 C1.3170567,37.0830081 1.18033932,37.1103516 1.02539062,37.1103516 C0.843098047,37.1103516 0.675619253,37.0362963 0.522949219,36.8881836 C0.370279185,36.7400709 0.293945312,36.54297 0.293945312,36.296875 C0.293945312,36.0598946 0.365721938,35.8103854 0.509277344,35.5483398 C0.652832749,35.2862943 0.862466069,35.036785 1.13818359,34.7998047 C1.41390112,34.5628243 1.75683389,34.3725593 2.16699219,34.2290039 C2.57715049,34.0854485 3.03515372,34.0136719 3.54101562,34.0136719 C3.98307513,34.0136719 4.38639141,34.0740554 4.75097656,34.1948242 C5.11556172,34.3155931 5.43229032,34.4899077 5.70117188,34.7177734 C5.97005343,34.9456392 6.17285088,35.2099594 6.30957031,35.5107422 C6.44628975,35.8115249 6.51464844,36.1350894 6.51464844,36.4814453 C6.51464844,36.9371768 6.41552833,37.3279606 6.21728516,37.6538086 C6.01904198,37.9796566 5.73535341,38.2975245 5.36621094,38.6074219 C5.72168146,38.7988291 6.0213204,39.0175769 6.26513672,39.2636719 C6.50895304,39.5097669 6.6923822,39.7820623 6.81542969,40.0805664 C6.93847718,40.3790705 7,40.7014957 7,41.0478516 C7,41.4625672 6.91683026,41.8636048 6.75048828,42.2509766 C6.5841463,42.6383483 6.33919433,42.9835597 6.015625,43.2866211 C5.69205567,43.5896825 5.30810769,43.8266593 4.86376953,43.9975586 C4.41943137,44.1684579 3.92838811,44.2539062 3.390625,44.2539062 C2.84374727,44.2539062 2.35384331,44.1559255 1.92089844,43.9599609 C1.48795356,43.7639964 1.13134906,43.5190444 0.851074219,43.2250977 C0.57079938,42.9311509 0.358887437,42.6269547 0.215332031,42.3125 C0.071776626,41.9980453 0,41.7382823 0,41.5332031 C0,41.2688789 0.0854483643,41.0558276 0.256347656,40.894043 C0.427246948,40.7322583 0.640298203,40.6513672 0.895507812,40.6513672 C1.02311262,40.6513672 1.14615826,40.6889645 1.26464844,40.7641602 C1.38313861,40.8393558 1.4606118,40.9293615 1.49707031,41.0341797 C1.73405066,41.6676464 1.98811713,42.1381821 2.25927734,42.4458008 C2.53043755,42.7534195 2.91210691,42.9072266 3.40429688,42.9072266 C3.68685037,42.9072266 3.95914583,42.8377286 4.22119141,42.6987305 C4.48323699,42.5597324 4.69970618,42.353517 4.87060547,42.0800781 C5.04150476,41.8066393 5.12695312,41.4899107 5.12695312,41.1298828 C5.12695312,40.596677 4.98112125,40.1785497 4.68945312,39.8754883 C4.397785,39.5724269 3.9921901,39.4208984 3.47265625,39.4208984 C3.38150996,39.4208984 3.24023533,39.4300129 3.04882812,39.4482422 C2.85742092,39.4664714 2.73437527,39.4755859 2.6796875,39.4755859 C2.42903521,39.4755859 2.23535225,39.4129238 2.09863281,39.2875977 C1.96191338,39.1622715 1.89355469,38.9879568 1.89355469,38.7646484 C1.89355469,38.5458973 1.97558512,38.3693041 2.13964844,38.2348633 C2.30371176,38.1004225 2.54752442,38.0332031 2.87109375,38.0332031 L3.15136719,38.0332031 Z" id="3"></path>
            <path d="M14.5825228,6.58300781 C13.8832659,6.58300781 13.3164062,6.02336375 13.3164062,5.33300781 C13.3164062,4.64265188 13.8832659,4.08300781 14.5825228,4.08300781 L54.0502897,4.08300781 C54.7495466,4.08300781 55.3164062,4.64265188 55.3164062,5.33300781 C55.3164062,6.02336375 54.7495466,6.58300781 54.0502897,6.58300781 L14.5825228,6.58300781 Z" id="Path"></path>
            <path d="M14.5825228,23.5830078 C13.8832659,23.5830078 13.3164062,23.0233637 13.3164062,22.3330078 C13.3164062,21.6426519 13.8832659,21.0830078 14.5825228,21.0830078 L54.0502897,21.0830078 C54.7495466,21.0830078 55.3164062,21.6426519 55.3164062,22.3330078 C55.3164062,23.0233637 54.7495466,23.5830078 54.0502897,23.5830078 L14.5825228,23.5830078 Z" id="Path"></path>
            <path d="M14.5825228,40.5830078 C13.8832659,40.5830078 13.3164062,40.0233637 13.3164062,39.3330078 C13.3164062,38.6426519 13.8832659,38.0830078 14.5825228,38.0830078 L54.0502897,38.0830078 C54.7495466,38.0830078 55.3164062,38.6426519 55.3164062,39.3330078 C55.3164062,40.0233637 54.7495466,40.5830078 54.0502897,40.5830078 L14.5825228,40.5830078 Z" id="Path"></path>
        </g>
    </g>
</svg>