<?xml version="1.0" encoding="UTF-8"?>
<svg width="50px" height="50px" viewBox="0 0 50 50" version="1.1" xmlns="http://www.w3.org/2000/svg" xmlns:xlink="http://www.w3.org/1999/xlink">
    <!-- Generator: Sketch 53.2 (72643) - https://sketchapp.com -->
    <title>edit</title>
    <desc>Created with Sketch.</desc>
    <g id="Page-1" stroke="none" stroke-width="1" fill="none" fill-rule="evenodd">
        <g id="edit" fill="#000000" fill-rule="nonzero">
            <path d="M46.0932642,31.371582 C45.4062694,31.371582 44.8494831,31.9311524 44.8494831,32.621582 L44.8494831,43.7202149 C44.8470537,45.7905274 43.1781522,47.4682618 41.1181398,47.4702149 L6.21890547,47.4702149 C4.15889303,47.4682618 2.48999142,45.7905274 2.48756219,43.7202149 L2.48756219,11.1464844 C2.48999142,9.07666013 4.15889303,7.39892575 6.21890547,7.39648438 L17.2623211,7.39648438 C17.9493159,7.39648438 18.5061022,6.836914 18.5061022,6.14648438 C18.5061022,5.456543 17.9493159,4.89648438 17.2623211,4.89648438 L6.21890547,4.89648438 C2.78587537,4.90039062 0.00388681592,7.696289 0,11.1464844 L0,43.7207031 C0.00388681592,47.1708985 2.78587537,49.9667969 6.21890547,49.9707031 L41.1181398,49.9707031 C44.5511699,49.9667969 47.3331585,47.1708985 47.3370453,43.7207031 L47.3370453,32.621582 C47.3370453,31.9311524 46.7802588,31.371582 46.0932642,31.371582 Z" id="Path"></path>
            <path d="M46.8443913,1.68017575 C44.6585433,-0.5166015 41.1147388,-0.5166015 38.9288907,1.68017575 L16.7390586,23.980957 C16.5869869,24.133789 16.4771843,24.3232422 16.4198539,24.53125 L13.5018269,35.1186524 C13.3818214,35.5527344 13.5037701,36.0175781 13.8205458,36.3364257 C14.1378071,36.6547851 14.6003382,36.7773438 15.0322606,36.6572265 L25.5669893,33.7241211 C25.7739622,33.6665039 25.9624728,33.5561524 26.1145445,33.4033202 L48.3038907,11.1020507 C50.4863378,8.90380862 50.4863378,5.34521487 48.3038907,3.14697262 L46.8443913,1.68017575 Z M19.449141,24.793457 L37.6098025,6.54150388 L43.4667483,12.4277344 L25.3056009,30.6796875 L19.449141,24.793457 Z M18.2792095,27.152832 L22.95845,31.855957 L16.4859297,33.6582031 L18.2792095,27.152832 Z M46.5451065,9.33447262 L45.2260184,10.6601562 L39.3685868,4.7734375 L40.6881607,3.44775387 C41.9023049,2.227539 43.8709771,2.227539 45.0851213,3.44775387 L46.5451065,4.91455075 C47.7573072,6.1362305 47.7573072,8.11328125 46.5451065,9.33447262 L46.5451065,9.33447262 Z" id="Shape"></path>
        </g>
    </g>
</svg>