<svg xmlns="http://www.w3.org/2000/svg" xmlns:xlink="http://www.w3.org/1999/xlink"><symbol id="arrow-left" viewBox="0 0 24 18"><path d="M22.84 7.784H4.25l5.843-5.708a1.196 1.196 0 000-1.72 1.266 1.266 0 00-1.76 0L.364 8.14a1.196 1.196 0 000 1.72l7.967 7.784c.243.237.562.356.88.356.32 0 .638-.119.88-.356a1.196 1.196 0 000-1.72l-5.841-5.708h18.59C23.528 10.216 24 9.672 24 9c0-.672-.472-1.216-1.16-1.216z" fill-rule="nonzero"/></symbol><symbol id="billboard-address" viewBox="0 0 50 70"><g fill-rule="nonzero"><path d="M25 0C11.215 0 0 11.04 0 24.61c0 4.584 1.29 9.058 3.732 12.94l19.845 31.48c.38.604 1.05.97 1.77.97h.017a2.09 2.09 0 001.77-.997l19.34-31.785A24.29 24.29 0 0050 24.609C50 11.04 38.785 0 25 0zm17.898 35.112L25.316 64.01 7.273 35.39C5.241 32.157 4.14 28.43 4.14 24.61 4.139 13.3 13.512 4.073 25 4.073c11.487 0 20.847 9.227 20.847 20.535 0 3.708-1.03 7.34-2.949 10.503z"/><path d="M25 12.305c-6.892 0-12.5 5.52-12.5 12.304 0 6.742 5.516 12.305 12.5 12.305 7.07 0 12.5-5.637 12.5-12.305 0-6.784-5.608-12.304-12.5-12.304zm0 20.535c-4.619 0-8.361-3.696-8.361-8.23 0-4.524 3.766-8.231 8.361-8.231 4.595 0 8.347 3.707 8.347 8.23 0 4.469-3.655 8.23-8.347 8.23z"/></g></symbol><symbol id="billboard-contractor" viewBox="0 0 50 58"><g fill-rule="nonzero"><path d="M24.781 31.246h.389c3.565-.06 6.448-1.297 8.577-3.663 4.684-5.212 3.905-14.146 3.82-14.998-.304-6.4-3.37-9.463-5.9-10.892C29.78.624 27.579.048 25.122 0H24.915c-1.35 0-4.003.216-6.545 1.645-2.555 1.43-5.67 4.491-5.973 10.94-.086.852-.864 9.786 3.82 14.998 2.116 2.366 5 3.603 8.564 3.663zm-9.136-18.361c0-.036.012-.072.012-.096.401-8.61 6.594-9.535 9.246-9.535H25.049c3.284.072 8.868 1.393 9.245 9.535 0 .036 0 .072.013.096.012.084.863 8.25-3.005 12.549-1.533 1.705-3.577 2.545-6.266 2.57h-.121c-2.677-.025-4.733-.865-6.253-2.57-3.857-4.275-3.03-12.477-3.017-12.55z"/><path d="M49.976 46.064v-.036c0-.096-.012-.192-.012-.3-.073-2.378-.232-7.938-5.511-9.715-.037-.012-.086-.024-.122-.036-5.487-1.381-10.049-4.503-10.097-4.54a1.654 1.654 0 00-2.288.397 1.606 1.606 0 00.402 2.258c.207.144 5.049 3.47 11.107 5.007 2.835.997 3.15 3.987 3.236 6.725 0 .108 0 .204.012.3.012 1.08-.06 2.75-.255 3.71-1.971 1.105-9.696 4.924-21.448 4.924-11.703 0-19.477-3.83-21.46-4.936-.195-.96-.28-2.63-.255-3.71 0-.096.012-.192.012-.3.085-2.738.401-5.728 3.236-6.725 6.058-1.537 10.9-4.875 11.107-5.007a1.606 1.606 0 00.401-2.258 1.654 1.654 0 00-2.287-.396c-.048.036-4.586 3.158-10.097 4.539-.049.012-.085.024-.122.036C.255 37.79.097 43.35.025 45.716c0 .108 0 .204-.013.3v.036c-.012.624-.024 3.83.62 5.44.122.312.341.576.633.756.365.24 9.112 5.74 23.747 5.74s23.382-5.512 23.747-5.74c.28-.18.511-.444.633-.756.608-1.598.596-4.804.584-5.428z"/></g></symbol><symbol id="billboard-coords" viewBox="0 0 50 50"><g fill-rule="nonzero"><circle cx="24.968" cy="24.968" r="1.989"/><path d="M2.131 27.1h16.102a2.13 2.13 0 100-4.263H2.131a2.13 2.13 0 100 4.262zM27.099 2.131a2.13 2.13 0 10-4.262 0v16.102a2.13 2.13 0 104.262 0V2.131zM49.937 24.968a2.13 2.13 0 00-2.131-2.13H31.704a2.13 2.13 0 100 4.261h16.102a2.131 2.131 0 002.13-2.13zM22.837 47.805a2.13 2.13 0 104.262 0V31.703a2.13 2.13 0 10-4.262 0v16.102z"/></g></symbol><symbol id="billboard-format" viewBox="0 0 50 35"><g fill-rule="nonzero"><path d="M49.167 0H.833A.833.833 0 000 .833v33.334c0 .46.373.833.833.833h48.334c.46 0 .833-.373.833-.833V.833A.833.833 0 0049.167 0zm-.834 33.333H1.667V1.667h46.666v31.666z"/><path d="M8.333 8.333H15v-5H3.333V15h5V8.333zm-1.666 5H5V5h8.333v1.667H6.667v6.666zM46.667 20h-5v6.667H35v5h11.667V20zM45 30h-8.333v-1.667h6.666v-6.666H45V30z"/></g></symbol><symbol id="billboard-type" viewBox="0 0 50 48"><g fill-rule="nonzero"><path d="M48.869.037H1.13C.506.037 0 .542 0 1.164v22.552c0 .622.506 1.127 1.131 1.127H48.87c.625 0 1.131-.505 1.131-1.127V1.164c0-.622-.506-1.127-1.131-1.127zM47.738 22.59H2.262V2.291h45.476v20.298zM48.869 26.216c-.625 0-1.131.505-1.131 1.127v.88h-7.286v-.88c0-.622-.506-1.127-1.13-1.127-.626 0-1.132.505-1.132 1.127v.88h-7.285v-.88c0-.622-.506-1.127-1.131-1.127s-1.131.505-1.131 1.127v.88h-7.286v-.88c0-.622-.506-1.127-1.13-1.127-.626 0-1.132.505-1.132 1.127v.88H11.81v-.88c0-.622-.506-1.127-1.131-1.127s-1.131.505-1.131 1.127v.88H2.262v-.88c0-.622-.506-1.127-1.13-1.127-.626 0-1.132.505-1.132 1.127v2.007c0 .622.506 1.126 1.131 1.126h19.91v16.36c0 .622.506 1.127 1.13 1.127.626 0 1.132-.505 1.132-1.127v-16.36h3.394v16.36c0 .622.506 1.127 1.131 1.127s1.131-.505 1.131-1.127v-16.36h19.91c.625 0 1.131-.504 1.131-1.126v-2.007c0-.622-.506-1.127-1.131-1.127z"/></g></symbol><symbol id="logo" viewBox="0 0 18 22"><path d="M9.28 22H2.66c-.956 0-1.638-.218-2.047-.653C.204 20.912 0 20.22 0 19.27V2.73c0-.97.21-1.668.628-2.093C1.047.213 1.724 0 2.66 0h7.02c1.034 0 1.93.065 2.69.195.758.13 1.438.38 2.039.75.512.31.965.703 1.36 1.178.394.476.694 1 .901 1.576.207.575.31 1.183.31 1.824 0 2.2-1.083 3.811-3.25 4.832 2.846.92 4.27 2.71 4.27 5.372 0 1.23-.31 2.339-.931 3.324a5.612 5.612 0 01-2.512 2.184c-.66.28-1.42.477-2.276.592-.857.115-1.857.173-3 .173zm-.324-9.77H4.389v6.423h4.714c2.966 0 4.449-1.085 4.449-3.256 0-1.11-.385-1.916-1.153-2.416s-1.916-.75-3.443-.75zM4.389 3.348v5.687h4.02c1.093 0 1.938-.105 2.534-.315.596-.21 1.052-.61 1.367-1.2.247-.42.37-.891.37-1.411 0-1.11-.39-1.849-1.168-2.214-.778-.365-1.965-.547-3.561-.547H4.389z" fill-rule="nonzero"/></symbol><symbol id="pin" viewBox="0 0 18 25"><path d="M9 0C4.037 0 0 4.062 0 9.054 0 15.25 8.054 24.345 8.397 24.73c.322.36.884.36 1.206 0C9.946 24.345 18 15.25 18 9.054 18 4.062 13.963 0 9 0zm0 13.61c-2.497 0-4.528-2.044-4.528-4.556S6.503 4.499 9 4.499c2.497 0 4.528 2.043 4.528 4.555 0 2.512-2.031 4.555-4.528 4.555z" fill-rule="nonzero"/></symbol><symbol id="plus" viewBox="0 0 55 55"><path d="M52.852 25.352H29.648V2.148a2.148 2.148 0 10-4.296 0v23.204H2.148a2.148 2.148 0 100 4.296h23.204v23.204a2.148 2.148 0 104.296 0V29.648h23.204a2.148 2.148 0 100-4.296z" fill-rule="nonzero"/></symbol><symbol id="remove" viewBox="0 0 50 50"><g fill-rule="nonzero"><path d="M25 50C11.214 50 0 38.786 0 25S11.214 0 25 0s25 11.214 25 25-11.214 25-25 25zm0-46.875C12.938 3.125 3.125 12.938 3.125 25S12.938 46.875 25 46.875 46.875 37.062 46.875 25 37.062 3.125 25 3.125z"/><path d="M17.267 34.296a1.563 1.563 0 01-1.104-2.668l15.468-15.47a1.563 1.563 0 012.21 2.21l-15.468 15.47a1.564 1.564 0 01-1.106.458z"/><path d="M32.733 34.296c-.4 0-.8-.152-1.104-.458L16.161 18.37a1.562 1.562 0 112.21-2.21l15.468 15.468a1.562 1.562 0 01-1.106 2.667z"/></g></symbol><symbol id="satellite" viewBox="0 0 48.625 48.625"><path d="M35.432 10.815l.047.361-.541.112-.072.769h.648l.862-.083.445-.529-.473-.184-.259-.298-.389-.63-.186-.891-.731.149-.205.314v.354l.352.241z"/><path d="M34.809 11.111l.039-.482-.429-.185-.6.139-.445.714v.463h.519zM22.459 13.158l-.132.34h-.639v.33h.152l.022.162.392-.033.245-.152.064-.307.317-.027.125-.258-.291-.06-.255.005zM20.812 13.757l-.025.323.463-.039.048-.324-.278-.219z"/><path d="M48.619 24.061a24.552 24.552 0 00-.11-2.112 24.165 24.165 0 00-1.609-6.62c-.062-.155-.119-.312-.185-.465a24.341 24.341 0 00-4.939-7.441 24.19 24.19 0 00-1.11-1.086A24.22 24.22 0 0024.312 0c-6.345 0-12.126 2.445-16.46 6.44a24.6 24.6 0 00-2.78 3.035A24.18 24.18 0 000 24.312c0 13.407 10.907 24.313 24.313 24.313 9.43 0 17.617-5.4 21.647-13.268a24.081 24.081 0 002.285-6.795c.245-1.381.379-2.801.379-4.25.001-.084-.004-.167-.005-.251zm-4.576-9.717l.141-.158c.185.359.358.724.523 1.094l-.23-.009-.434.06v-.987zm-3.513-4.242l.004-1.086c.382.405.75.822 1.102 1.254l-.438.652-1.531-.014-.096-.319.959-.487zM11.202 7.403v-.041h.487l.042-.167h.797v.348l-.229.306h-1.098l.001-.446zm.778 1.085s.487-.083.529-.083 0 .486 0 .486l-1.098.069-.209-.25.778-.222zm33.612 9.651h-1.779l-1.084-.807-1.141.111v.696h-.361l-.39-.278-1.976-.501v-1.28l-2.504.195-.776.417h-.994l-.487-.049-1.207.67v1.261l-2.467 1.78.205.76h.5l-.131.724-.352.129-.019 1.892 2.132 2.428h.928l.056-.148h1.668l.481-.445h.946l.519.52 1.41.146-.187 1.875 1.565 2.763-.824 1.575.056.742.649.647v1.784l.852 1.146v1.482h.736c-4.096 5.029-10.33 8.25-17.305 8.25C12.009 46.625 2 36.615 2 24.312c0-3.097.636-6.049 1.781-8.732v-.696l.798-.969c.277-.523.574-1.033.891-1.53l.036.405-.926 1.125a22.14 22.14 0 00-.798 1.665v1.27l.927.446v1.765l.889 1.517.723.111.093-.52-.853-1.316-.167-1.279h.5l.211 1.316 1.233 1.799-.318.581.784 1.199 1.947.482v-.315l.779.111-.074.556.612.112.945.258 1.335 1.521 1.705.129.167 1.391-1.167.816-.055 1.242-.167.76 1.688 2.113.129.724s.612.166.687.166c.074 0 1.372.983 1.372.983v3.819l.463.13-.315 1.762.779 1.039-.144 1.746 1.029 1.809 1.321 1.154 1.328.024.13-.427-.976-.822.056-.408.175-.5.037-.51-.66-.02-.333-.418.548-.527.074-.398-.612-.175.036-.37.872-.132 1.326-.637.445-.816 1.391-1.78-.316-1.392.427-.741 1.279.039.861-.682.278-2.686.955-1.213.167-.779-.871-.279-.575-.943-1.965-.02-1.558-.594-.074-1.111-.52-.909-1.409-.021-.814-1.278-.723-.353-.037.39-1.316.078-.482-.671-1.373-.279-1.131 1.307-1.78-.302-.129-2.006-1.299-.222.521-.984-.149-.565-1.707 1.141-1.074-.131-.383-.839.234-.865.592-1.091 1.363-.69 2.632-.001-.007.803.946.44-.075-1.372.682-.686 1.376-.904.094-.636 1.372-1.428 1.459-.808-.129-.106.988-.93.362.096.166.208.375-.416.092-.041-.411-.058-.417-.139v-.4l.221-.181h.487l.223.098.193.39.236-.036v-.034l.068.023.684-.105.097-.334.39.098v.362l-.362.249h.001l.053.397 1.239.382.003.015.285-.024.019-.537-.982-.447-.056-.258.815-.278.036-.78-.852-.519-.056-1.315-1.168.574h-.426l.112-1.001-1.59-.375-.658.497v1.516l-1.183.375-.474.988-.514.083v-1.264l-1.112-.154-.556-.362-.224-.819 1.989-1.164.973-.296.098.654.542-.028.042-.329.567-.081.01-.115-.244-.101-.056-.348.697-.059.421-.438.023-.032.005.002.128-.132 1.465-.185.648.55-1.699.905 2.162.51.28-.723h.945l.334-.63-.668-.167v-.797l-2.095-.928-1.446.167-.816.427.056 1.038-.853-.13-.131-.574.817-.742-1.483-.074-.426.129-.185.5.556.094-.111.556-.945.056-.148.37-1.371.038s-.038-.778-.093-.778l1.075-.019.817-.798-.446-.223-.593.576-.984-.056-.593-.816h-1.261l-1.316.983h1.206l.11.353-.313.291 1.335.037.204.482-1.503-.056-.073-.371-.945-.204-.501-.278-1.125.009A22.188 22.188 0 0124.312 2c5.642 0 10.797 2.109 14.73 5.574l-.265.474-1.029.403-.434.471.1.549.531.074.32.8.916-.369.151 1.07h-.276l-.752-.111-.834.14-.807 1.14-1.154.181-.167.988.487.115-.141.635-1.146-.23-1.051.23-.223.585.182 1.228.617.289 1.035-.006.699-.063.213-.556 1.092-1.419.719.147.708-.64.132.5 1.742 1.175-.213.286-.785-.042.302.428.483.106.566-.236-.012-.682.251-.126-.202-.214-1.162-.648-.306-.861h.966l.309.306.832.717.035.867.862.918.321-1.258.597-.326.112 1.029.583.64 1.163-.02c.225.579.427 1.168.604 1.769l-.121.112zm-32.331-7.093l.584-.278.528.126-.182.709-.57.181-.36-.738zm3.099 1.669v.459h-1.334l-.5-.139.125-.32.641-.265h.876v.265h.192zm.614.64v.445l-.334.215-.416.077v-.737h.75zm-.376-.181v-.529l.459.418-.459.111zm.209 1.07v.433l-.319.32h-.709l.111-.486.335-.029.069-.167.513-.071zm-1.766-.889h.737l-.945 1.321-.39-.209.084-.556.514-.556zm3.018.737v.432h-.709l-.194-.28v-.402h.056l.847.25zm-.655-.594l.202-.212.341.212-.273.225-.27-.225zm28.55 5.767l.07-.082c.029.126.06.252.088.38l-.158-.298z"/><path d="M3.782 14.884v.696c.243-.568.511-1.122.798-1.665l-.798.969z"/></symbol><symbol id="search" viewBox="0 0 55 57"><path d="M54.162 51.918l-13.558-14.11A22.948 22.948 0 0046 23.015C46 10.324 35.682 0 23 0S0 10.324 0 23.014s10.318 23.013 23 23.013c4.761 0 9.298-1.436 13.177-4.164l13.661 14.216c.571.594 1.339.921 2.162.921.779 0 1.518-.297 2.079-.837a3.007 3.007 0 00.083-4.245zM23 6.004c9.374 0 17 7.63 17 17.01 0 9.38-7.626 17.01-17 17.01-9.374 0-17-7.63-17-17.01 0-9.38 7.626-17.01 17-17.01z" fill-rule="nonzero"/></symbol><symbol id="streets" viewBox="0 0 512.001 512.001"><path d="M512 256.001c0-10.821-6.012-20.551-15.694-25.398l-38.122-19.061 38.122-19.06a.014.014 0 01.004-.002c9.68-4.845 15.692-14.576 15.692-25.397 0-10.819-6.013-20.55-15.694-25.397L281.09 34.08c-15.712-7.849-34.47-7.849-50.185.001L15.691 141.691C6.013 146.534 0 156.264 0 167.084c0 10.821 6.012 20.551 15.694 25.398l38.121 19.06-38.126 19.063C6.012 235.45 0 245.18 0 256.001s6.012 20.551 15.694 25.397l38.121 19.061-38.118 19.059C6.02 324.353.004 334.08 0 344.902c-.004 10.828 6.008 20.564 15.694 25.412l215.215 107.608c7.856 3.925 16.471 5.886 25.09 5.886s17.238-1.963 25.095-5.887l215.215-107.608c9.682-4.845 15.695-14.582 15.691-25.41-.004-10.822-6.02-20.549-15.694-25.381l-38.122-19.061 38.126-19.063c9.678-4.846 15.69-14.576 15.69-25.397zm-485.775-84.57c-2.339-1.171-2.687-3.226-2.687-4.346s.35-3.175 2.683-4.343L241.429 55.138a32.617 32.617 0 0114.573-3.418 32.614 32.614 0 0114.567 3.417L485.776 162.74c2.337 1.17 2.687 3.225 2.687 4.345s-.348 3.175-2.687 4.346L270.572 279.032c-9.125 4.558-20.019 4.558-29.139.001L26.225 171.431zm459.558 169.144c2.33 1.164 2.679 3.215 2.679 4.336.001 1.123-.348 3.182-2.683 4.35L270.571 456.865c-9.125 4.558-20.019 4.559-29.139.001L26.225 349.262c-2.339-1.171-2.688-3.229-2.687-4.352 0-1.119.348-3.171 2.683-4.337l53.912-26.956 150.776 75.387c7.856 3.925 16.471 5.886 25.089 5.886 8.619 0 17.238-1.963 25.095-5.887l150.772-75.386 53.918 26.958zm-.005-80.23L270.571 367.949c-9.125 4.558-20.019 4.559-29.139.001L26.225 260.347c-2.339-1.17-2.687-3.225-2.687-4.345 0-1.122.348-3.175 2.683-4.344l53.912-26.956 150.776 75.387c7.855 3.925 16.472 5.886 25.089 5.886 8.617 0 17.237-1.962 25.094-5.888l150.774-75.386 53.908 26.954c2.339 1.171 2.687 3.225 2.687 4.346.001 1.12-.348 3.175-2.683 4.344z"/></symbol></svg>