<svg xmlns="http://www.w3.org/2000/svg" xmlns:xlink="http://www.w3.org/1999/xlink"><symbol id="search" viewBox="0 0 55 57"><path d="M54.162 51.918l-13.558-14.11A22.948 22.948 0 0046 23.015C46 10.324 35.682 0 23 0S0 10.324 0 23.014s10.318 23.013 23 23.013c4.761 0 9.298-1.436 13.177-4.164l13.661 14.216c.571.594 1.339.921 2.162.921.779 0 1.518-.297 2.079-.837a3.007 3.007 0 00.083-4.245zM23 6.004c9.374 0 17 7.63 17 17.01 0 9.38-7.626 17.01-17 17.01-9.374 0-17-7.63-17-17.01 0-9.38 7.626-17.01 17-17.01z" fill-rule="nonzero"/></symbol></svg>