<svg xmlns="http://www.w3.org/2000/svg" xmlns:xlink="http://www.w3.org/1999/xlink"><symbol id="billboard-address" viewBox="0 0 50 70"><g fill-rule="nonzero"><path d="M25 0C11.215 0 0 11.04 0 24.61c0 4.584 1.29 9.058 3.732 12.94l19.845 31.48c.38.604 1.05.97 1.77.97h.017a2.09 2.09 0 001.77-.997l19.34-31.785A24.29 24.29 0 0050 24.609C50 11.04 38.785 0 25 0zm17.898 35.112L25.316 64.01 7.273 35.39C5.241 32.157 4.14 28.43 4.14 24.61 4.139 13.3 13.512 4.073 25 4.073c11.487 0 20.847 9.227 20.847 20.535 0 3.708-1.03 7.34-2.949 10.503z"/><path d="M25 12.305c-6.892 0-12.5 5.52-12.5 12.304 0 6.742 5.516 12.305 12.5 12.305 7.07 0 12.5-5.637 12.5-12.305 0-6.784-5.608-12.304-12.5-12.304zm0 20.535c-4.619 0-8.361-3.696-8.361-8.23 0-4.524 3.766-8.231 8.361-8.231 4.595 0 8.347 3.707 8.347 8.23 0 4.469-3.655 8.23-8.347 8.23z"/></g></symbol><symbol id="billboard-coords" viewBox="0 0 50 50"><g fill-rule="nonzero"><circle cx="24.968" cy="24.968" r="1.989"/><path d="M2.131 27.1h16.102a2.13 2.13 0 100-4.263H2.131a2.13 2.13 0 100 4.262zM27.099 2.131a2.13 2.13 0 10-4.262 0v16.102a2.13 2.13 0 104.262 0V2.131zM49.937 24.968a2.13 2.13 0 00-2.131-2.13H31.704a2.13 2.13 0 100 4.261h16.102a2.131 2.131 0 002.13-2.13zM22.837 47.805a2.13 2.13 0 104.262 0V31.703a2.13 2.13 0 10-4.262 0v16.102z"/></g></symbol><symbol id="billboard-format" viewBox="0 0 50 35"><g fill-rule="nonzero"><path d="M49.167 0H.833A.833.833 0 000 .833v33.334c0 .46.373.833.833.833h48.334c.46 0 .833-.373.833-.833V.833A.833.833 0 0049.167 0zm-.834 33.333H1.667V1.667h46.666v31.666z"/><path d="M8.333 8.333H15v-5H3.333V15h5V8.333zm-1.666 5H5V5h8.333v1.667H6.667v6.666zM46.667 20h-5v6.667H35v5h11.667V20zM45 30h-8.333v-1.667h6.666v-6.666H45V30z"/></g></symbol><symbol id="billboard-type" viewBox="0 0 50 48"><g fill-rule="nonzero"><path d="M48.869.037H1.13C.506.037 0 .542 0 1.164v22.552c0 .622.506 1.127 1.131 1.127H48.87c.625 0 1.131-.505 1.131-1.127V1.164c0-.622-.506-1.127-1.131-1.127zM47.738 22.59H2.262V2.291h45.476v20.298zM48.869 26.216c-.625 0-1.131.505-1.131 1.127v.88h-7.286v-.88c0-.622-.506-1.127-1.13-1.127-.626 0-1.132.505-1.132 1.127v.88h-7.285v-.88c0-.622-.506-1.127-1.131-1.127s-1.131.505-1.131 1.127v.88h-7.286v-.88c0-.622-.506-1.127-1.13-1.127-.626 0-1.132.505-1.132 1.127v.88H11.81v-.88c0-.622-.506-1.127-1.131-1.127s-1.131.505-1.131 1.127v.88H2.262v-.88c0-.622-.506-1.127-1.13-1.127-.626 0-1.132.505-1.132 1.127v2.007c0 .622.506 1.126 1.131 1.126h19.91v16.36c0 .622.506 1.127 1.13 1.127.626 0 1.132-.505 1.132-1.127v-16.36h3.394v16.36c0 .622.506 1.127 1.131 1.127s1.131-.505 1.131-1.127v-16.36h19.91c.625 0 1.131-.504 1.131-1.126v-2.007c0-.622-.506-1.127-1.131-1.127z"/></g></symbol><symbol id="plus" viewBox="0 0 55 55"><path d="M52.852 25.352H29.648V2.148a2.148 2.148 0 10-4.296 0v23.204H2.148a2.148 2.148 0 100 4.296h23.204v23.204a2.148 2.148 0 104.296 0V29.648h23.204a2.148 2.148 0 100-4.296z" fill-rule="nonzero"/></symbol><symbol id="search" viewBox="0 0 55 57"><path d="M54.162 51.918l-13.558-14.11A22.948 22.948 0 0046 23.015C46 10.324 35.682 0 23 0S0 10.324 0 23.014s10.318 23.013 23 23.013c4.761 0 9.298-1.436 13.177-4.164l13.661 14.216c.571.594 1.339.921 2.162.921.779 0 1.518-.297 2.079-.837a3.007 3.007 0 00.083-4.245zM23 6.004c9.374 0 17 7.63 17 17.01 0 9.38-7.626 17.01-17 17.01-9.374 0-17-7.63-17-17.01 0-9.38 7.626-17.01 17-17.01z" fill-rule="nonzero"/></symbol></svg>