<?xml version="1.0" encoding="UTF-8"?>
<svg width="140px" height="274px" viewBox="0 0 140 274" version="1.1" xmlns="http://www.w3.org/2000/svg" xmlns:xlink="http://www.w3.org/1999/xlink">
    <!-- Generator: Sketch 53.2 (72643) - https://sketchapp.com -->
    <title>ascending</title>
    <desc>Created with Sketch.</desc>
    <g id="Page-1" stroke="none" stroke-width="1" fill="none" fill-rule="evenodd">
        <path d="M137.212056,197.510741 L130.48101,190.800874 C128.696155,189.021635 126.274463,188.021465 123.749964,188.021465 C121.225465,188.021465 118.803773,189.021635 117.017966,190.800874 L84.278485,223.437341 L84.278485,9.48927608 C84.278485,4.2483489 80.0167266,0 74.759257,0 L65.240029,0 C59.9825594,0 55.720801,4.2483489 55.720801,9.48927608 L55.720801,223.436392 L22.9813202,190.799925 C21.195513,189.020686 18.7747734,188.020516 16.2502741,188.020516 C13.7257748,188.020516 11.3040832,189.020686 9.51922799,190.799925 L2.78722996,197.509792 C-0.929076652,201.215355 -0.929076652,207.223964 2.78722996,210.929527 L63.2685969,271.220591 C65.1277021,273.073847 67.5636726,274 69.999643,274 C72.4356135,274 74.8725358,273.073847 76.7306891,271.220591 L137.212056,210.929527 C140.929315,207.223964 140.929315,201.215355 137.212056,197.510741 Z" id="ascending" fill="#000000" fill-rule="nonzero" transform="translate(70.000000, 137.000000) scale(1, -1) translate(-70.000000, -137.000000) "></path>
    </g>
</svg>