<?xml version="1.0" encoding="UTF-8"?>
<svg width="100px" height="70px" viewBox="0 0 100 70" version="1.1" xmlns="http://www.w3.org/2000/svg" xmlns:xlink="http://www.w3.org/1999/xlink">
    <!-- Generator: Sketch 53.2 (72643) - https://sketchapp.com -->
    <title>Group</title>
    <desc>Created with Sketch.</desc>
    <g id="Page-1" stroke="none" stroke-width="1" fill="none" fill-rule="evenodd">
        <g id="Group" fill="#000000" fill-rule="nonzero">
            <path d="M87.1111111,61.5240964 L8.88888889,61.5240964 L8.88888889,4.21686747 C8.88888889,1.89759036 6.88888889,0 4.44444444,0 C2,0 0,1.89759036 0,4.21686747 L0,61.8192771 C0,66.2891566 3.64444444,69.9578313 8.4,69.9578313 L87.1111111,69.9578313 C89.5555556,69.9578313 91.5555556,68.060241 91.5555556,65.7409639 C91.5555556,63.4216867 89.5555556,61.5240964 87.1111111,61.5240964 Z" id="Path"></path>
            <path d="M91.7333333,9.23493976 C85.7333333,7.54819277 79.4222222,10.753012 77.6444444,16.4457831 C76.8,19.1024096 77.0666667,21.9698795 78.4,24.4156627 L72.4444444,30.5722892 C68.5777778,27.8313253 63.2888889,27.746988 59.2888889,30.3614458 L54.1777778,26.3975904 C53.6,20.4939759 48.0888889,16.1506024 41.8666667,16.6987952 C35.6444444,17.246988 31.0666667,22.4759036 31.6444444,28.3795181 C31.6888889,28.6325301 31.6888889,28.8855422 31.7333333,29.0963855 L25.3333333,36.686747 C19.3333333,35.0421687 13.0666667,38.3313253 11.3333333,44.0240964 C9.6,49.7168675 13.0666667,55.6626506 19.0666667,57.3072289 C20.1333333,57.686747 21.1555556,57.813253 22.2222222,57.813253 C28.4444444,57.813253 33.5111111,53.0060241 33.5555556,47.1024096 C33.5555556,45.373494 33.1111111,43.6445783 32.2666667,42.0843373 L36.9333333,36.5180723 C41.4666667,39.2168675 47.3333333,38.5421687 51.0666667,34.873494 L54.5333333,37.5722892 C53.6,43.4337349 57.8222222,48.9156627 64,49.8012048 C70.1777778,50.686747 75.9555556,46.6807229 76.8888889,40.8192771 C76.9777778,40.2710843 77.0222222,39.7228916 77.0222222,39.1746988 C77.0222222,38.8795181 77.0222222,38.626506 76.9777778,38.3313253 L85.2444444,29.813253 C91.2444444,31.5 97.5555556,28.2951807 99.3333333,22.6024096 C101.111111,16.9096386 97.7333333,10.9216867 91.7333333,9.23493976 Z M22.2222222,49.4216867 C20.8888889,49.4216867 19.7777778,48.4096386 19.7777778,47.1024096 C19.8222222,45.8373494 20.8888889,44.7831325 22.2222222,44.7831325 C23.5555556,44.7831325 24.6666667,45.7951807 24.6666667,47.1024096 C24.6666667,48.3674699 23.6,49.4216867 22.2222222,49.4216867 Z M42.9333333,29.813253 C41.6,29.813253 40.4888889,28.8012048 40.4888889,27.4939759 C40.4888889,26.186747 41.6,25.1746988 42.9333333,25.1746988 C44.2666667,25.1746988 45.3777778,26.186747 45.3777778,27.4939759 C45.3777778,28.7590361 44.3111111,29.813253 42.9333333,29.813253 Z M65.6888889,41.5783133 C64.3555556,41.5783133 63.2444444,40.5662651 63.2444444,39.2590361 C63.2444444,37.9939759 64.3555556,36.939759 65.6888889,36.939759 C67.0222222,36.939759 68.1333333,37.9518072 68.1333333,39.2590361 C68.1333333,40.5662651 67.0666667,41.5783133 65.6888889,41.5783133 Z M88.4444444,21.9698795 C87.1111111,21.9698795 86,20.9578313 86,19.6506024 C86,18.3433735 87.1111111,17.3313253 88.4444444,17.3313253 C89.7777778,17.3313253 90.8888889,18.3433735 90.8888889,19.6506024 C90.8888889,20.9578313 89.8222222,21.9698795 88.4444444,21.9698795 Z" id="Shape"></path>
        </g>
    </g>
</svg>