<?xml version="1.0" encoding="UTF-8"?>
<svg width="100px" height="70px" viewBox="0 0 100 70" version="1.1" xmlns="http://www.w3.org/2000/svg" xmlns:xlink="http://www.w3.org/1999/xlink">
    <!-- Generator: Sketch 53.2 (72643) - https://sketchapp.com -->
    <title>Path</title>
    <desc>Created with Sketch.</desc>
    <g id="Page-1" stroke="none" stroke-width="1" fill="none" fill-rule="evenodd">
        <g id="report" fill="#000000" fill-rule="nonzero">
            <path d="M97.0703125,64.198895 L93.9453125,64.198895 L93.9453125,2.90055249 C93.9453125,1.29769519 92.6345824,0 91.015625,0 L79.296875,0 C77.6779176,0 76.3671875,1.29769519 76.3671875,2.90055249 L76.3671875,64.198895 L70.5078125,64.198895 L70.5078125,20.3038674 C70.5078125,18.7010101 69.1970824,17.4033149 67.578125,17.4033149 L55.859375,17.4033149 C54.2404176,17.4033149 52.9296875,18.7010101 52.9296875,20.3038674 L52.9296875,64.198895 L47.0703125,64.198895 L47.0703125,43.5082873 C47.0703125,41.90543 45.7595824,40.6077348 44.140625,40.6077348 L32.421875,40.6077348 C30.8029176,40.6077348 29.4921875,41.90543 29.4921875,43.5082873 L29.4921875,64.198895 L23.6328125,64.198895 L23.6328125,31.9060773 C23.6328125,30.3032201 22.3220824,29.0055249 20.703125,29.0055249 L8.984375,29.0055249 C7.36541758,29.0055249 6.0546875,30.3032201 6.0546875,31.9060773 L6.0546875,64.198895 L2.9296875,64.198895 C1.31073008,64.198895 0,65.4965902 0,67.0994475 C0,68.7023048 1.31073008,70 2.9296875,70 L97.0703125,70 C98.6892699,70 100,68.7023048 100,67.0994475 C100,65.4965902 98.6892699,64.198895 97.0703125,64.198895 Z" id="Path"></path>
        </g>
    </g>
</svg>