<?xml version="1.0" encoding="UTF-8"?>
<svg width="100px" height="100px" viewBox="0 0 100 100" version="1.1" xmlns="http://www.w3.org/2000/svg" xmlns:xlink="http://www.w3.org/1999/xlink">
    <!-- Generator: Sketch 53.2 (72643) - https://sketchapp.com -->
    <title>moon</title>
    <desc>Created with Sketch.</desc>
    <g id="Page-1" stroke="none" stroke-width="1" fill="none" fill-rule="evenodd">
        <g id="moon" fill="#000000" fill-rule="nonzero">
            <path d="M98.3338677,64.1742 C96.7442886,62.9082 94.5044088,62.8838 92.8869739,64.1162 C85.7533066,69.555 77.2270541,72.4296 68.2294589,72.4296 C65.7809619,72.4296 63.3266533,72.2096 60.9346693,71.776 C59.9805611,71.6024 59.0675351,72.2342 58.8943888,73.1862 C58.7210421,74.1378 59.3537074,75.0496 60.3074148,75.2224 C62.9058116,75.6936 65.5711423,75.9324 68.2292585,75.9324 C78.0036072,75.9324 87.2667335,72.809 95.0170341,66.9 C95.3517034,66.6448 95.8150301,66.65 96.1440882,66.9118 C96.4729459,67.1738 96.5801603,67.6236 96.4052104,68.0056 C92.5837675,76.3442 86.4913828,83.415 78.7869739,88.4532 C70.8799599,93.6234 61.6823647,96.3566 52.188978,96.3566 C25.3917836,96.3566 3.59058116,74.599 3.59058116,47.8554 C3.59058116,38.3804 6.32905812,29.2014 11.5098196,21.3108 C16.5581162,13.6214 23.6428858,7.5414 31.9991984,3.7274 C32.3815631,3.5526 32.8312625,3.66 33.0937876,3.9884 C33.3561122,4.3166 33.361523,4.779 33.106012,5.1126 C27.1849699,12.8486 24.0553106,22.0932 24.0553106,31.8472 C24.0553106,41.2932 27.0178357,50.3064 32.6228457,57.9128 C38.1132265,65.3636 45.6388778,70.8284 54.3863727,73.7162 C55.3072144,74.0194 56.2991984,73.5214 56.6038076,72.6034 C56.908016,71.685 56.4088176,70.694 55.4887776,70.3904 C38.7867735,64.877 27.5653307,49.3878 27.5653307,31.8474 C27.5653307,22.8684 30.4458918,14.359 35.8953908,7.239 C37.1304609,5.6254 37.1062124,3.3902 35.8368737,1.8032 C34.5669339,0.2152 32.3869739,-0.3022 30.538477,0.5424 C21.5807615,4.6308 13.9853707,11.1488 8.5739479,19.3908 C3.01743487,27.8534 0.0805611222,37.6964 0.0805611222,47.8554 C0.0805611222,76.5306 23.456513,99.8596 52.188978,99.8596 C62.3677355,99.8596 72.2304609,96.9286 80.7108216,91.3832 C88.9691383,85.9826 95.5004008,78.4026 99.5975952,69.4626 C100.443487,67.6162 99.9242485,65.4416 98.3338677,64.1742 Z" id="Path"></path>
            <path d="M47.7863727,31.617 C51.9328657,31.617 55.3066132,34.9838 55.3066132,39.122 C55.3066132,40.0892 56.0923848,40.8734 57.061523,40.8734 C58.0306613,40.8734 58.8164329,40.0892 58.8164329,39.122 C58.8164329,34.9838 62.18998,31.617 66.3364729,31.617 C67.3056112,31.617 68.0913828,30.8328 68.0913828,29.8656 C68.0913828,28.8984 67.3056112,28.1142 66.3364729,28.1142 C62.18998,28.1142 58.8164329,24.7472 58.8164329,20.609 C58.8164329,19.6418 58.0306613,18.8576 57.061523,18.8576 C56.0923848,18.8576 55.3066132,19.6418 55.3066132,20.609 C55.3066132,24.7472 51.9328657,28.1142 47.7863727,28.1142 C46.8172345,28.1142 46.0314629,28.8984 46.0314629,29.8656 C46.0314629,30.8328 46.8172345,31.617 47.7863727,31.617 Z M57.061523,26.5608 C57.9166333,27.8836 59.0472946,29.012 60.3727455,29.8656 C59.0472946,30.719 57.9168337,31.8474 57.061523,33.1702 C56.2064128,31.8474 55.0755511,30.7192 53.7501002,29.8656 C55.0755511,29.0122 56.2064128,27.8836 57.061523,26.5608 Z" id="Shape"></path>
            <path d="M72.6260521,54.1392 C75.6364729,54.1392 78.0857715,51.695 78.0857715,48.6908 C78.0857715,45.6864 75.6364729,43.242 72.6260521,43.242 C69.6156313,43.242 67.1665331,45.6864 67.1665331,48.6908 C67.1669339,51.695 69.6158317,54.1392 72.6260521,54.1392 Z M72.6260521,46.7452 C73.701002,46.7452 74.5757515,47.618 74.5757515,48.691 C74.5757515,49.7636 73.7012024,50.6364 72.6260521,50.6364 C71.5509018,50.6364 70.6765531,49.7638 70.6765531,48.691 C70.6767535,47.618 71.5511022,46.7452 72.6260521,46.7452 Z" id="Shape"></path>
            <ellipse id="Oval" cx="57.0613226" cy="50.888" rx="2.2002004" ry="2.1958"></ellipse>
            <ellipse id="Oval" cx="71.1711423" cy="16.947" rx="2.2002004" ry="2.1958"></ellipse>
        </g>
    </g>
</svg>