<?xml version="1.0" encoding="UTF-8"?>
<svg width="100px" height="100px" viewBox="0 0 100 100" version="1.1" xmlns="http://www.w3.org/2000/svg" xmlns:xlink="http://www.w3.org/1999/xlink">
    <!-- Generator: Sketch 53.2 (72643) - https://sketchapp.com -->
    <title>sun</title>
    <desc>Created with Sketch.</desc>
    <g id="Page-1" stroke="none" stroke-width="1" fill="none" fill-rule="evenodd">
        <g id="sun" fill="#000000" fill-rule="nonzero">
            <path d="M50,22.2564828 C34.6775266,22.2564828 22.2564828,34.6775266 22.2564828,50 C22.2564828,65.3224734 34.6775266,77.7435172 50,77.7435172 C65.3224734,77.7435172 77.7435172,65.3224734 77.7435172,50 C77.7260638,34.6850066 65.3149934,22.2739362 50,22.2564828 Z M50,73.4881981 C37.0279255,73.4881981 26.5118019,62.9720745 26.5118019,50 C26.5118019,37.0279255 37.0279255,26.5118019 50,26.5118019 C62.9720745,26.5118019 73.4881981,37.0279255 73.4881981,50 C73.4732381,62.9662566 62.9662566,73.4732381 50,73.4881981 Z" id="Shape"></path>
            <path d="M52.1276596,12.9787234 L52.1276596,2.12765957 C52.1276596,0.95246 51.1751996,0 50,0 C48.8248004,0 47.8723404,0.95246 47.8723404,2.12765957 L47.8723404,12.9787234 C47.8723404,14.153923 48.8248004,15.106383 50,15.106383 C51.1751996,15.106383 52.1276596,14.153923 52.1276596,12.9787234 Z" id="Path"></path>
            <path d="M50,84.893617 C48.8248004,84.893617 47.8723404,85.846077 47.8723404,87.0212766 L47.8723404,97.8723404 C47.8723404,99.04754 48.8248004,100 50,100 C51.1751996,100 52.1276596,99.04754 52.1276596,97.8723404 L52.1276596,87.0212766 C52.1276596,85.846077 51.1751996,84.893617 50,84.893617 Z" id="Path"></path>
            <path d="M97.8723404,47.8723404 L87.0212766,47.8723404 C85.846077,47.8723404 84.893617,48.8248004 84.893617,50 C84.893617,51.1751996 85.846077,52.1276596 87.0212766,52.1276596 L97.8723404,52.1276596 C99.04754,52.1276596 100,51.1751996 100,50 C100,48.8248004 99.04754,47.8723404 97.8723404,47.8723404 Z" id="Path"></path>
            <path d="M15.106383,50 C15.106383,48.8248004 14.153923,47.8723404 12.9787234,47.8723404 L2.12765957,47.8723404 C0.95246,47.8723404 0,48.8248004 0,50 C0,51.1751996 0.95246,52.1276596 2.12765957,52.1276596 L12.9787234,52.1276596 C14.153923,52.1276596 15.106383,51.1751996 15.106383,50 Z" id="Path"></path>
            <path d="M77.7144281,25.2942153 L85.2618019,17.7468417 C86.0871011,16.9148936 86.0837766,15.5726396 85.255153,14.744847 C84.4273604,13.9162234 83.0851064,13.9128989 82.2531583,14.7381981 L74.7057847,22.2855719 C74.1647274,22.8216423 73.9511302,23.6070479 74.147274,24.3442487 C74.3442487,25.0806183 74.9193817,25.6557513 75.6557513,25.852726 C76.3929521,26.0488698 77.1783577,25.8352726 77.7144281,25.2942153 L77.7144281,25.2942153 Z" id="Path"></path>
            <path d="M22.2855719,74.7057847 L14.7381981,82.2531583 C14.1963098,82.7900598 13.9835438,83.5754655 14.1796874,84.3118351 C14.3758311,85.0482047 14.9517953,85.6241689 15.6881649,85.8203126 C16.4245345,86.0164562 17.2099402,85.8036902 17.7468417,85.2618019 L25.2942153,77.7144281 C25.8352726,77.1783577 26.0488698,76.3929521 25.852726,75.6557513 C25.6557513,74.9193817 25.0806183,74.3442487 24.3442487,74.147274 C23.6070479,73.9511302 22.8216423,74.1647274 22.2855719,74.7057847 L22.2855719,74.7057847 Z" id="Path"></path>
            <path d="M77.7144281,74.7057847 C77.1783577,74.1647274 76.3929521,73.9511302 75.6557513,74.147274 C74.9193817,74.3442487 74.3442487,74.9193817 74.147274,75.6557513 C73.9511302,76.3929521 74.1647274,77.1783577 74.7057847,77.7144281 L82.2531583,85.2618019 C83.0851064,86.0871011 84.4273604,86.0837766 85.255153,85.255153 C86.0837766,84.4273604 86.0871011,83.0851064 85.2618019,82.2531583 L77.7144281,74.7057847 Z" id="Path"></path>
            <path d="M22.2855719,25.2942153 C22.8216423,25.8352726 23.6070479,26.0488698 24.3442487,25.852726 C25.0806183,25.6557513 25.6557513,25.0806183 25.852726,24.3442487 C26.0488698,23.6070479 25.8352726,22.8216423 25.2942153,22.2855719 L17.7468417,14.7381981 C16.9148936,13.9128989 15.5726396,13.9162234 14.744847,14.744847 C13.9162234,15.5726396 13.9128989,16.9148936 14.7381981,17.7468417 L22.2855719,25.2942153 Z" id="Path"></path>
        </g>
    </g>
</svg>