<?xml version="1.0" encoding="UTF-8"?>
<svg width="302px" height="63px" viewBox="0 0 302 63" version="1.1" xmlns="http://www.w3.org/2000/svg" xmlns:xlink="http://www.w3.org/1999/xlink">
    <!-- Generator: Sketch 53.2 (72643) - https://sketchapp.com -->
    <title>logo</title>
    <desc>Created with Sketch.</desc>
    <g id="Page-1" stroke="none" stroke-width="1" fill="none" fill-rule="evenodd">
        <g id="logo" fill-rule="nonzero">
            <path d="M13.13,39.62 L13.13,22.97 L0,22.97 L0,39.61 C0.00155880856,45.4732322 3.1312607,50.8901705 8.21,53.82 L22.97,62.35 L22.97,47.2 L14.77,42.46 C13.7553387,41.8741851 13.1302012,40.7916299 13.13,39.62" id="Path" fill="#C79B65"></path>
            <path d="M22.97,55.79 L37.74,47.27 C42.8148903,44.3376294 45.940504,38.9211696 45.94,33.06 L45.94,1.13686838e-13 L22.94,1.13686838e-13 L22.94,13.13 L32.78,13.13 L32.78,33.06 C32.7797988,34.2316299 32.1546613,35.3141851 31.14,35.9 L22.94,40.64 L22.97,55.79 Z" id="Path" fill="#E44E34"></path>
            <polygon id="Path" fill="#FFFFFF" points="22.97 0 0 22.97 22.97 22.97"></polygon>
            <g id="Clipped" transform="translate(67.000000, 4.000000)" fill="#FFFFFF">
                <path d="M20.512,46.696 C20.4479997,46.696 20.3893336,46.6906667 20.336,46.68 C20.2826664,46.6693333 20.2240003,46.664 20.16,46.664 C20.0319994,46.664 19.7280024,46.7919987 19.248,47.048 C18.7679976,47.3040013 18.1600037,47.5919984 17.424,47.912 C16.6879963,48.2320016 15.8506714,48.5093322 14.912,48.744 C13.9733286,48.9786678 12.9920051,49.096 11.968,49.096 C10.6239933,49.096 9.33333952,48.925335 8.096,48.584 C6.85866048,48.242665 5.76533808,47.7146702 4.816,47 C3.86666192,46.2853298 3.11466944,45.394672 2.56,44.328 C2.00533056,43.261328 1.728,42.0133405 1.728,40.584 C1.728,39.175993 2.00533056,37.9333387 2.56,36.856 C3.11466944,35.7786613 3.86666192,34.877337 4.816,34.152 C5.76533808,33.426663 6.85866048,32.8826685 8.096,32.52 C9.33333952,32.1573315 10.6239933,31.976 11.968,31.976 C13.0560054,31.976 14.0426622,32.0613325 14.928,32.232 C15.8133378,32.4026675 16.5866634,32.583999 17.248,32.776 C17.9093366,32.968001 18.4319981,33.1493325 18.816,33.32 C19.2000019,33.4906675 19.4346662,33.576 19.52,33.576 C19.6266672,33.576 19.717333,33.5226672 19.792,33.416 C19.866667,33.3093328 19.9253331,33.2240003 19.968,33.16 L20.448,33.544 L17.952,37.416 L17.632,37.192 C17.632,37.1279997 17.6266667,37.0640003 17.616,37 C17.6053333,36.9359997 17.5893334,36.8613338 17.568,36.776 C17.5253331,36.5413322 17.3120019,36.3013346 16.928,36.056 C16.5439981,35.8106654 16.0693362,35.592001 15.504,35.4 C14.9386638,35.207999 14.3413365,35.0480006 13.712,34.92 C13.0826635,34.7919994 12.501336,34.728 11.968,34.728 C11.0719955,34.728 10.2133374,34.8559987 9.392,35.112 C8.57066256,35.3680013 7.85600304,35.7413309 7.248,36.232 C6.63999696,36.7226691 6.15466848,37.3253298 5.792,38.04 C5.42933152,38.7546702 5.248,39.5706621 5.248,40.488 C5.248,41.4053379 5.42933152,42.2213298 5.792,42.936 C6.15466848,43.6506702 6.63999696,44.2533309 7.248,44.744 C7.85600304,45.2346691 8.57066256,45.6079987 9.392,45.864 C10.2133374,46.1200013 11.0719955,46.248 11.968,46.248 C12.6506701,46.248 13.3653296,46.1680008 14.112,46.008 C14.8586704,45.8479992 15.5413302,45.6453346 16.16,45.4 C16.7786698,45.1546654 17.2959979,44.8773349 17.712,44.568 C18.1280021,44.2586651 18.336,43.9653347 18.336,43.688 C18.336,43.5386659 18.2933338,43.4106672 18.208,43.304 L18.656,43.048 L20.768,46.44 L20.512,46.696 Z M34.6879999,48.424 C34.7946671,48.424 34.9013327,48.386667 35.0079999,48.312 C35.1146671,48.237333 35.1679999,48.1146675 35.1679999,47.944 L35.1679999,37.288 L31.0079999,37.288 C30.8373324,37.288 30.677334,37.3306662 30.5279999,37.416 C30.3786658,37.5013338 30.3039999,37.639999 30.3039999,37.832 L29.7279999,37.832 L29.7279999,34.152 L30.3039999,34.152 C30.3039999,34.4506682 30.3786658,34.6533328 30.5279999,34.76 C30.677334,34.8666672 30.8373324,34.92 31.0079999,34.92 L42.3999999,34.92 C42.5706674,34.92 42.7306658,34.8666672 42.8799999,34.76 C43.029334,34.6533328 43.1039999,34.4506682 43.1039999,34.152 L43.6799999,34.152 L43.6799999,37.832 L43.1039999,37.832 C43.1039999,37.639999 43.029334,37.5013338 42.8799999,37.416 C42.7306658,37.3306662 42.5706674,37.288 42.3999999,37.288 L38.2399999,37.288 L38.2399999,47.944 C38.2399999,48.2640016 38.431998,48.424 38.8159999,48.424 L38.8159999,49 L34.6879999,49 L34.6879999,48.424 Z M61.4719998,43.112 L58.8799998,37.736 L56.6079998,43.112 L61.4719998,43.112 Z M50.7839998,48.424 C51.0400011,48.3813331 51.247999,48.2586677 51.4079998,48.056 C51.5680006,47.8533323 51.690666,47.6666675 51.7759998,47.496 L56.5439998,37.096 C56.6720004,36.7973318 56.7733328,36.5573342 56.8479998,36.376 C56.9226668,36.1946658 56.9599998,36.0186675 56.9599998,35.848 C56.9599998,35.7199994 56.9333334,35.6400002 56.8799998,35.608 C56.8266662,35.5759998 56.7680001,35.5386669 56.7039998,35.496 L56.7039998,34.92 L61.5359998,34.92 L61.5359998,35.496 C61.4719995,35.5386669 61.4026668,35.5706666 61.3279998,35.592 C61.2533328,35.6133334 61.2159998,35.6986659 61.2159998,35.848 C61.2159998,35.9760006 61.2639993,36.1306658 61.3599998,36.312 C61.4560003,36.4933342 61.5573326,36.7013322 61.6639998,36.936 L66.8479998,47.816 C66.954667,48.008001 67.0719992,48.1466662 67.1999998,48.232 C67.3280004,48.3173338 67.4666657,48.3813331 67.6159998,48.424 L67.6159998,49 L63.0719998,49 L63.0719998,48.52 C63.178667,48.52 63.2906659,48.4880003 63.4079998,48.424 C63.5253337,48.3599997 63.5839998,48.2426675 63.5839998,48.072 C63.5839998,47.9439994 63.5626667,47.8266672 63.5199998,47.72 C63.4773329,47.6133328 63.4240001,47.4746675 63.3599998,47.304 L62.4959998,45.48 L55.6479998,45.48 L54.7519998,47.208 C54.666666,47.3786675 54.5973334,47.5333326 54.5439998,47.672 C54.4906662,47.8106674 54.4639998,47.9333328 54.4639998,48.04 C54.4639998,48.2106675 54.5173326,48.3173331 54.6239998,48.36 C54.730667,48.4026669 54.8799988,48.424 55.0719998,48.424 L55.0719998,49 L50.7839998,49 L50.7839998,48.424 Z M79.6799997,48.424 C79.7866669,48.424 79.8933325,48.386667 79.9999997,48.312 C80.1066669,48.237333 80.1599997,48.1146675 80.1599997,47.944 L80.1599997,37.288 L75.9999997,37.288 C75.8293322,37.288 75.6693338,37.3306662 75.5199997,37.416 C75.3706656,37.5013338 75.2959997,37.639999 75.2959997,37.832 L74.7199997,37.832 L74.7199997,34.152 L75.2959997,34.152 C75.2959997,34.4506682 75.3706656,34.6533328 75.5199997,34.76 C75.6693338,34.8666672 75.8293322,34.92 75.9999997,34.92 L87.3919997,34.92 C87.5626672,34.92 87.7226656,34.8666672 87.8719997,34.76 C88.0213338,34.6533328 88.0959997,34.4506682 88.0959997,34.152 L88.6719997,34.152 L88.6719997,37.832 L88.0959997,37.832 C88.0959997,37.639999 88.0213338,37.5013338 87.8719997,37.416 C87.7226656,37.3306662 87.5626672,37.288 87.3919997,37.288 L83.2319997,37.288 L83.2319997,47.944 C83.2319997,48.2640016 83.4239978,48.424 83.8079997,48.424 L83.8079997,49 L79.6799997,49 L79.6799997,48.424 Z M113.44,47.944 C113.44,48.2640016 113.631998,48.424 114.016,48.424 L114.016,49 L110.08,49 L110.08,48.424 C110.528002,48.424 110.752,48.2640016 110.752,47.944 L110.752,38.312 L102.816,47.08 C102.559998,47.3573347 102.330667,47.6026656 102.128,47.816 C101.925332,48.0293344 101.824,48.1786662 101.824,48.264 C101.824,48.3706672 101.898666,48.424 102.048,48.424 L102.048,49 L97.8879996,49 L97.8879996,48.424 C98.2720015,48.424 98.4639996,48.2640016 98.4639996,47.944 L98.4639996,35.976 C98.4639996,35.6559984 98.2720015,35.496 97.8879996,35.496 L97.8879996,34.92 L101.792,34.92 L101.792,35.496 C101.365331,35.496 101.152,35.6559984 101.152,35.976 L101.152,44.968 L108.832,36.52 C109.301335,35.986664 109.536,35.6986669 109.536,35.656 C109.536,35.5706662 109.461334,35.5173334 109.312,35.496 L109.312,34.92 L114.016,34.92 L114.016,35.496 C113.631998,35.496 113.44,35.6559984 113.44,35.976 L113.44,47.944 Z M135.968,38.952 C135.968,38.9093331 135.962666,38.8666669 135.952,38.824 C135.941333,38.7813331 135.936,38.7280003 135.936,38.664 C135.936,38.5573328 135.829334,38.4133342 135.616,38.232 C135.402665,38.0506658 135.098668,37.8746675 134.704,37.704 C134.309331,37.5333325 133.845336,37.3893339 133.312,37.272 C132.778664,37.1546661 132.192003,37.096 131.552,37.096 C130.783996,37.096 130.085336,37.1973323 129.456,37.4 C128.826663,37.6026677 128.277335,37.9066646 127.808,38.312 C127.338664,38.7173354 126.976001,39.2186637 126.72,39.816 C126.463998,40.4133363 126.336,41.0959962 126.336,41.864 C126.336,42.6320038 126.479998,43.319997 126.768,43.928 C127.056001,44.536003 127.434664,45.0586645 127.904,45.496 C128.373335,45.9333355 128.906663,46.2639989 129.504,46.488 C130.101336,46.7120011 130.70933,46.824 131.328,46.824 C131.904002,46.824 132.490663,46.7493341 133.088,46.6 C133.685336,46.4506659 134.22933,46.2746677 134.72,46.072 C135.210669,45.8693323 135.610665,45.6506678 135.92,45.416 C136.229334,45.1813322 136.384,44.968001 136.384,44.776 L136.384,44.52 C136.384,44.3919994 136.373333,44.2853338 136.352,44.2 L136.704,43.88 L139.072,47.272 L138.752,47.432 C138.495998,47.3253328 138.314667,47.272 138.208,47.272 C138.037332,47.272 137.760001,47.367999 137.376,47.56 C136.991998,47.752001 136.506669,47.9706654 135.92,48.216 C135.33333,48.4613346 134.65067,48.6693325 133.872,48.84 C133.093329,49.0106675 132.224004,49.096 131.264,49.096 C130.282661,49.096 129.312004,48.9573347 128.352,48.68 C127.391995,48.4026653 126.53867,47.960003 125.792,47.352 C125.045329,46.743997 124.437335,45.9866712 123.968,45.08 C123.498664,44.1733288 123.264,43.1226726 123.264,41.928 C123.264,40.7333274 123.498664,39.6880045 123.968,38.792 C124.437335,37.8959955 125.055996,37.144003 125.824,36.536 C126.592003,35.927997 127.471995,35.4746682 128.464,35.176 C129.456004,34.8773318 130.474661,34.728 131.52,34.728 C132.33067,34.728 133.071996,34.8026659 133.744,34.952 C134.416003,35.1013341 135.007997,35.271999 135.52,35.464 C136.032002,35.656001 136.458664,35.8266659 136.8,35.976 C137.141335,36.1253341 137.386665,36.2 137.536,36.2 C137.642667,36.2 137.733332,36.1680003 137.808,36.104 C137.882667,36.0399997 137.962666,35.9866669 138.048,35.944 L138.432,36.168 L136.32,39.208 L135.968,38.952 Z M151.615999,48.424 C151.722667,48.424 151.829332,48.386667 151.935999,48.312 C152.042667,48.237333 152.095999,48.1146675 152.095999,47.944 L152.095999,37.288 L147.935999,37.288 C147.765332,37.288 147.605334,37.3306662 147.455999,37.416 C147.306665,37.5013338 147.231999,37.639999 147.231999,37.832 L146.655999,37.832 L146.655999,34.152 L147.231999,34.152 C147.231999,34.4506682 147.306665,34.6533328 147.455999,34.76 C147.605334,34.8666672 147.765332,34.92 147.935999,34.92 L159.327999,34.92 C159.498667,34.92 159.658665,34.8666672 159.807999,34.76 C159.957334,34.6533328 160.031999,34.4506682 160.031999,34.152 L160.607999,34.152 L160.607999,37.832 L160.031999,37.832 C160.031999,37.639999 159.957334,37.5013338 159.807999,37.416 C159.658665,37.3306662 159.498667,37.288 159.327999,37.288 L155.167999,37.288 L155.167999,47.944 C155.167999,48.2640016 155.359998,48.424 155.743999,48.424 L155.743999,49 L151.615999,49 L151.615999,48.424 Z M185.375999,47.944 C185.375999,48.2640016 185.567997,48.424 185.951999,48.424 L185.951999,49 L182.015999,49 L182.015999,48.424 C182.464002,48.424 182.687999,48.2640016 182.687999,47.944 L182.687999,38.312 L174.751999,47.08 C174.495998,47.3573347 174.266667,47.6026656 174.063999,47.816 C173.861332,48.0293344 173.759999,48.1786662 173.759999,48.264 C173.759999,48.3706672 173.834665,48.424 173.983999,48.424 L173.983999,49 L169.823999,49 L169.823999,48.424 C170.208001,48.424 170.399999,48.2640016 170.399999,47.944 L170.399999,35.976 C170.399999,35.6559984 170.208001,35.496 169.823999,35.496 L169.823999,34.92 L173.727999,34.92 L173.727999,35.496 C173.301331,35.496 173.087999,35.6559984 173.087999,35.976 L173.087999,44.968 L180.767999,36.52 C181.237335,35.986664 181.471999,35.6986669 181.471999,35.656 C181.471999,35.5706662 181.397333,35.5173334 181.247999,35.496 L181.247999,34.92 L185.951999,34.92 L185.951999,35.496 C185.567997,35.496 185.375999,35.6559984 185.375999,35.976 L185.375999,47.944 Z M200.127999,47.944 C200.127999,48.2640016 200.330664,48.424 200.735999,48.424 L200.735999,49 L196.543999,49 L196.543999,48.424 C196.885334,48.424 197.055999,48.2640016 197.055999,47.944 L197.055999,35.976 C197.055999,35.6559984 196.885334,35.496 196.543999,35.496 L196.543999,34.92 L200.735999,34.92 L200.735999,35.496 C200.330664,35.496 200.127999,35.6559984 200.127999,35.976 L200.127999,41.192 C200.853336,40.5946637 201.599995,39.992003 202.367999,39.384 C203.136003,38.775997 203.829329,38.2160026 204.447999,37.704 C205.066669,37.1919974 205.578664,36.7600018 205.983999,36.408 C206.389335,36.0559982 206.591999,35.8373338 206.591999,35.752 C206.591999,35.6453328 206.533333,35.5600003 206.415999,35.496 C206.298665,35.4319997 206.186666,35.4 206.079999,35.4 L206.079999,34.92 L211.359999,34.92 L211.359999,35.496 C211.103998,35.5813338 210.720002,35.8266646 210.207999,36.232 L204.863999,40.552 L209.919999,46.824 C210.176001,47.1440016 210.453331,47.4693317 210.751999,47.8 C211.050667,48.1306683 211.349331,48.3386662 211.647999,48.424 L211.647999,49 L206.911999,49 L206.911999,48.424 C207.146667,48.424 207.263999,48.3600006 207.263999,48.232 C207.263999,48.1466662 207.216,48.0293341 207.119999,47.88 C207.023999,47.7306659 206.837334,47.4960016 206.559999,47.176 L202.623999,42.376 L200.127999,44.36 L200.127999,47.944 Z M228.735999,43.112 L226.143999,37.736 L223.871999,43.112 L228.735999,43.112 Z M218.047999,48.424 C218.304,48.3813331 218.511998,48.2586677 218.671999,48.056 C218.832,47.8533323 218.954665,47.6666675 219.039999,47.496 L223.807999,37.096 C223.936,36.7973318 224.037332,36.5573342 224.111999,36.376 C224.186666,36.1946658 224.223999,36.0186675 224.223999,35.848 C224.223999,35.7199994 224.197333,35.6400002 224.143999,35.608 C224.090666,35.5759998 224.031999,35.5386669 223.967999,35.496 L223.967999,34.92 L228.799999,34.92 L228.799999,35.496 C228.735999,35.5386669 228.666666,35.5706666 228.591999,35.592 C228.517332,35.6133334 228.479999,35.6986659 228.479999,35.848 C228.479999,35.9760006 228.527999,36.1306658 228.623999,36.312 C228.72,36.4933342 228.821332,36.7013322 228.927999,36.936 L234.111999,47.816 C234.218666,48.008001 234.335999,48.1466662 234.463999,48.232 C234.592,48.3173338 234.730665,48.3813331 234.879999,48.424 L234.879999,49 L230.335999,49 L230.335999,48.52 C230.442666,48.52 230.554665,48.4880003 230.671999,48.424 C230.789333,48.3599997 230.847999,48.2426675 230.847999,48.072 C230.847999,47.9439994 230.826666,47.8266672 230.783999,47.72 C230.741332,47.6133328 230.687999,47.4746675 230.623999,47.304 L229.759999,45.48 L222.911999,45.48 L222.015999,47.208 C221.930665,47.3786675 221.861333,47.5333326 221.807999,47.672 C221.754666,47.8106674 221.727999,47.9333328 221.727999,48.04 C221.727999,48.2106675 221.781332,48.3173331 221.887999,48.36 C221.994666,48.4026669 222.143998,48.424 222.335999,48.424 L222.335999,49 L218.047999,49 L218.047999,48.424 Z" id="Статистика"></path>
                <g id="Title">
                    <path d="M97.03,15.1 C99.3219482,15.1487767 101.414592,13.8029899 102.321015,11.69733 C103.227438,9.59167009 102.766604,7.14668868 101.155849,5.51547025 C99.5450935,3.88425183 97.1061243,3.39259053 94.9891899,4.27236012 C92.8722555,5.15212971 91.5001596,7.22761871 91.52,9.52 C91.4643331,11.0040425 92.0245832,12.4450887 93.0680486,13.5018105 C94.111514,14.5585322 95.545373,15.1369287 97.03,15.1 L97.03,15.1 Z M97.03,0.83 C101.779038,0.896047446 105.584337,4.78295097 105.54962,9.53232102 C105.514902,14.2816911 101.653186,18.1125489 96.9036898,18.1091624 C92.1541941,18.1057758 88.2979448,14.2694147 88.27,9.52 C88.2019796,7.18280805 89.1054249,4.92190538 90.7653879,3.27520692 C92.4253509,1.62850846 94.693429,0.743230952 97.03,0.83 L97.03,0.83 Z M171.04,3.56 C174.04,3.56 175.54,5.48 175.8,8 L166.33,8 C166.8,5.4 168.6,3.56 171.04,3.56 L171.04,3.56 Z M178.81,10.56 C178.81,10.23 178.86,9.89 178.86,9.56 C178.86,4.56 176.28,0.87 170.86,0.87 C166.24,0.87 162.86,4.57 162.86,9.56 C162.86,9.91 162.86,10.25 162.91,10.56 C163.28,14.84 166.02,18.14 171.76,18.14 C174.222359,18.2046042 176.631481,17.4168709 178.58,15.91 L177.29,13.55 C175.716976,14.720934 173.810959,15.358609 171.85,15.37 C168.27,15.37 166.54,13.42 166.22,10.56 L178.75,10.56 L178.81,10.56 Z" id="Shape"></path>
                    <path d="M193.17,1.27 L193.17,7.99 L184.39,7.99 L184.39,1.27 L181.12,1.27 L181.12,17.68 L184.39,17.68 L184.39,10.54 L193.17,10.54 L193.17,17.68 L196.44,17.68 L196.44,1.27 L193.17,1.27 Z M213.65,1.27 L198.69,1.27 L198.69,4.18 L204.54,4.18 L204.54,17.68 L207.8,17.68 L207.8,4.18 L213.65,4.18 L213.65,1.27 L213.65,1.27 Z M231.19,1.27 L234.46,1.27 L234.46,17.68 L231.19,17.68 L231.19,1.27 Z" id="Shape"></path>
                    <path d="M115.23,9.05 L115.23,8.91 C115.453748,8.82243949 115.652814,8.6817206 115.81,8.5 L122.07,1.28 L118.4,1.28 L112.64,8.01 L111.34,8.01 L111.34,1.28 L108.07,1.28 L108.07,17.69 L111.34,17.69 L111.34,10.55 L112.82,10.55 L119.04,17.69 L123.11,17.69 L115.84,9.48 C115.678654,9.28923549 115.472494,9.14148753 115.24,9.05 L115.23,9.05 Z M221.11,15.21 C220.11,15.21 219.17,15.13 219.17,15.13 L219.17,9.21 C219.82659,9.06640541 220.498116,9.00261045 221.17,9.02 C223.91,9.02 225.11,10.08 225.11,12.02 C225.11,13.96 224.03,15.18 221.11,15.18 L221.11,15.21 Z M221.69,6.25 C220.846092,6.24052914 220.002947,6.30409958 219.17,6.44 L219.17,1.23 L215.9,1.23 L215.9,17.65 C215.9,17.65 218.58,17.91 221.36,17.91 C226.49,17.91 228.18,14.78 228.18,11.91 C228.18,9.04 226.67,6.26 221.69,6.26 L221.69,6.25 Z M78.22,15.1 C74.92,15.1 73.22,12.69 73.22,9.52 C73.22,6.35 75.15,3.84 78.45,3.84 C80.8999892,3.99007189 82.7893282,6.05639809 82.72,8.51 L82.72,13.04 C81.6081057,14.3880247 79.9367597,15.1480628 78.19,15.1 L78.22,15.1 Z M82.85,1.27 L82.76,3.34 L82.55,3.34 C81.4331513,1.8217409 79.6835977,0.897239949 77.8,0.83 C73.01,0.83 70.17,4.53 70.05,9.52 C69.93,14.51 72.82,18.12 77.6,18.12 C79.5002779,18.2498975 81.3395137,17.4203646 82.5,15.91 L82.71,15.91 L82.71,17.35 C82.71,20.53 80.51,21.78 78.03,21.78 C76.2034535,21.7541399 74.4188836,21.2284526 72.87,20.26 L71.8,22.97 C73.6835436,24.083786 75.8317918,24.6709278 78.02,24.67 C82.61,24.67 86.02,21.93 86.02,16.67 L86.02,1.27 L82.85,1.27 Z M136.05,1.27 L136.05,13.17 C135.001485,14.4512065 133.414512,15.1688587 131.76,15.11 C128.76,15.11 127.39,12.7 127.46,9.53 L127.46,1.28 L124.29,1.28 L124.29,9.53 C124.18,14.45 126.15,18.13 130.93,18.13 C132.83225,18.2709684 134.676507,17.439171 135.83,15.92 L136.04,15.92 L136.04,17.35 C136.04,20.53 133.84,21.78 131.35,21.78 C129.526862,21.7523206 127.745989,21.2267037 126.2,20.26 L125.13,22.97 C127.013544,24.083786 129.161792,24.6709278 131.35,24.67 C135.94,24.67 139.35,21.93 139.35,16.67 L139.35,1.27 L136.05,1.27 Z M157.53,1.27 L151.97,9.09 C151.875833,9.22385963 151.804844,9.3725997 151.76,9.53 L151.64,9.53 C151.583765,9.37156759 151.502758,9.22305629 151.4,9.09 L145.4,1.27 L142.32,1.27 L142.32,17.68 L145.59,17.68 L145.59,7.21 C145.601926,6.8243913 145.551269,6.43939891 145.44,6.07 L145.59,6.07 L151.59,14.15 L151.73,14.15 L157.31,6.07 L157.53,6.07 C157.421929,6.43665692 157.371329,6.81784637 157.38,7.2 L157.38,17.67 L160.65,17.67 L160.65,1.27 L157.53,1.27 Z M42.42,17.68 L42.42,1.27 L47.93,1.27 L47.93,8.91 C47.9212403,9.30919805 47.8811167,9.70709005 47.81,10.1 L48.05,10.1 L54.05,1.27 L59.32,1.27 L59.32,17.68 L53.81,17.68 L53.81,9.97 C53.8150364,9.61027508 53.8552275,9.25190405 53.93,8.9 L53.69,8.9 L47.69,17.68 L42.42,17.68 Z M31,13 C32.8467112,12.8608978 34.2741053,11.3219427 34.2741053,9.47 C34.2741053,7.61805734 32.8467112,6.07910219 31,5.94 C29.1532888,6.07910219 27.7258947,7.61805734 27.7258947,9.47 C27.7258947,11.3219427 29.1532888,12.8608978 31,13 L31,13 Z M31,0.83 C36.24,0.83 40.14,4.53 40.14,9.5 C40.14,14.47 36.23,18.12 31,18.12 C25.77,18.12 21.91,14.41 21.91,9.5 C21.91,4.59 25.82,0.83 31,0.83 L31,0.83 Z M15.3,1.27 C15.3,1.27 10.7,7.27 10.52,7.48 C10.4017812,7.59999025 10.3157879,7.74789878 10.27,7.91 L10.03,7.91 C9.96997602,7.75215904 9.8818908,7.60647963 9.77,7.48 L4.68,1.28 L0.34,1.28 L0.34,17.69 L5.65,17.69 L5.65,10.8 C5.65662725,10.4000074 5.61635253,10.0006164 5.53,9.61 L5.77,9.61 L10.04,14.51 L10.27,14.51 L14.27,9.61 L14.51,9.61 C14.423281,10.0005576 14.3830019,10.399992 14.39,10.8 L14.39,17.69 L19.7,17.69 L19.7,1.27 L15.3,1.27 Z" id="Shape"></path>
                </g>
            </g>
        </g>
    </g>
</svg>