<?xml version="1.0" encoding="UTF-8"?>
<svg width="302px" height="63px" viewBox="0 0 302 63" version="1.1" xmlns="http://www.w3.org/2000/svg" xmlns:xlink="http://www.w3.org/1999/xlink">
    <!-- Generator: Sketch 53.2 (72643) - https://sketchapp.com -->
    <title>logo</title>
    <desc>Created with Sketch.</desc>
    <g id="Page-1" stroke="none" stroke-width="1" fill="none" fill-rule="evenodd">
        <g id="logo" fill-rule="nonzero">
            <path d="M13.13,39.62 L13.13,22.97 L0,22.97 L0,39.61 C0.00155880856,45.4732322 3.1312607,50.8901705 8.21,53.82 L22.97,62.35 L22.97,47.2 L14.77,42.46 C13.7553387,41.8741851 13.1302012,40.7916299 13.13,39.62" id="Path" fill="#C79B65"></path>
            <path d="M22.97,55.79 L37.74,47.27 C42.8148903,44.3376294 45.940504,38.9211696 45.94,33.06 L45.94,1.13686838e-13 L22.94,1.13686838e-13 L22.94,13.13 L32.78,13.13 L32.78,33.06 C32.7797988,34.2316299 32.1546613,35.3141851 31.14,35.9 L22.94,40.64 L22.97,55.79 Z" id="Path" fill="#E44E34"></path>
            <polygon id="Path" fill="#FFFFFF" points="22.97 0 0 22.97 22.97 22.97"></polygon>
            <g id="Clipped" transform="translate(67.000000, 4.000000)" fill="#FFFFFF">
                <path d="M18.784,51.72 C18.7199997,51.72 18.6613336,51.7146667 18.608,51.704 C18.5546664,51.6933333 18.4960003,51.688 18.432,51.688 C18.3039994,51.688 18.0000024,51.8159987 17.52,52.072 C17.0399976,52.3280013 16.4320037,52.6159984 15.696,52.936 C14.9599963,53.2560016 14.1226714,53.5333322 13.184,53.768 C12.2453286,54.0026678 11.2640051,54.12 10.24,54.12 C8.89599328,54.12 7.60533952,53.949335 6.368,53.608 C5.13066048,53.266665 4.03733808,52.7386702 3.088,52.024 C2.13866192,51.3093298 1.38666944,50.418672 0.832,49.352 C0.27733056,48.285328 1.42108547e-14,47.0373405 1.42108547e-14,45.608 C1.42108547e-14,44.199993 0.27733056,42.9573387 0.832,41.88 C1.38666944,40.8026613 2.13866192,39.901337 3.088,39.176 C4.03733808,38.450663 5.13066048,37.9066685 6.368,37.544 C7.60533952,37.1813315 8.89599328,37 10.24,37 C11.3280054,37 12.3146622,37.0853325 13.2,37.256 C14.0853378,37.4266675 14.8586634,37.607999 15.52,37.8 C16.1813366,37.992001 16.7039981,38.1733325 17.088,38.344 C17.4720019,38.5146675 17.7066662,38.6 17.792,38.6 C17.8986672,38.6 17.989333,38.5466672 18.064,38.44 C18.138667,38.3333328 18.1973331,38.2480003 18.24,38.184 L18.72,38.568 L16.224,42.44 L15.904,42.216 C15.904,42.1519997 15.8986667,42.0880003 15.888,42.024 C15.8773333,41.9599997 15.8613334,41.8853338 15.84,41.8 C15.7973331,41.5653322 15.5840019,41.3253346 15.2,41.08 C14.8159981,40.8346654 14.3413362,40.616001 13.776,40.424 C13.2106638,40.231999 12.6133365,40.0720006 11.984,39.944 C11.3546635,39.8159994 10.773336,39.752 10.24,39.752 C9.34399552,39.752 8.48533744,39.8799987 7.664,40.136 C6.84266256,40.3920013 6.12800304,40.7653309 5.52,41.256 C4.91199696,41.7466691 4.42666848,42.3493298 4.064,43.064 C3.70133152,43.7786702 3.52,44.5946621 3.52,45.512 C3.52,46.4293379 3.70133152,47.2453298 4.064,47.96 C4.42666848,48.6746702 4.91199696,49.2773309 5.52,49.768 C6.12800304,50.2586691 6.84266256,50.6319987 7.664,50.888 C8.48533744,51.1440013 9.34399552,51.272 10.24,51.272 C10.9226701,51.272 11.6373296,51.1920008 12.384,51.032 C13.1306704,50.8719992 13.8133302,50.6693346 14.432,50.424 C15.0506698,50.1786654 15.5679979,49.9013349 15.984,49.592 C16.4000021,49.2826651 16.608,48.9893347 16.608,48.712 C16.608,48.5626659 16.5653338,48.4346672 16.48,48.328 L16.928,48.072 L19.04,51.464 L18.784,51.72 Z M32.9599999,53.448 C33.0666671,53.448 33.1733327,53.410667 33.2799999,53.336 C33.3866671,53.261333 33.4399999,53.1386675 33.4399999,52.968 L33.4399999,42.312 L29.2799999,42.312 C29.1093324,42.312 28.949334,42.3546662 28.7999999,42.44 C28.6506658,42.5253338 28.5759999,42.663999 28.5759999,42.856 L27.9999999,42.856 L27.9999999,39.176 L28.5759999,39.176 C28.5759999,39.4746682 28.6506658,39.6773328 28.7999999,39.784 C28.949334,39.8906672 29.1093324,39.944 29.2799999,39.944 L40.6719999,39.944 C40.8426674,39.944 41.0026658,39.8906672 41.1519999,39.784 C41.301334,39.6773328 41.3759999,39.4746682 41.3759999,39.176 L41.9519999,39.176 L41.9519999,42.856 L41.3759999,42.856 C41.3759999,42.663999 41.301334,42.5253338 41.1519999,42.44 C41.0026658,42.3546662 40.8426674,42.312 40.6719999,42.312 L36.5119999,42.312 L36.5119999,52.968 C36.5119999,53.2880016 36.703998,53.448 37.0879999,53.448 L37.0879999,54.024 L32.9599999,54.024 L32.9599999,53.448 Z M59.7439998,48.136 L57.1519998,42.76 L54.8799998,48.136 L59.7439998,48.136 Z M49.0559998,53.448 C49.3120011,53.4053331 49.519999,53.2826677 49.6799998,53.08 C49.8400006,52.8773323 49.962666,52.6906675 50.0479998,52.52 L54.8159998,42.12 C54.9440004,41.8213318 55.0453328,41.5813342 55.1199998,41.4 C55.1946668,41.2186658 55.2319998,41.0426675 55.2319998,40.872 C55.2319998,40.7439994 55.2053334,40.6640002 55.1519998,40.632 C55.0986662,40.5999998 55.0400001,40.5626669 54.9759998,40.52 L54.9759998,39.944 L59.8079998,39.944 L59.8079998,40.52 C59.7439995,40.5626669 59.6746668,40.5946666 59.5999998,40.616 C59.5253328,40.6373334 59.4879998,40.7226659 59.4879998,40.872 C59.4879998,41.0000006 59.5359993,41.1546658 59.6319998,41.336 C59.7280003,41.5173342 59.8293326,41.7253322 59.9359998,41.96 L65.1199998,52.84 C65.226667,53.032001 65.3439992,53.1706662 65.4719998,53.256 C65.6000004,53.3413338 65.7386657,53.4053331 65.8879998,53.448 L65.8879998,54.024 L61.3439998,54.024 L61.3439998,53.544 C61.450667,53.544 61.5626659,53.5120003 61.6799998,53.448 C61.7973337,53.3839997 61.8559998,53.2666675 61.8559998,53.096 C61.8559998,52.9679994 61.8346667,52.8506672 61.7919998,52.744 C61.7493329,52.6373328 61.6960001,52.4986675 61.6319998,52.328 L60.7679998,50.504 L53.9199998,50.504 L53.0239998,52.232 C52.938666,52.4026675 52.8693334,52.5573326 52.8159998,52.696 C52.7626662,52.8346674 52.7359998,52.9573328 52.7359998,53.064 C52.7359998,53.2346675 52.7893326,53.3413331 52.8959998,53.384 C53.002667,53.4266669 53.1519988,53.448 53.3439998,53.448 L53.3439998,54.024 L49.0559998,54.024 L49.0559998,53.448 Z M77.9519997,53.448 C78.0586669,53.448 78.1653325,53.410667 78.2719997,53.336 C78.3786669,53.261333 78.4319997,53.1386675 78.4319997,52.968 L78.4319997,42.312 L74.2719997,42.312 C74.1013322,42.312 73.9413338,42.3546662 73.7919997,42.44 C73.6426656,42.5253338 73.5679997,42.663999 73.5679997,42.856 L72.9919997,42.856 L72.9919997,39.176 L73.5679997,39.176 C73.5679997,39.4746682 73.6426656,39.6773328 73.7919997,39.784 C73.9413338,39.8906672 74.1013322,39.944 74.2719997,39.944 L85.6639997,39.944 C85.8346672,39.944 85.9946656,39.8906672 86.1439997,39.784 C86.2933338,39.6773328 86.3679997,39.4746682 86.3679997,39.176 L86.9439997,39.176 L86.9439997,42.856 L86.3679997,42.856 C86.3679997,42.663999 86.2933338,42.5253338 86.1439997,42.44 C85.9946656,42.3546662 85.8346672,42.312 85.6639997,42.312 L81.5039997,42.312 L81.5039997,52.968 C81.5039997,53.2880016 81.6959978,53.448 82.0799997,53.448 L82.0799997,54.024 L77.9519997,54.024 L77.9519997,53.448 Z M111.712,52.968 C111.712,53.2880016 111.903998,53.448 112.288,53.448 L112.288,54.024 L108.352,54.024 L108.352,53.448 C108.800002,53.448 109.024,53.2880016 109.024,52.968 L109.024,43.336 L101.088,52.104 C100.831998,52.3813347 100.602667,52.6266656 100.4,52.84 C100.197332,53.0533344 100.096,53.2026662 100.096,53.288 C100.096,53.3946672 100.170666,53.448 100.32,53.448 L100.32,54.024 L96.1599996,54.024 L96.1599996,53.448 C96.5440015,53.448 96.7359996,53.2880016 96.7359996,52.968 L96.7359996,41 C96.7359996,40.6799984 96.5440015,40.52 96.1599996,40.52 L96.1599996,39.944 L100.064,39.944 L100.064,40.52 C99.6373308,40.52 99.4239996,40.6799984 99.4239996,41 L99.4239996,49.992 L107.104,41.544 C107.573335,41.010664 107.808,40.7226669 107.808,40.68 C107.808,40.5946662 107.733334,40.5413334 107.584,40.52 L107.584,39.944 L112.288,39.944 L112.288,40.52 C111.903998,40.52 111.712,40.6799984 111.712,41 L111.712,52.968 Z M134.24,43.976 C134.24,43.9333331 134.234666,43.8906669 134.224,43.848 C134.213333,43.8053331 134.208,43.7520003 134.208,43.688 C134.208,43.5813328 134.101334,43.4373342 133.888,43.256 C133.674665,43.0746658 133.370668,42.8986675 132.976,42.728 C132.581331,42.5573325 132.117336,42.4133339 131.584,42.296 C131.050664,42.1786661 130.464003,42.12 129.824,42.12 C129.055996,42.12 128.357336,42.2213323 127.728,42.424 C127.098663,42.6266677 126.549335,42.9306646 126.08,43.336 C125.610664,43.7413354 125.248001,44.2426637 124.992,44.84 C124.735998,45.4373363 124.608,46.1199962 124.608,46.888 C124.608,47.6560038 124.751998,48.343997 125.04,48.952 C125.328001,49.560003 125.706664,50.0826645 126.176,50.52 C126.645335,50.9573355 127.178663,51.2879989 127.776,51.512 C128.373336,51.7360011 128.98133,51.848 129.6,51.848 C130.176002,51.848 130.762663,51.7733341 131.36,51.624 C131.957336,51.4746659 132.50133,51.2986677 132.992,51.096 C133.482669,50.8933323 133.882665,50.6746678 134.192,50.44 C134.501334,50.2053322 134.656,49.992001 134.656,49.8 L134.656,49.544 C134.656,49.4159994 134.645333,49.3093338 134.624,49.224 L134.976,48.904 L137.344,52.296 L137.024,52.456 C136.767998,52.3493328 136.586667,52.296 136.48,52.296 C136.309332,52.296 136.032001,52.391999 135.648,52.584 C135.263998,52.776001 134.778669,52.9946654 134.192,53.24 C133.60533,53.4853346 132.92267,53.6933325 132.144,53.864 C131.365329,54.0346675 130.496004,54.12 129.536,54.12 C128.554661,54.12 127.584004,53.9813347 126.624,53.704 C125.663995,53.4266653 124.81067,52.984003 124.064,52.376 C123.317329,51.767997 122.709335,51.0106712 122.24,50.104 C121.770664,49.1973288 121.536,48.1466726 121.536,46.952 C121.536,45.7573274 121.770664,44.7120045 122.24,43.816 C122.709335,42.9199955 123.327996,42.168003 124.096,41.56 C124.864003,40.951997 125.743995,40.4986682 126.736,40.2 C127.728004,39.9013318 128.746661,39.752 129.792,39.752 C130.60267,39.752 131.343996,39.8266659 132.016,39.976 C132.688003,40.1253341 133.279997,40.295999 133.792,40.488 C134.304002,40.680001 134.730664,40.8506659 135.072,41 C135.413335,41.1493341 135.658665,41.224 135.808,41.224 C135.914667,41.224 136.005332,41.1920003 136.08,41.128 C136.154667,41.0639997 136.234666,41.0106669 136.32,40.968 L136.704,41.192 L134.592,44.232 L134.24,43.976 Z M149.887999,53.448 C149.994667,53.448 150.101332,53.410667 150.207999,53.336 C150.314667,53.261333 150.367999,53.1386675 150.367999,52.968 L150.367999,42.312 L146.207999,42.312 C146.037332,42.312 145.877334,42.3546662 145.727999,42.44 C145.578665,42.5253338 145.503999,42.663999 145.503999,42.856 L144.927999,42.856 L144.927999,39.176 L145.503999,39.176 C145.503999,39.4746682 145.578665,39.6773328 145.727999,39.784 C145.877334,39.8906672 146.037332,39.944 146.207999,39.944 L157.599999,39.944 C157.770667,39.944 157.930665,39.8906672 158.079999,39.784 C158.229334,39.6773328 158.303999,39.4746682 158.303999,39.176 L158.879999,39.176 L158.879999,42.856 L158.303999,42.856 C158.303999,42.663999 158.229334,42.5253338 158.079999,42.44 C157.930665,42.3546662 157.770667,42.312 157.599999,42.312 L153.439999,42.312 L153.439999,52.968 C153.439999,53.2880016 153.631998,53.448 154.015999,53.448 L154.015999,54.024 L149.887999,54.024 L149.887999,53.448 Z M183.647999,52.968 C183.647999,53.2880016 183.839997,53.448 184.223999,53.448 L184.223999,54.024 L180.287999,54.024 L180.287999,53.448 C180.736002,53.448 180.959999,53.2880016 180.959999,52.968 L180.959999,43.336 L173.023999,52.104 C172.767998,52.3813347 172.538667,52.6266656 172.335999,52.84 C172.133332,53.0533344 172.031999,53.2026662 172.031999,53.288 C172.031999,53.3946672 172.106665,53.448 172.255999,53.448 L172.255999,54.024 L168.095999,54.024 L168.095999,53.448 C168.480001,53.448 168.671999,53.2880016 168.671999,52.968 L168.671999,41 C168.671999,40.6799984 168.480001,40.52 168.095999,40.52 L168.095999,39.944 L171.999999,39.944 L171.999999,40.52 C171.573331,40.52 171.359999,40.6799984 171.359999,41 L171.359999,49.992 L179.039999,41.544 C179.509335,41.010664 179.743999,40.7226669 179.743999,40.68 C179.743999,40.5946662 179.669333,40.5413334 179.519999,40.52 L179.519999,39.944 L184.223999,39.944 L184.223999,40.52 C183.839997,40.52 183.647999,40.6799984 183.647999,41 L183.647999,52.968 Z M198.399999,52.968 C198.399999,53.2880016 198.602664,53.448 199.007999,53.448 L199.007999,54.024 L194.815999,54.024 L194.815999,53.448 C195.157334,53.448 195.327999,53.2880016 195.327999,52.968 L195.327999,41 C195.327999,40.6799984 195.157334,40.52 194.815999,40.52 L194.815999,39.944 L199.007999,39.944 L199.007999,40.52 C198.602664,40.52 198.399999,40.6799984 198.399999,41 L198.399999,46.216 C199.125336,45.6186637 199.871995,45.016003 200.639999,44.408 C201.408003,43.799997 202.101329,43.2400026 202.719999,42.728 C203.338669,42.2159974 203.850664,41.7840018 204.255999,41.432 C204.661335,41.0799982 204.863999,40.8613338 204.863999,40.776 C204.863999,40.6693328 204.805333,40.5840003 204.687999,40.52 C204.570665,40.4559997 204.458666,40.424 204.351999,40.424 L204.351999,39.944 L209.631999,39.944 L209.631999,40.52 C209.375998,40.6053338 208.992002,40.8506646 208.479999,41.256 L203.135999,45.576 L208.191999,51.848 C208.448001,52.1680016 208.725331,52.4933317 209.023999,52.824 C209.322667,53.1546683 209.621331,53.3626662 209.919999,53.448 L209.919999,54.024 L205.183999,54.024 L205.183999,53.448 C205.418667,53.448 205.535999,53.3840006 205.535999,53.256 C205.535999,53.1706662 205.488,53.0533341 205.391999,52.904 C205.295999,52.7546659 205.109334,52.5200016 204.831999,52.2 L200.895999,47.4 L198.399999,49.384 L198.399999,52.968 Z M227.007999,48.136 L224.415999,42.76 L222.143999,48.136 L227.007999,48.136 Z M216.319999,53.448 C216.576,53.4053331 216.783998,53.2826677 216.943999,53.08 C217.104,52.8773323 217.226665,52.6906675 217.311999,52.52 L222.079999,42.12 C222.208,41.8213318 222.309332,41.5813342 222.383999,41.4 C222.458666,41.2186658 222.495999,41.0426675 222.495999,40.872 C222.495999,40.7439994 222.469333,40.6640002 222.415999,40.632 C222.362666,40.5999998 222.303999,40.5626669 222.239999,40.52 L222.239999,39.944 L227.071999,39.944 L227.071999,40.52 C227.007999,40.5626669 226.938666,40.5946666 226.863999,40.616 C226.789332,40.6373334 226.751999,40.7226659 226.751999,40.872 C226.751999,41.0000006 226.799999,41.1546658 226.895999,41.336 C226.992,41.5173342 227.093332,41.7253322 227.199999,41.96 L232.383999,52.84 C232.490666,53.032001 232.607999,53.1706662 232.735999,53.256 C232.864,53.3413338 233.002665,53.4053331 233.151999,53.448 L233.151999,54.024 L228.607999,54.024 L228.607999,53.544 C228.714666,53.544 228.826665,53.5120003 228.943999,53.448 C229.061333,53.3839997 229.119999,53.2666675 229.119999,53.096 C229.119999,52.9679994 229.098666,52.8506672 229.055999,52.744 C229.013332,52.6373328 228.959999,52.4986675 228.895999,52.328 L228.031999,50.504 L221.183999,50.504 L220.287999,52.232 C220.202665,52.4026675 220.133333,52.5573326 220.079999,52.696 C220.026666,52.8346674 219.999999,52.9573328 219.999999,53.064 C219.999999,53.2346675 220.053332,53.3413331 220.159999,53.384 C220.266666,53.4266669 220.415998,53.448 220.607999,53.448 L220.607999,54.024 L216.319999,54.024 L216.319999,53.448 Z" id="Статистика"></path>
                <g id="Title">
                    <path d="M97.03,15.1 C99.3219482,15.1487767 101.414592,13.8029899 102.321015,11.69733 C103.227438,9.59167009 102.766604,7.14668868 101.155849,5.51547025 C99.5450935,3.88425183 97.1061243,3.39259053 94.9891899,4.27236012 C92.8722555,5.15212971 91.5001596,7.22761871 91.52,9.52 C91.4643331,11.0040425 92.0245832,12.4450887 93.0680486,13.5018105 C94.111514,14.5585322 95.545373,15.1369287 97.03,15.1 L97.03,15.1 Z M97.03,0.83 C101.779038,0.896047446 105.584337,4.78295097 105.54962,9.53232102 C105.514902,14.2816911 101.653186,18.1125489 96.9036898,18.1091624 C92.1541941,18.1057758 88.2979448,14.2694147 88.27,9.52 C88.2019796,7.18280805 89.1054249,4.92190538 90.7653879,3.27520692 C92.4253509,1.62850846 94.693429,0.743230952 97.03,0.83 L97.03,0.83 Z M171.04,3.56 C174.04,3.56 175.54,5.48 175.8,8 L166.33,8 C166.8,5.4 168.6,3.56 171.04,3.56 L171.04,3.56 Z M178.81,10.56 C178.81,10.23 178.86,9.89 178.86,9.56 C178.86,4.56 176.28,0.87 170.86,0.87 C166.24,0.87 162.86,4.57 162.86,9.56 C162.86,9.91 162.86,10.25 162.91,10.56 C163.28,14.84 166.02,18.14 171.76,18.14 C174.222359,18.2046042 176.631481,17.4168709 178.58,15.91 L177.29,13.55 C175.716976,14.720934 173.810959,15.358609 171.85,15.37 C168.27,15.37 166.54,13.42 166.22,10.56 L178.75,10.56 L178.81,10.56 Z" id="Shape"></path>
                    <path d="M193.17,1.27 L193.17,7.99 L184.39,7.99 L184.39,1.27 L181.12,1.27 L181.12,17.68 L184.39,17.68 L184.39,10.54 L193.17,10.54 L193.17,17.68 L196.44,17.68 L196.44,1.27 L193.17,1.27 Z M213.65,1.27 L198.69,1.27 L198.69,4.18 L204.54,4.18 L204.54,17.68 L207.8,17.68 L207.8,4.18 L213.65,4.18 L213.65,1.27 L213.65,1.27 Z M231.19,1.27 L234.46,1.27 L234.46,17.68 L231.19,17.68 L231.19,1.27 Z" id="Shape"></path>
                    <path d="M115.23,9.05 L115.23,8.91 C115.453748,8.82243949 115.652814,8.6817206 115.81,8.5 L122.07,1.28 L118.4,1.28 L112.64,8.01 L111.34,8.01 L111.34,1.28 L108.07,1.28 L108.07,17.69 L111.34,17.69 L111.34,10.55 L112.82,10.55 L119.04,17.69 L123.11,17.69 L115.84,9.48 C115.678654,9.28923549 115.472494,9.14148753 115.24,9.05 L115.23,9.05 Z M221.11,15.21 C220.11,15.21 219.17,15.13 219.17,15.13 L219.17,9.21 C219.82659,9.06640541 220.498116,9.00261045 221.17,9.02 C223.91,9.02 225.11,10.08 225.11,12.02 C225.11,13.96 224.03,15.18 221.11,15.18 L221.11,15.21 Z M221.69,6.25 C220.846092,6.24052914 220.002947,6.30409958 219.17,6.44 L219.17,1.23 L215.9,1.23 L215.9,17.65 C215.9,17.65 218.58,17.91 221.36,17.91 C226.49,17.91 228.18,14.78 228.18,11.91 C228.18,9.04 226.67,6.26 221.69,6.26 L221.69,6.25 Z M78.22,15.1 C74.92,15.1 73.22,12.69 73.22,9.52 C73.22,6.35 75.15,3.84 78.45,3.84 C80.8999892,3.99007189 82.7893282,6.05639809 82.72,8.51 L82.72,13.04 C81.6081057,14.3880247 79.9367597,15.1480628 78.19,15.1 L78.22,15.1 Z M82.85,1.27 L82.76,3.34 L82.55,3.34 C81.4331513,1.8217409 79.6835977,0.897239949 77.8,0.83 C73.01,0.83 70.17,4.53 70.05,9.52 C69.93,14.51 72.82,18.12 77.6,18.12 C79.5002779,18.2498975 81.3395137,17.4203646 82.5,15.91 L82.71,15.91 L82.71,17.35 C82.71,20.53 80.51,21.78 78.03,21.78 C76.2034535,21.7541399 74.4188836,21.2284526 72.87,20.26 L71.8,22.97 C73.6835436,24.083786 75.8317918,24.6709278 78.02,24.67 C82.61,24.67 86.02,21.93 86.02,16.67 L86.02,1.27 L82.85,1.27 Z M136.05,1.27 L136.05,13.17 C135.001485,14.4512065 133.414512,15.1688587 131.76,15.11 C128.76,15.11 127.39,12.7 127.46,9.53 L127.46,1.28 L124.29,1.28 L124.29,9.53 C124.18,14.45 126.15,18.13 130.93,18.13 C132.83225,18.2709684 134.676507,17.439171 135.83,15.92 L136.04,15.92 L136.04,17.35 C136.04,20.53 133.84,21.78 131.35,21.78 C129.526862,21.7523206 127.745989,21.2267037 126.2,20.26 L125.13,22.97 C127.013544,24.083786 129.161792,24.6709278 131.35,24.67 C135.94,24.67 139.35,21.93 139.35,16.67 L139.35,1.27 L136.05,1.27 Z M157.53,1.27 L151.97,9.09 C151.875833,9.22385963 151.804844,9.3725997 151.76,9.53 L151.64,9.53 C151.583765,9.37156759 151.502758,9.22305629 151.4,9.09 L145.4,1.27 L142.32,1.27 L142.32,17.68 L145.59,17.68 L145.59,7.21 C145.601926,6.8243913 145.551269,6.43939891 145.44,6.07 L145.59,6.07 L151.59,14.15 L151.73,14.15 L157.31,6.07 L157.53,6.07 C157.421929,6.43665692 157.371329,6.81784637 157.38,7.2 L157.38,17.67 L160.65,17.67 L160.65,1.27 L157.53,1.27 Z M42.42,17.68 L42.42,1.27 L47.93,1.27 L47.93,8.91 C47.9212403,9.30919805 47.8811167,9.70709005 47.81,10.1 L48.05,10.1 L54.05,1.27 L59.32,1.27 L59.32,17.68 L53.81,17.68 L53.81,9.97 C53.8150364,9.61027508 53.8552275,9.25190405 53.93,8.9 L53.69,8.9 L47.69,17.68 L42.42,17.68 Z M31,13 C32.8467112,12.8608978 34.2741053,11.3219427 34.2741053,9.47 C34.2741053,7.61805734 32.8467112,6.07910219 31,5.94 C29.1532888,6.07910219 27.7258947,7.61805734 27.7258947,9.47 C27.7258947,11.3219427 29.1532888,12.8608978 31,13 L31,13 Z M31,0.83 C36.24,0.83 40.14,4.53 40.14,9.5 C40.14,14.47 36.23,18.12 31,18.12 C25.77,18.12 21.91,14.41 21.91,9.5 C21.91,4.59 25.82,0.83 31,0.83 L31,0.83 Z M15.3,1.27 C15.3,1.27 10.7,7.27 10.52,7.48 C10.4017812,7.59999025 10.3157879,7.74789878 10.27,7.91 L10.03,7.91 C9.96997602,7.75215904 9.8818908,7.60647963 9.77,7.48 L4.68,1.28 L0.34,1.28 L0.34,17.69 L5.65,17.69 L5.65,10.8 C5.65662725,10.4000074 5.61635253,10.0006164 5.53,9.61 L5.77,9.61 L10.04,14.51 L10.27,14.51 L14.27,9.61 L14.51,9.61 C14.423281,10.0005576 14.3830019,10.399992 14.39,10.8 L14.39,17.69 L19.7,17.69 L19.7,1.27 L15.3,1.27 Z" id="Shape"></path>
                </g>
            </g>
        </g>
    </g>
</svg>