<?xml version="1.0" encoding="UTF-8"?>
<svg width="302px" height="63px" viewBox="0 0 302 63" version="1.1" xmlns="http://www.w3.org/2000/svg" xmlns:xlink="http://www.w3.org/1999/xlink">
    <!-- Generator: Sketch 53.2 (72643) - https://sketchapp.com -->
    <title>logo</title>
    <desc>Created with Sketch.</desc>
    <g id="Page-1" stroke="none" stroke-width="1" fill="none" fill-rule="evenodd">
        <g id="logo" fill-rule="nonzero">
            <path d="M13.13,39.62 L13.13,22.97 L0,22.97 L0,39.61 C0.00155880856,45.4732322 3.1312607,50.8901705 8.21,53.82 L22.97,62.35 L22.97,47.2 L14.77,42.46 C13.7553387,41.8741851 13.1302012,40.7916299 13.13,39.62" id="Path" fill="#C79B65"></path>
            <path d="M22.97,55.79 L37.74,47.27 C42.8148903,44.3376294 45.940504,38.9211696 45.94,33.06 L45.94,1.13686838e-13 L22.94,1.13686838e-13 L22.94,13.13 L32.78,13.13 L32.78,33.06 C32.7797988,34.2316299 32.1546613,35.3141851 31.14,35.9 L22.94,40.64 L22.97,55.79 Z" id="Path" fill="#E44E34"></path>
            <polygon id="Path" fill="#FFFFFF" points="22.97 0 0 22.97 22.97 22.97"></polygon>
            <g id="Мои-документы" transform="translate(67.000000, 4.000000)" fill="#FFFFFF">
                <path d="M97.03,15.1 C99.3219482,15.1487767 101.414592,13.8029899 102.321015,11.69733 C103.227438,9.59167009 102.766604,7.14668868 101.155849,5.51547025 C99.5450935,3.88425183 97.1061243,3.39259053 94.9891899,4.27236012 C92.8722555,5.15212971 91.5001596,7.22761871 91.52,9.52 C91.4643331,11.0040425 92.0245832,12.4450887 93.0680486,13.5018105 C94.111514,14.5585322 95.545373,15.1369287 97.03,15.1 L97.03,15.1 Z M97.03,0.83 C101.779038,0.896047446 105.584337,4.78295097 105.54962,9.53232102 C105.514902,14.2816911 101.653186,18.1125489 96.9036898,18.1091624 C92.1541941,18.1057758 88.2979448,14.2694147 88.27,9.52 C88.2019796,7.18280805 89.1054249,4.92190538 90.7653879,3.27520692 C92.4253509,1.62850846 94.693429,0.743230952 97.03,0.83 L97.03,0.83 Z M171.04,3.56 C174.04,3.56 175.54,5.48 175.8,8 L166.33,8 C166.8,5.4 168.6,3.56 171.04,3.56 L171.04,3.56 Z M178.81,10.56 C178.81,10.23 178.86,9.89 178.86,9.56 C178.86,4.56 176.28,0.87 170.86,0.87 C166.24,0.87 162.86,4.57 162.86,9.56 C162.86,9.91 162.86,10.25 162.91,10.56 C163.28,14.84 166.02,18.14 171.76,18.14 C174.222359,18.2046042 176.631481,17.4168709 178.58,15.91 L177.29,13.55 C175.716976,14.720934 173.810959,15.358609 171.85,15.37 C168.27,15.37 166.54,13.42 166.22,10.56 L178.75,10.56 L178.81,10.56 Z" id="Shape"></path>
                <path d="M193.17,1.27 L193.17,7.99 L184.39,7.99 L184.39,1.27 L181.12,1.27 L181.12,17.68 L184.39,17.68 L184.39,10.54 L193.17,10.54 L193.17,17.68 L196.44,17.68 L196.44,1.27 L193.17,1.27 Z M213.65,1.27 L198.69,1.27 L198.69,4.18 L204.54,4.18 L204.54,17.68 L207.8,17.68 L207.8,4.18 L213.65,4.18 L213.65,1.27 L213.65,1.27 Z M231.19,1.27 L234.46,1.27 L234.46,17.68 L231.19,17.68 L231.19,1.27 Z" id="Shape"></path>
                <path d="M115.23,9.05 L115.23,8.91 C115.453748,8.82243949 115.652814,8.6817206 115.81,8.5 L122.07,1.28 L118.4,1.28 L112.64,8.01 L111.34,8.01 L111.34,1.28 L108.07,1.28 L108.07,17.69 L111.34,17.69 L111.34,10.55 L112.82,10.55 L119.04,17.69 L123.11,17.69 L115.84,9.48 C115.678654,9.28923549 115.472494,9.14148753 115.24,9.05 L115.23,9.05 Z M221.11,15.21 C220.11,15.21 219.17,15.13 219.17,15.13 L219.17,9.21 C219.82659,9.06640541 220.498116,9.00261045 221.17,9.02 C223.91,9.02 225.11,10.08 225.11,12.02 C225.11,13.96 224.03,15.18 221.11,15.18 L221.11,15.21 Z M221.69,6.25 C220.846092,6.24052914 220.002947,6.30409958 219.17,6.44 L219.17,1.23 L215.9,1.23 L215.9,17.65 C215.9,17.65 218.58,17.91 221.36,17.91 C226.49,17.91 228.18,14.78 228.18,11.91 C228.18,9.04 226.67,6.26 221.69,6.26 L221.69,6.25 Z M78.22,15.1 C74.92,15.1 73.22,12.69 73.22,9.52 C73.22,6.35 75.15,3.84 78.45,3.84 C80.8999892,3.99007189 82.7893282,6.05639809 82.72,8.51 L82.72,13.04 C81.6081057,14.3880247 79.9367597,15.1480628 78.19,15.1 L78.22,15.1 Z M82.85,1.27 L82.76,3.34 L82.55,3.34 C81.4331513,1.8217409 79.6835977,0.897239949 77.8,0.83 C73.01,0.83 70.17,4.53 70.05,9.52 C69.93,14.51 72.82,18.12 77.6,18.12 C79.5002779,18.2498975 81.3395137,17.4203646 82.5,15.91 L82.71,15.91 L82.71,17.35 C82.71,20.53 80.51,21.78 78.03,21.78 C76.2034535,21.7541399 74.4188836,21.2284526 72.87,20.26 L71.8,22.97 C73.6835436,24.083786 75.8317918,24.6709278 78.02,24.67 C82.61,24.67 86.02,21.93 86.02,16.67 L86.02,1.27 L82.85,1.27 Z M136.05,1.27 L136.05,13.17 C135.001485,14.4512065 133.414512,15.1688587 131.76,15.11 C128.76,15.11 127.39,12.7 127.46,9.53 L127.46,1.28 L124.29,1.28 L124.29,9.53 C124.18,14.45 126.15,18.13 130.93,18.13 C132.83225,18.2709684 134.676507,17.439171 135.83,15.92 L136.04,15.92 L136.04,17.35 C136.04,20.53 133.84,21.78 131.35,21.78 C129.526862,21.7523206 127.745989,21.2267037 126.2,20.26 L125.13,22.97 C127.013544,24.083786 129.161792,24.6709278 131.35,24.67 C135.94,24.67 139.35,21.93 139.35,16.67 L139.35,1.27 L136.05,1.27 Z M157.53,1.27 L151.97,9.09 C151.875833,9.22385963 151.804844,9.3725997 151.76,9.53 L151.64,9.53 C151.583765,9.37156759 151.502758,9.22305629 151.4,9.09 L145.4,1.27 L142.32,1.27 L142.32,17.68 L145.59,17.68 L145.59,7.21 C145.601926,6.8243913 145.551269,6.43939891 145.44,6.07 L145.59,6.07 L151.59,14.15 L151.73,14.15 L157.31,6.07 L157.53,6.07 C157.421929,6.43665692 157.371329,6.81784637 157.38,7.2 L157.38,17.67 L160.65,17.67 L160.65,1.27 L157.53,1.27 Z M42.42,17.68 L42.42,1.27 L47.93,1.27 L47.93,8.91 C47.9212403,9.30919805 47.8811167,9.70709005 47.81,10.1 L48.05,10.1 L54.05,1.27 L59.32,1.27 L59.32,17.68 L53.81,17.68 L53.81,9.97 C53.8150364,9.61027508 53.8552275,9.25190405 53.93,8.9 L53.69,8.9 L47.69,17.68 L42.42,17.68 Z M31,13 C32.8467112,12.8608978 34.2741053,11.3219427 34.2741053,9.47 C34.2741053,7.61805734 32.8467112,6.07910219 31,5.94 C29.1532888,6.07910219 27.7258947,7.61805734 27.7258947,9.47 C27.7258947,11.3219427 29.1532888,12.8608978 31,13 L31,13 Z M31,0.83 C36.24,0.83 40.14,4.53 40.14,9.5 C40.14,14.47 36.23,18.12 31,18.12 C25.77,18.12 21.91,14.41 21.91,9.5 C21.91,4.59 25.82,0.83 31,0.83 L31,0.83 Z M15.3,1.27 C15.3,1.27 10.7,7.27 10.52,7.48 C10.4017812,7.59999025 10.3157879,7.74789878 10.27,7.91 L10.03,7.91 C9.96997602,7.75215904 9.8818908,7.60647963 9.77,7.48 L4.68,1.28 L0.34,1.28 L0.34,17.69 L5.65,17.69 L5.65,10.8 C5.65662725,10.4000074 5.61635253,10.0006164 5.53,9.61 L5.77,9.61 L10.04,14.51 L10.27,14.51 L14.27,9.61 L14.51,9.61 C14.423281,10.0005576 14.3830019,10.399992 14.39,10.8 L14.39,17.69 L19.7,17.69 L19.7,1.27 L15.3,1.27 Z" id="Shape"></path>
            </g>
        </g>
    </g>
</svg>