<?xml version="1.0" encoding="UTF-8"?>
<svg width="600px" height="600px" viewBox="0 0 600 600" version="1.1" xmlns="http://www.w3.org/2000/svg" xmlns:xlink="http://www.w3.org/1999/xlink">
    <!-- Generator: Sketch 53.2 (72643) - https://sketchapp.com -->
    <title>avatar</title>
    <desc>Created with Sketch.</desc>
    <g id="Page-1" stroke="none" stroke-width="1" fill="none" fill-rule="evenodd">
        <g id="avatar">
            <rect id="Rectangle" fill="#E0E3E8" x="0" y="0" width="600" height="600"></rect>
            <path d="M549.689445,587.0625 L537.189109,537.0625 C531.258286,512.806641 513.277335,493.299805 489.58334,485.416992 L397.913889,454.875 C375.558798,445.5625 365.330008,409.5625 363.120964,395.895508 C380.154624,381.731445 391.114879,361.579102 393.746785,339.583008 C393.370799,335.826172 394.257541,332.050781 396.267361,328.853516 C399.515495,328.040039 402.174746,325.713867 403.41306,322.603516 C409.411268,308.080078 413.176018,292.732422 414.580352,277.083008 C414.583282,276.232422 414.478787,275.385742 414.267844,274.5625 C412.775616,268.481445 409.200325,263.115234 404.163081,259.395508 L404.163081,204.166016 C404.163081,170.603516 393.912806,156.833008 383.120524,148.853516 C381.059922,132.6875 363.746957,100 299.995248,100 C243.43416,102.277344 198.102866,147.607422 195.825461,204.166992 L195.825461,259.396484 C190.788217,263.116211 187.212926,268.482422 185.720698,274.563477 C185.509755,275.386719 185.40526,276.234375 185.40819,277.083984 C186.810571,292.741211 190.575321,308.095703 196.575481,322.625977 C197.477849,325.570312 199.844124,327.834961 202.825649,328.605469 C203.992673,329.188477 206.180231,332.209961 206.180231,339.584961 C208.827763,361.643555 219.851496,381.841797 236.973049,396.001953 C234.785491,409.647461 224.618226,445.626953 202.889127,454.709961 L110.407155,485.417969 C86.731715,493.299805 68.7624831,512.787109 62.8228706,537.022461 L50.3225354,587.022461 C48.9074583,592.598633 52.2805957,598.266602 57.8569171,599.681641 C58.6899473,599.893555 59.5464156,600.000977 60.4058136,600.001953 L539.585658,600.001953 C545.338742,600 550.000976,595.334961 550,589.582031 C549.999023,588.731445 549.894528,587.885742 549.689445,587.0625 Z" id="Path" fill-opacity="0.497213724" fill="#455A64" fill-rule="nonzero"></path>
        </g>
    </g>
</svg>