<?xml version="1.0" encoding="UTF-8"?>
<svg width="50px" height="50px" viewBox="0 0 50 50" version="1.1" xmlns="http://www.w3.org/2000/svg" xmlns:xlink="http://www.w3.org/1999/xlink">
    <!-- Generator: Sketch 53.2 (72643) - https://sketchapp.com -->
    <title>billboard-coords</title>
    <desc>Created with Sketch.</desc>
    <g id="Page-1" stroke="none" stroke-width="1" fill="none" fill-rule="evenodd">
        <g id="billboard-coords" fill="#010002" fill-rule="nonzero">
            <circle id="Oval" cx="24.968" cy="24.9684286" r="1.98871429"></circle>
            <path d="M2.131,27.0994286 L18.233,27.0994286 C19.4101429,27.0994286 20.364,26.1455714 20.364,24.9684286 C20.364,23.7912857 19.4101429,22.8374286 18.233,22.8374286 L2.131,22.8374286 C0.953857143,22.8372857 0,23.7911429 0,24.9684286 C0,26.1457143 0.953857143,27.0994286 2.131,27.0994286 Z" id="Path"></path>
            <path d="M27.099,2.13142857 C27.099,0.954285714 26.1451429,0.000428571429 24.968,0.000428571429 C23.7908571,0.000428571429 22.837,0.954285714 22.837,2.13142857 L22.837,18.2334286 C22.837,19.4105714 23.7908571,20.3644286 24.968,20.3644286 C26.1451429,20.3644286 27.099,19.4105714 27.099,18.2334286 L27.099,2.13142857 Z" id="Path"></path>
            <path d="M49.9367143,24.9684286 C49.9367143,23.7912857 48.9828571,22.8374286 47.8057143,22.8374286 L31.7037143,22.8374286 C30.5265714,22.8374286 29.5727143,23.7912857 29.5727143,24.9684286 C29.5727143,26.1455714 30.5265714,27.0994286 31.7037143,27.0994286 L47.8057143,27.0994286 C48.982,27.0994286 49.9367143,26.1455714 49.9367143,24.9684286 Z" id="Path"></path>
            <path d="M22.8368571,47.8052857 C22.8368571,48.9824286 23.7907143,49.9362857 24.9678571,49.9362857 C26.145,49.9362857 27.0988571,48.9824286 27.0988571,47.8052857 L27.0988571,31.7032857 C27.0988571,30.5261429 26.145,29.5722857 24.9678571,29.5722857 C23.7907143,29.5722857 22.8368571,30.5261429 22.8368571,31.7032857 L22.8368571,47.8052857 Z" id="Path"></path>
        </g>
    </g>
</svg>