<?xml version="1.0" encoding="UTF-8"?>
<svg width="50px" height="70px" viewBox="0 0 50 70" version="1.1" xmlns="http://www.w3.org/2000/svg" xmlns:xlink="http://www.w3.org/1999/xlink">
    <!-- Generator: Sketch 53.2 (72643) - https://sketchapp.com -->
    <title>billboard-address</title>
    <desc>Created with Sketch.</desc>
    <g id="Page-1" stroke="none" stroke-width="1" fill="none" fill-rule="evenodd">
        <g id="billboard-address" fill="#000000" fill-rule="nonzero">
            <path d="M25,0 C11.215,0 0,11.0397656 0,24.609375 C0,29.1941016 1.29013889,33.6683594 3.73180556,37.5500781 L23.5769444,69.0305273 C23.9570833,69.6335938 24.6268056,70 25.3470833,70 C25.3526389,70 25.3580556,70 25.3636111,70 C26.0901389,69.9943945 26.76125,69.6166406 27.1344444,69.0030469 L46.47375,37.2175781 C48.7806944,33.4178906 50,29.0580664 50,24.609375 C50,11.0397656 38.785,0 25,0 Z M42.8980556,35.1118359 L25.3155556,64.0098047 L7.27319444,35.3891016 C5.24083333,32.1581641 4.13888889,28.4306641 4.13888889,24.609375 C4.13888889,13.3013672 13.5125,4.07421875 25,4.07421875 C36.4875,4.07421875 45.8472222,13.3013672 45.8472222,24.609375 C45.8472222,28.3173242 44.8179167,31.9495313 42.8980556,35.1118359 Z" id="Shape"></path>
            <path d="M25,12.3046875 C18.1075,12.3046875 12.5,17.8245703 12.5,24.609375 C12.5,31.3508398 18.01625,36.9140625 25,36.9140625 C32.0698611,36.9140625 37.5,31.2767383 37.5,24.609375 C37.5,17.8245703 31.8925,12.3046875 25,12.3046875 Z M25,32.8398438 C20.3809722,32.8398438 16.6388889,29.1439258 16.6388889,24.609375 C16.6388889,20.0861719 20.405,16.3789062 25,16.3789062 C29.595,16.3789062 33.3472222,20.0861719 33.3472222,24.609375 C33.3472222,29.0777539 29.6922222,32.8398438 25,32.8398438 Z" id="Shape"></path>
        </g>
    </g>
</svg>