<?xml version="1.0" encoding="UTF-8"?>
<svg width="50px" height="58px" viewBox="0 0 50 58" version="1.1" xmlns="http://www.w3.org/2000/svg" xmlns:xlink="http://www.w3.org/1999/xlink">
    <!-- Generator: Sketch 53.2 (72643) - https://sketchapp.com -->
    <title>avatar</title>
    <desc>Created with Sketch.</desc>
    <g id="Page-1" stroke="none" stroke-width="1" fill="none" fill-rule="evenodd">
        <g id="avatar" fill="#000000" fill-rule="nonzero">
            <path d="M24.7810219,31.2455487 C24.8418491,31.2455487 24.9026764,31.2455487 24.9756691,31.2455487 C25,31.2455487 25.0243309,31.2455487 25.0486618,31.2455487 C25.0851582,31.2455487 25.13382,31.2455487 25.1703163,31.2455487 C28.7347932,31.1855072 31.6180049,29.9486542 33.7469586,27.5830228 C38.4306569,22.3714286 37.6520681,13.4372671 37.56691,12.5846791 C37.2627737,6.18426501 34.1970803,3.12215321 31.6666667,1.6931677 C29.7810219,0.624430642 27.5790754,0.0480331263 25.1216545,0 L25.0364964,0 C25.0243309,0 25,0 24.9878345,0 L24.9148418,0 C23.5644769,0 20.9124088,0.216149068 18.3698297,1.64513458 C15.8150852,3.07412008 12.7007299,6.13623188 12.3965937,12.5846791 C12.3114355,13.4372671 11.5328467,22.3714286 16.216545,27.5830228 C18.3333333,29.9486542 21.216545,31.1855072 24.7810219,31.2455487 Z M15.6447689,12.8848861 C15.6447689,12.8488613 15.6569343,12.8128364 15.6569343,12.7888199 C16.0583942,4.17888199 22.2506083,3.25424431 24.9026764,3.25424431 L24.9513382,3.25424431 C24.9756691,3.25424431 25.0121655,3.25424431 25.0486618,3.25424431 C28.3333333,3.326294 33.9172749,4.64720497 34.2944039,12.7888199 C34.2944039,12.8248447 34.2944039,12.8608696 34.3065693,12.8848861 C34.3187348,12.9689441 35.1703163,21.1345756 31.3017032,25.4335404 C29.7688564,27.1387164 27.7250608,27.9792961 25.0364964,28.0033126 C25.0121655,28.0033126 25,28.0033126 24.9756691,28.0033126 L24.9756691,28.0033126 C24.9513382,28.0033126 24.9391727,28.0033126 24.9148418,28.0033126 C22.2384428,27.9792961 20.1824818,27.1387164 18.6618005,25.4335404 C14.8053528,21.1585921 15.6326034,12.9569358 15.6447689,12.8848861 Z" id="Shape"></path>
            <path d="M49.9756691,46.0637681 C49.9756691,46.0517598 49.9756691,46.0397516 49.9756691,46.0277433 C49.9756691,45.931677 49.9635036,45.8356108 49.9635036,45.7275362 C49.8905109,43.3498965 49.7323601,37.7900621 44.4525547,36.0128364 C44.4160584,36.0008282 44.3673966,35.9888199 44.3309002,35.9768116 C38.8442822,34.5958592 34.2822384,31.473706 34.2335766,31.4376812 C33.4914842,30.9213251 32.4695864,31.1014493 31.946472,31.8339545 C31.4233577,32.5664596 31.6058394,33.5751553 32.3479319,34.0915114 C32.5547445,34.2356108 37.3965937,37.5619048 43.4549878,39.0989648 C46.2895377,40.0956522 46.6058394,43.0857143 46.6909976,45.8236025 C46.6909976,45.931677 46.6909976,46.0277433 46.703163,46.1238095 C46.7153285,47.2045549 46.6423358,48.873706 46.4476886,49.8343685 C44.4768856,50.9391304 36.7518248,54.757764 25,54.757764 C13.296837,54.757764 5.52311436,50.9271222 3.54014599,49.8223602 C3.34549878,48.8616977 3.26034063,47.1925466 3.28467153,46.1118012 C3.28467153,46.015735 3.29683698,45.9196687 3.29683698,45.8115942 C3.38199513,43.073706 3.69829684,40.0836439 6.53284672,39.0869565 C12.5912409,37.5498965 17.43309,34.2115942 17.6399027,34.0795031 C18.3819951,33.563147 18.5644769,32.5544513 18.0413625,31.8219462 C17.5182482,31.089441 16.4963504,30.9093168 15.7542579,31.4256729 C15.7055961,31.4616977 11.1678832,34.5838509 5.65693431,35.9648033 C5.60827251,35.9768116 5.57177616,35.9888199 5.53527981,36.0008282 C0.255474453,37.7900621 0.097323601,43.3498965 0.0243309002,45.715528 C0.0243309002,45.8236025 0.0243309002,45.9196687 0.0121654501,46.015735 C0.0121654501,46.0277433 0.0121654501,46.0397516 0.0121654501,46.0517598 C-1.73472348e-18,46.6761905 -0.0121654501,49.8824017 0.632603406,51.4915114 C0.754257908,51.8037267 0.97323601,52.0679089 1.26520681,52.2480331 C1.63017032,52.4881988 10.377129,57.9879917 25.0121655,57.9879917 C39.6472019,57.9879917 48.3941606,52.4761905 48.7591241,52.2480331 C49.0389294,52.0679089 49.270073,51.8037267 49.3917275,51.4915114 C50,49.8944099 49.9878345,46.6881988 49.9756691,46.0637681 Z" id="Path"></path>
        </g>
    </g>
</svg>