<?xml version="1.0" encoding="UTF-8"?>
<svg width="18px" height="22px" viewBox="0 0 18 22" version="1.1" xmlns="http://www.w3.org/2000/svg" xmlns:xlink="http://www.w3.org/1999/xlink">
    <!-- Generator: Sketch 53.2 (72643) - https://sketchapp.com -->
    <title>logo</title>
    <desc>Created with Sketch.</desc>
    <g id="Page-1" stroke="none" stroke-width="1" fill="none" fill-rule="evenodd">
        <path d="M9.28078818,22 L2.66009852,22 C1.70442872,22 1.02216953,21.7824033 0.613300493,21.3472033 C0.204431453,20.9120033 0,20.2191953 0,19.2687585 L0,2.73124147 C0,1.76079551 0.209357512,1.0629853 0.628078818,0.637789905 C1.04680012,0.212594509 1.72413325,0 2.66009852,0 L9.67980296,0 C10.7142909,0 11.6108336,0.0650289086 12.3694581,0.195088677 C13.1280826,0.325148445 13.8078788,0.575259632 14.408867,0.945429741 C14.9211848,1.25557226 15.3743823,1.64824683 15.7684729,2.12346521 C16.1625635,2.59868359 16.4630532,3.12391709 16.6699507,3.69918145 C16.8768483,4.2744458 16.9802956,4.88221599 16.9802956,5.52251023 C16.9802956,7.72352169 15.8965626,9.33423774 13.729064,10.3547067 C16.5763689,11.2751297 18,13.0659258 18,15.7271487 C18,16.9577142 17.6896583,18.0657068 17.0689655,19.0511596 C16.4482728,20.0366125 15.6108427,20.764436 14.5566502,21.2346521 C13.8965484,21.5147808 13.1379353,21.7123687 12.2807882,21.8274216 C11.423641,21.9424744 10.423651,22 9.28078818,22 Z M8.95566502,12.2305593 L4.38916256,12.2305593 L4.38916256,18.6534789 L9.10344828,18.6534789 C12.0689803,18.6534789 13.5517241,17.5679963 13.5517241,15.3969986 C13.5517241,14.2864883 13.1674915,13.4811303 12.3990148,12.9809004 C11.630538,12.4806705 10.4827663,12.2305593 8.95566502,12.2305593 Z M4.38916256,3.34652115 L4.38916256,9.03410641 L8.408867,9.03410641 C9.50246852,9.03410641 10.3472877,8.92905971 10.9433498,8.71896317 C11.5394118,8.50886662 11.9950723,8.10868872 12.3103448,7.51841746 C12.5566515,7.09822437 12.679803,6.62801533 12.679803,6.10777626 C12.679803,4.99726593 12.2906443,4.25943793 11.5123153,3.89427012 C10.7339863,3.52910231 9.54680601,3.34652115 7.95073892,3.34652115 L4.38916256,3.34652115 Z" id="logo" fill="#E40A32" fill-rule="nonzero"></path>
    </g>
</svg>