<?xml version="1.0" encoding="UTF-8"?>
<svg width="18px" height="25px" viewBox="0 0 18 25" version="1.1" xmlns="http://www.w3.org/2000/svg" xmlns:xlink="http://www.w3.org/1999/xlink">
    <!-- Generator: Sketch 53.2 (72643) - https://sketchapp.com -->
    <title>Shape</title>
    <desc>Created with Sketch.</desc>
    <g id="Page-1" stroke="none" stroke-width="1" fill="none" fill-rule="evenodd">
        <path d="M9,0 C4.0373732,0 0,4.06162604 0,9.05401494 C0,15.2497256 8.05411833,24.345391 8.39702956,24.7295712 C8.71911857,25.0904603 9.28146386,25.0898255 9.60297044,24.7295712 C9.94588167,24.345391 18,15.2497256 18,9.05401494 C17.9999029,4.06162604 13.9625783,0 9,0 Z M9,13.6093428 C6.50317915,13.6093428 4.47192156,11.5658344 4.47192156,9.05401494 C4.47192156,6.54219547 6.50322769,4.49873595 9,4.49873595 C11.4967723,4.49873595 13.5280299,6.5422443 13.5280299,9.05406377 C13.5280299,11.5658832 11.4967723,13.6093428 9,13.6093428 Z" id="Shape" fill="#000000" fill-rule="nonzero"></path>
    </g>
</svg>