<?xml version="1.0" encoding="UTF-8"?>
<svg width="50px" height="56px" viewBox="0 0 50 56" version="1.1" xmlns="http://www.w3.org/2000/svg" xmlns:xlink="http://www.w3.org/1999/xlink">
    <!-- Generator: Sketch 53.2 (72643) - https://sketchapp.com -->
    <title>garbage</title>
    <desc>Created with Sketch.</desc>
    <g id="Page-1" stroke="none" stroke-width="1" fill="none" fill-rule="evenodd">
        <g id="garbage" fill="#000000" fill-rule="nonzero">
            <path d="M48.3870968,8.04928131 L36.7281106,8.04928131 L36.7281106,6.15195072 C36.7281106,2.75975359 33.9631336,0 30.5645161,0 L19.4815668,0 C16.0829493,0 13.3179724,2.75975359 13.3179724,6.15195072 L13.3179724,8.04928131 L1.65898618,8.04928131 C0.794930876,8.04928131 0.103686636,8.73921971 0.103686636,9.60164271 C0.103686636,10.4640657 0.794930876,11.1540041 1.65898618,11.1540041 L4.47004608,11.1540041 L4.47004608,47.6287474 C4.47004608,52.2053388 8.20276498,55.9310062 12.7880184,55.9310062 L37.2580645,55.9310062 C41.843318,55.9310062 45.5760369,52.2053388 45.5760369,47.6287474 L45.5760369,11.1540041 L48.3870968,11.1540041 C49.2511521,11.1540041 49.9423963,10.4640657 49.9423963,9.60164271 C49.9423963,8.73921971 49.2511521,8.04928131 48.3870968,8.04928131 Z M16.4285714,6.15195072 C16.4285714,4.47310062 17.7995392,3.10472279 19.4815668,3.10472279 L30.5645161,3.10472279 C32.2465438,3.10472279 33.6175115,4.47310062 33.6175115,6.15195072 L33.6175115,8.04928131 L16.4285714,8.04928131 L16.4285714,6.15195072 Z M42.4654378,47.6287474 C42.4654378,50.4919918 40.1267281,52.8262834 37.2580645,52.8262834 L12.7880184,52.8262834 C9.91935484,52.8262834 7.58064516,50.4919918 7.58064516,47.6287474 L7.58064516,11.1540041 L42.4769585,11.1540041 L42.4769585,47.6287474 L42.4654378,47.6287474 Z" id="Shape"></path>
            <path d="M25.0230415,47.2607803 C25.8870968,47.2607803 26.578341,46.5708419 26.578341,45.7084189 L26.578341,18.2718686 C26.578341,17.4094456 25.8870968,16.7195072 25.0230415,16.7195072 C24.1589862,16.7195072 23.4677419,17.4094456 23.4677419,18.2718686 L23.4677419,45.6969199 C23.4677419,46.5593429 24.1589862,47.2607803 25.0230415,47.2607803 Z" id="Path"></path>
            <path d="M14.8732719,45.5474333 C15.7373272,45.5474333 16.4285714,44.8574949 16.4285714,43.9950719 L16.4285714,19.9737166 C16.4285714,19.1112936 15.7373272,18.4213552 14.8732719,18.4213552 C14.0092166,18.4213552 13.3179724,19.1112936 13.3179724,19.9737166 L13.3179724,43.9950719 C13.3179724,44.8574949 14.0207373,45.5474333 14.8732719,45.5474333 Z" id="Path"></path>
            <path d="M35.1728111,45.5474333 C36.0368664,45.5474333 36.7281106,44.8574949 36.7281106,43.9950719 L36.7281106,19.9737166 C36.7281106,19.1112936 36.0368664,18.4213552 35.1728111,18.4213552 C34.3087558,18.4213552 33.6175115,19.1112936 33.6175115,19.9737166 L33.6175115,43.9950719 C33.6175115,44.8574949 34.3087558,45.5474333 35.1728111,45.5474333 Z" id="Path"></path>
        </g>
    </g>
</svg>