<?xml version="1.0" encoding="UTF-8"?>
<svg width="50px" height="50px" viewBox="0 0 50 50" version="1.1" xmlns="http://www.w3.org/2000/svg" xmlns:xlink="http://www.w3.org/1999/xlink">
    <!-- Generator: Sketch 53.2 (72643) - https://sketchapp.com -->
    <title>remove</title>
    <desc>Created with Sketch.</desc>
    <g id="Page-1" stroke="none" stroke-width="1" fill="none" fill-rule="evenodd">
        <g id="remove" fill="#000000" fill-rule="nonzero">
            <path d="M25,50 C11.2144471,50 0,38.7855529 0,25 C0,11.2144471 11.2144471,0 25,0 C38.7855529,0 50,11.2144471 50,25 C50,38.7855529 38.7855529,50 25,50 Z M25,3.125 C12.9375458,3.125 3.125,12.9375458 3.125,25 C3.125,37.0624542 12.9375458,46.875 25,46.875 C37.0624542,46.875 46.875,37.0624542 46.875,25 C46.875,12.9375458 37.0624542,3.125 25,3.125 Z" id="Shape"></path>
            <path d="M17.2668457,34.2956543 C16.866684,34.2956543 16.4665223,34.1438293 16.1624908,33.8375092 C15.5521393,33.2271576 15.5521393,32.2376251 16.1624908,31.6272735 L31.6310883,16.1582947 C32.2418213,15.5479432 33.2313537,15.5479432 33.8417053,16.1582947 C34.4520568,16.7686463 34.4520568,17.7581787 33.8417053,18.3689117 L18.3727265,33.8375092 C18.0644989,34.1438293 17.6647187,34.2956543 17.2668457,34.2956543 L17.2668457,34.2956543 Z" id="Path"></path>
            <path d="M32.7331543,34.2956543 C32.333374,34.2956543 31.9332123,34.1438293 31.6291809,33.8375092 L16.1605835,18.3708191 C15.5498505,17.7604676 15.5498505,16.7709351 16.1605835,16.1605835 C16.7709351,15.5498505 17.7604676,15.5498505 18.3708191,16.1605835 L33.8394165,31.6291809 C34.4501495,32.2395324 34.4501495,33.2290649 33.8394165,33.8394165 C33.5334777,34.1438293 33.133316,34.2956543 32.7331543,34.2956543 L32.7331543,34.2956543 Z" id="Path"></path>
        </g>
    </g>
</svg>