<?xml version="1.0" encoding="UTF-8"?>
<svg width="55px" height="57px" viewBox="0 0 55 57" version="1.1" xmlns="http://www.w3.org/2000/svg" xmlns:xlink="http://www.w3.org/1999/xlink">
    <!-- Generator: Sketch 53.2 (72643) - https://sketchapp.com -->
    <title>Shape</title>
    <desc>Created with Sketch.</desc>
    <g id="Page-1" stroke="none" stroke-width="1" fill="none" fill-rule="evenodd">
        <path d="M54.162,51.9179686 L40.604,37.8085525 C44.09,33.6620791 46,28.4449672 46,23.0137275 C46,10.3241583 35.682,0 23,0 C10.318,0 0,10.3241583 0,23.0137275 C0,35.7032967 10.318,46.027455 23,46.027455 C27.761,46.027455 32.298,44.5905979 36.177,41.8629709 L49.838,56.0794509 C50.409,56.6728048 51.177,57 52,57 C52.779,57 53.518,56.7028227 54.079,56.1625004 C55.271,55.0148159 55.309,53.1116807 54.162,51.9179686 Z M23,6.00358108 C32.374,6.00358108 40,13.6341326 40,23.0137275 C40,32.3933223 32.374,40.0238739 23,40.0238739 C13.626,40.0238739 6,32.3933223 6,23.0137275 C6,13.6341326 13.626,6.00358108 23,6.00358108 Z" id="Shape" fill="#999999" fill-rule="nonzero"></path>
    </g>
</svg>